<?xml version="1.0" encoding="UTF-8"?>
<!DOCTYPE svg PUBLIC "-//W3C//DTD SVG 1.1//EN" "http://www.w3.org/Graphics/SVG/1.1/DTD/svg11.dtd">
<svg width="288mm" height="162mm" viewBox="0 0 28800 16200" version="1.1" xmlns="http://www.w3.org/2000/svg" xmlns:xlink="http://www.w3.org/1999/xlink" stroke-width="28.222" stroke-linejoin="round" xml:space="preserve">
 <path fill="rgb(255,255,255)" stroke="none" d="M 14385,16182 L 0,16182 0,0 28770,0 28770,16182 14385,16182 Z"/>
 <path fill="rgb(221,221,221)" stroke="none" d="M 19245,14087 L 10918,14087 10918,2766 27573,2766 27573,14087 19245,14087 Z"/>
 <path fill="none" stroke="rgb(179,179,179)" stroke-linejoin="round" d="M 19245,14087 L 10918,14087 10918,2766 27573,2766 27573,14087 19245,14087 Z"/>
 <path fill="none" stroke="rgb(179,179,179)" stroke-linejoin="round" d="M 27573,14086 L 10918,14086"/>
 <path fill="none" stroke="rgb(179,179,179)" stroke-linejoin="round" d="M 27573,11989 L 10918,11989"/>
 <path fill="none" stroke="rgb(179,179,179)" stroke-linejoin="round" d="M 27573,9892 L 10918,9892"/>
 <path fill="none" stroke="rgb(179,179,179)" stroke-linejoin="round" d="M 27573,7796 L 10918,7796"/>
 <path fill="none" stroke="rgb(179,179,179)" stroke-linejoin="round" d="M 27573,5700 L 10918,5700"/>
 <path fill="none" stroke="rgb(179,179,179)" stroke-linejoin="round" d="M 27573,3603 L 10918,3603"/>
 <path fill="none" stroke="rgb(179,179,179)" stroke-linejoin="round" d="M 10918,14236 L 10918,14086"/>
 <path fill="none" stroke="rgb(179,179,179)" stroke-linejoin="round" d="M 10918,14236 L 10918,14086"/>
 <path fill="none" stroke="rgb(179,179,179)" stroke-linejoin="round" d="M 13297,14236 L 13297,14086"/>
 <path fill="none" stroke="rgb(179,179,179)" stroke-linejoin="round" d="M 13297,14236 L 13297,14086"/>
 <path fill="none" stroke="rgb(179,179,179)" stroke-linejoin="round" d="M 15675,14236 L 15675,14086"/>
 <path fill="none" stroke="rgb(179,179,179)" stroke-linejoin="round" d="M 15675,14236 L 15675,14086"/>
 <path fill="none" stroke="rgb(179,179,179)" stroke-linejoin="round" d="M 18055,14236 L 18055,14086"/>
 <path fill="none" stroke="rgb(179,179,179)" stroke-linejoin="round" d="M 18055,14236 L 18055,14086"/>
 <path fill="none" stroke="rgb(179,179,179)" stroke-linejoin="round" d="M 20434,14236 L 20434,14086"/>
 <path fill="none" stroke="rgb(179,179,179)" stroke-linejoin="round" d="M 20434,14236 L 20434,14086"/>
 <path fill="none" stroke="rgb(179,179,179)" stroke-linejoin="round" d="M 22814,14236 L 22814,14086"/>
 <path fill="none" stroke="rgb(179,179,179)" stroke-linejoin="round" d="M 22814,14236 L 22814,14086"/>
 <path fill="none" stroke="rgb(179,179,179)" stroke-linejoin="round" d="M 25193,14236 L 25193,14086"/>
 <path fill="none" stroke="rgb(179,179,179)" stroke-linejoin="round" d="M 25193,14236 L 25193,14086"/>
 <path fill="none" stroke="rgb(179,179,179)" stroke-linejoin="round" d="M 27573,14236 L 27573,14086"/>
 <path fill="none" stroke="rgb(179,179,179)" stroke-linejoin="round" d="M 27573,14236 L 27573,14086"/>
 <path fill="none" stroke="rgb(179,179,179)" stroke-linejoin="round" d="M 10918,14086 L 27573,14086"/>
 <path fill="none" stroke="rgb(179,179,179)" stroke-linejoin="round" d="M 10768,14086 L 10918,14086"/>
 <path fill="none" stroke="rgb(179,179,179)" stroke-linejoin="round" d="M 10768,14086 L 10918,14086"/>
 <path fill="none" stroke="rgb(179,179,179)" stroke-linejoin="round" d="M 10768,11989 L 10918,11989"/>
 <path fill="none" stroke="rgb(179,179,179)" stroke-linejoin="round" d="M 10768,11989 L 10918,11989"/>
 <path fill="none" stroke="rgb(179,179,179)" stroke-linejoin="round" d="M 10768,9892 L 10918,9892"/>
 <path fill="none" stroke="rgb(179,179,179)" stroke-linejoin="round" d="M 10768,9892 L 10918,9892"/>
 <path fill="none" stroke="rgb(179,179,179)" stroke-linejoin="round" d="M 10768,7796 L 10918,7796"/>
 <path fill="none" stroke="rgb(179,179,179)" stroke-linejoin="round" d="M 10768,7796 L 10918,7796"/>
 <path fill="none" stroke="rgb(179,179,179)" stroke-linejoin="round" d="M 10768,5700 L 10918,5700"/>
 <path fill="none" stroke="rgb(179,179,179)" stroke-linejoin="round" d="M 10768,5700 L 10918,5700"/>
 <path fill="none" stroke="rgb(179,179,179)" stroke-linejoin="round" d="M 10768,3603 L 10918,3603"/>
 <path fill="none" stroke="rgb(179,179,179)" stroke-linejoin="round" d="M 10768,3603 L 10918,3603"/>
 <path fill="none" stroke="rgb(179,179,179)" stroke-linejoin="round" d="M 10918,14086 L 10918,2764"/>
 <path fill="none" stroke="rgb(179,179,179)" stroke-linejoin="round" d="M 27723,14086 L 27573,14086"/>
 <path fill="none" stroke="rgb(179,179,179)" stroke-linejoin="round" d="M 27723,14086 L 27573,14086"/>
 <path fill="none" stroke="rgb(179,179,179)" stroke-linejoin="round" d="M 27723,12953 L 27573,12953"/>
 <path fill="none" stroke="rgb(179,179,179)" stroke-linejoin="round" d="M 27723,12953 L 27573,12953"/>
 <path fill="none" stroke="rgb(179,179,179)" stroke-linejoin="round" d="M 27723,11821 L 27573,11821"/>
 <path fill="none" stroke="rgb(179,179,179)" stroke-linejoin="round" d="M 27723,11821 L 27573,11821"/>
 <path fill="none" stroke="rgb(179,179,179)" stroke-linejoin="round" d="M 27723,10689 L 27573,10689"/>
 <path fill="none" stroke="rgb(179,179,179)" stroke-linejoin="round" d="M 27723,10689 L 27573,10689"/>
 <path fill="none" stroke="rgb(179,179,179)" stroke-linejoin="round" d="M 27723,9557 L 27573,9557"/>
 <path fill="none" stroke="rgb(179,179,179)" stroke-linejoin="round" d="M 27723,9557 L 27573,9557"/>
 <path fill="none" stroke="rgb(179,179,179)" stroke-linejoin="round" d="M 27723,8425 L 27573,8425"/>
 <path fill="none" stroke="rgb(179,179,179)" stroke-linejoin="round" d="M 27723,8425 L 27573,8425"/>
 <path fill="none" stroke="rgb(179,179,179)" stroke-linejoin="round" d="M 27723,7293 L 27573,7293"/>
 <path fill="none" stroke="rgb(179,179,179)" stroke-linejoin="round" d="M 27723,7293 L 27573,7293"/>
 <path fill="none" stroke="rgb(179,179,179)" stroke-linejoin="round" d="M 27723,6161 L 27573,6161"/>
 <path fill="none" stroke="rgb(179,179,179)" stroke-linejoin="round" d="M 27723,6161 L 27573,6161"/>
 <path fill="none" stroke="rgb(179,179,179)" stroke-linejoin="round" d="M 27723,5029 L 27573,5029"/>
 <path fill="none" stroke="rgb(179,179,179)" stroke-linejoin="round" d="M 27723,5029 L 27573,5029"/>
 <path fill="none" stroke="rgb(179,179,179)" stroke-linejoin="round" d="M 27723,3897 L 27573,3897"/>
 <path fill="none" stroke="rgb(179,179,179)" stroke-linejoin="round" d="M 27723,3897 L 27573,3897"/>
 <path fill="none" stroke="rgb(179,179,179)" stroke-linejoin="round" d="M 27723,2764 L 27573,2764"/>
 <path fill="none" stroke="rgb(179,179,179)" stroke-linejoin="round" d="M 27723,2764 L 27573,2764"/>
 <path fill="none" stroke="rgb(179,179,179)" stroke-linejoin="round" d="M 27573,14086 L 27573,2764"/>
 <path fill="none" stroke="rgb(255,149,14)" stroke-width="30" stroke-linejoin="round" d="M 13308,14086 L 13316,11033 13326,10751 13335,10487 13345,10222 13354,9982 13364,10015 13373,9863 13383,9972 13392,9733 13402,9760 13411,11620 13421,11798 13430,11652 13440,11646 13449,11504 13459,11272 13468,11148 13478,11029 13487,10926 13497,10760 13506,10531 13516,10467 13526,10309 13535,10218 13544,9966 13554,9864 13564,9719 13573,9535 13583,9269 13592,9176 13602,9425 13612,11359 13621,11725 13630,11625 13640,11613 13649,11576 13659,11485 13668,11483 13678,11376 13687,11294 13697,11309 13706,11142 13716,11171 13725,11042 13735,11001 13744,10953 13754,10937 13764,10749 13773,10834 13783,10680 13792,10635 13802,10571 13811,10448 13820,10499 13830,10366 13840,10368 13849,10233 13859,10210 13868,10191 13878,9993 13887,10094 13897,9924 13906,9933 13916,9852 13925,9811 13935,9799 13944,9727 13954,9698 13963,9556 13973,9554 13982,9519 13992,10964 14001,12198 14011,12112 14021,12068 14030,11969 14039,11895 14049,11800 14059,11773 14068,11621 14077,11554 14087,11512 14097,11421 14106,11396 14116,11280 14125,11248 14135,11226 14144,11165 14154,11044 14163,11022 14173,10969 14182,10874 14192,10791 14201,10782 14211,10628 14220,10551 14230,10567 14239,10476 14249,10475 14258,10418 14268,10284 14277,10281 14287,10235 14297,10168 14306,10155 14316,10045 14325,10078 14334,9977 14344,9889 14353,9873 14363,11233 14373,11231 14382,11213 14391,11068 14400,11093 14410,10950 14419,10988 14429,10872 14438,10839 14448,10746 14457,10671 14467,10617 14476,10631 14486,10549 14495,10421 14505,10414 14514,10325 14524,10316 14533,10186 14543,10158 14552,10119 14562,9997 14571,10044 14581,9970 14590,9883 14600,9827 14609,9787 14619,11024 14629,10974 14638,10858 14648,10803 14657,10767 14667,10732 14677,10637 14686,10615 14695,10455 14705,10399 14714,10392 14724,10351 14733,11322 14743,11228 14752,11229 14762,11125 14771,11863 14781,11827 14790,11769 14800,11631 14809,11651 14819,11627 14828,11564 14838,11499 14848,11399 14857,11320 14866,11281 14876,11248 14885,11174 14895,11065 14905,10981 14914,10962 14924,10904 14933,10821 14943,10812 14952,10692 14962,10689 14971,10639 14981,10582 14990,10480 15000,10481 15009,10390 15019,10261 15028,10314 15038,10170 15047,10136 15057,10145 15067,10007 15076,10702 15085,10816 15095,10724 15105,10701 15114,10636 15123,10563 15133,10605 15143,10442 15152,10373 15162,10399 15171,10333 15181,10271 15190,10242 15200,10118 15209,10137 15219,10040 15228,10051 15238,11848 15247,11793 15257,11755 15266,11707 15276,11597 15285,11498 15295,11368 15304,11285 15314,11239 15323,11165 15333,11114 15342,11009 15352,10944 15371,10813 15381,10711 15390,10683 15399,10603 15409,10479 15419,10516 15428,10361 15438,10342 15447,10251 15457,10164 15466,10166 15476,10063 15485,9962 15495,9927 15504,9895 15514,9870 15523,9897 15533,9737 15542,9670 15552,10769 15561,11377 15571,11208 15580,11133 15590,11075 15599,11012 15609,10962 15618,10906 15628,10827 15638,10752 15647,10737 15657,10642 15666,10555 15676,10543 15685,10383 15695,10397 15704,10295 15714,10347 15723,10214 15733,10133 15742,10103 15752,10047 15761,11342 15771,11338 15780,11277 15790,11217 15799,11119 15809,11113 15818,11004 15828,10942 15837,10915 15847,10855 15856,10786 15866,10704 15875,10582 15885,10621 15894,10471 15904,10463 15913,10448 15923,10346 15933,10291 15942,10187 15952,10200 15961,10129 15971,10046 15980,10000 15990,9895 15999,9905 16009,9793 16018,9781 16028,10206 16037,11000 16047,10877 16056,10807 16066,10673 16075,10531 16085,10514 16094,10489 16104,10379 16113,10385 16123,10330 16132,10844 16142,11189 16152,11171 16162,11092 16171,11023 16180,11020 16189,10922 16199,10833 16209,10692 16218,10632 16228,10680 16237,10594 16247,10570 16256,10409 16266,10470 16275,10345 16285,10334 16294,10239 16304,10146 16313,11591 16323,11836 16332,11777 16342,11664 16351,11591 16361,11576 16370,11396 16380,11332 16389,11293 16399,11218 16408,11074 16418,11075 16428,11018 16437,10935 16446,10868 16456,10835 16465,10716 16475,10648 16485,10527 16494,10485 16504,10483 16513,10375 16523,10320 16532,10321 16542,10246 16551,10149 16561,10095 16570,9993 16580,9923 16589,9871 16599,10967 16608,10861 16618,10840 16627,10787 16637,10777 16646,10645 16656,10742 16665,12200 16675,12115 16684,12045 16694,11996 16704,11916 16713,11826 16722,11803 16732,11674 16742,11688 16751,11619 16761,11518 16770,11505 16780,11348 16789,11310 16799,11216 16808,11168 16818,11115 16827,11086 16837,10983 16846,10894 16856,10891 16865,10784 16875,10754 16884,10688 16894,10689 16903,10567 16913,10458 16922,10471 16932,10374 16941,10335 16951,10249 16960,10276 16970,10131 16979,10143 16989,10089 16999,9914 17009,9903 17018,9836 17027,9784 17037,9710 17046,9641 17056,9640 17065,9567 17075,9777 17084,11662 17094,12128 17103,12019 17113,11913 17122,11810 17132,11884 17141,11731 17151,11699 17160,11625 17170,11513 17179,11492 17189,11400 17198,11387 17208,11323 17218,11253 17227,11166 17236,11100 17246,11072 17256,10937 17265,10922 17275,10801 17284,10779 17294,10763 17303,10683 17313,10627 17322,10522 17332,10442 17341,10485 17351,10387 17360,10409 17370,10263 17389,10197 17398,10118 17408,10050 17417,10036 17427,9955 17446,10686 17455,11444 17465,11297 17475,11120 17484,11092 17494,11090 17503,10947 17513,10897 17522,10849 17531,10801 17541,10685 17551,10555 17560,10565 17570,10480 17579,10468 17589,10361 17598,10325 17608,10199 17617,10102 17627,10084 17646,10008 17655,9943 17665,9874 17674,9818 17684,9735 17693,9763 17703,9582 17712,9661 17722,9553 17731,10551 17741,10896 17751,11825 17760,11719 17769,11663 17779,11546 17789,11650 17798,11481 17807,11471 17817,11321 17827,11296 17836,11178 17846,11142 17855,11066 17865,11005 17874,10920 17884,10928 17893,10766 17903,10775 17912,10731 17922,10651 17931,10573 17941,10533 17950,10496 17960,10401 17969,10286 17979,10300 17988,10280 17998,10154 18007,10070 18017,10071 18027,9977 18036,9949 18046,9857 18055,9743 18064,9747 18074,9762 18084,9640 18093,9727 18103,9542 18112,9378 18122,9408 18131,9381 18141,9909 18150,10547 18160,11034 18169,10930 18179,10953 18188,10873 18198,10769 18207,10694 18217,10723 18226,10522 18236,10627 18245,10436 18255,10449 18264,10430 18274,10324 18283,10369 18293,10451 18302,10815 18312,10770 18322,10742 18331,11334 18341,12591 18350,12375 18360,12404 18369,12354 18379,12218 18388,12235 18398,12059 18407,11897 18417,11945 18427,11872 18436,11792 18445,11644 18455,11575 18464,11584 18474,11452 18483,11382 18493,11378 18502,11142 18512,11243 18521,11080 18531,11032 18540,10918 18550,10870 18559,10907 18569,10832 18578,10742 18588,10714 18598,10656 18607,10620 18617,10514 18626,10413 18636,10411 18645,10340 18655,10250 18664,10156 18683,10128 18693,10016 18702,9969 18712,10064 18721,11652 18731,11649 18740,11543 18750,11514 18759,11500 18769,11411 18778,11295 18797,11228 18807,11122 18817,11100 18826,10999 18836,10985 18845,10794 18854,10860 18864,10747 18874,10661 18883,10628 18893,10569 18902,10505 18912,10469 18921,10408 18931,10349 18940,10221 18950,10103 18959,10039 18969,10056 18978,9968 18988,9931 18997,9895 19007,9838 19016,9766 19026,9724 19035,10371 19045,10887 19054,10715 19064,10605 19074,10591 19083,10555 19093,10470 19102,10349 19112,10357 19121,10273 19130,10311 19140,10091 19150,10059 19159,10008 19169,9922 19178,9935 19188,9849 19197,9811 19207,9777 19216,11249 19226,11406 19235,11308 19245,11197 19254,11142 19264,11166 19273,11067 19283,11015 19292,10848 19302,10843 19311,10781 19321,10756 19330,10589 19340,10496 19350,10530 19359,10392 19369,11144 19378,11787 19388,11679 19397,11572 19407,11548 19416,11544 19426,11451 19435,11332 19445,11311 19454,11237 19464,11173 19473,11070 19483,11058 19492,10979 19502,10899 19511,10918 19521,10713 19530,10749 19540,10643 19559,10523 19568,10366 19578,10448 19587,10263 19597,10291 19607,10254 19616,10197 19625,10093 19635,10015 19645,10029 19654,9958 19663,9874 19673,9843 19683,9736 19692,9719 19702,10139 19711,10983 19721,10912 19730,10823 19740,10731 19749,10700 19759,10556 19768,10564 19778,10525 19787,10464 19797,11236 19806,11251 19816,11169 19825,11198 19835,11205 19844,11050 19854,11075 19863,10971 19873,10912 19883,10778 19892,10814 19901,10697 19911,10660 19921,10570 19930,10486 19940,10528 19949,10414 19959,10399 19968,10321 19978,10143 19987,10206 19997,10087 20006,10054 20016,10040 20025,9919 20035,9913 20044,9879 20054,9850 20063,10229 20073,11589 20082,11374 20092,11253 20101,11200 20111,11053 20121,10970 20130,10910 20140,10822 20149,10824 20158,10755 20168,10693 20178,10608 20187,10525 20197,10368 20206,10384 20216,10261 20225,11525 20235,11647 20244,11537 20254,11490 20263,11455 20273,11377 20282,11325 20292,11227 20301,11147 20311,11169 20320,11054 20330,10993 20339,10934 20349,10893 20358,10818 20368,10720 20377,10620 20387,10647 20397,10561 20406,10469 20416,10458 20425,10322 20434,10273 20444,10221 20454,10152 20463,10147 20473,10047 20482,10007 20492,10005 20501,9893 20511,9820 20520,9811 20530,9679 20539,9677 20549,9579 20568,9507 20577,10920 20587,10853 20596,10780 20606,10683 20615,10635 20625,10564 20634,10505 20644,10491 20653,10321 20663,10258 20672,10219 20682,10153 20691,10114 20701,10035 20710,11096 20720,11183 20730,11104 20739,11073 20749,10945 20758,10884 20768,10859 20777,10827 20787,10802 20796,10702 20806,10632 20815,12132 20825,12032 20835,11990 20844,11882 20853,11816 20863,11675 20872,11659 20882,11604 20891,11430 20901,11461 20910,11362 20920,11256 20930,11196 20939,11175 20949,11117 20958,11011 20968,10932 20977,10923 20987,10839 20996,10788 21006,10707 21015,10647 21025,10632 21034,10529 21044,10477 21053,10398 21063,10345 21072,10327 21082,10288 21091,10150 21101,10147 21110,10113 21120,10085 21129,9947 21139,9914 21148,9877 21158,9804 21167,9790 21177,9704 21186,9708 21196,11109 21205,11005 21215,10999 21224,10874 21234,10887 21244,10745 21253,10703 21263,10722 21272,10654 21282,10568 21291,10557 21301,10487 21310,10416 21320,10308 21329,10315 21339,10182 21348,10187 21358,10085 21367,9999 21377,9980 21386,9865 21396,9905 21405,9772 21415,9792 21424,9687 21434,9632 21443,10517 21453,11976 21463,12074 21472,12076 21481,12085 21491,12001 21501,11975 21510,11880 21519,11776 21529,11720 21539,11688 21548,11629 21558,11492 21567,11454 21577,11388 21586,11336 21596,11236 21605,11202 21615,11108 21624,11083 21634,11038 21643,10937 21653,10921 21662,10806 21672,10759 21681,10677 21691,10613 21700,10598 21710,10581 21720,10462 21729,10496 21739,10366 21748,10249 21758,10218 21777,10126 21786,10032 21796,10084 21805,9987 21815,9917 21824,9953 21834,9779 21843,9757 21853,9709 21862,9645 21872,9599 21881,10666 21891,10715 21900,10615 21910,10572 21919,10507 21929,10448 21938,10458 21948,10322 21957,10327 21967,10240 21976,10200 21986,10077 21996,10061 22005,9985 22015,9923 22024,10414 22034,11534 22043,12361 22052,12320 22062,12254 22072,12222 22081,12111 22091,12022 22100,11892 22110,11954 22119,11794 22129,11701 22138,11573 22148,11588 22157,11497 22167,11433 22176,11367 22186,11307 22195,11210 22205,11180 22214,11051 22224,11020 22233,10939 22243,10893 22252,10792 22262,10772 22272,10761 22281,10693 22291,10591 22300,10581 22309,10480 22319,10409 22329,10431 22338,10294 22348,10364 22357,10208 22367,10141 22376,10061 22386,10073 22395,10025 22405,10020 22414,9875 22424,9783 22433,9858 22443,9697 22453,9785 22462,9698 22471,9703 22481,9522 22490,9593 22500,9528 22509,9460 22519,9343 22528,9441 22538,9374 22547,9356 22557,9209 22566,9194 22576,9125 22586,10713 22595,10880 22605,10723 22614,12352 22624,13146 22633,13055 22643,12920 22652,12911 22662,12840 22671,12746 22681,12663 22690,12559 22700,12541 22709,12443 22719,12335 22728,12239 22738,12187 22747,12072 22757,12016 22766,11951 22776,11886 22786,11834 22795,11798 22805,11654 22814,11614 22824,11533 22833,11503 22843,11344 22852,11356 22862,11270 22871,11187 22881,11096 22890,11131 22900,11037 22909,10916 22919,10852 22928,10825 22938,10720 22947,10661 22957,10575 22966,10520 22976,10507 22985,10402 22995,10353 23004,10241 23015,10198 23023,10148 23033,10167 23043,10088 23052,10070 23062,9967 23071,9904 23080,9841 23090,9783 23099,9721 23109,9635 23119,9662 23128,9547 23138,9565 23147,9442 23157,9436 23166,9336 23176,9832 23185,10703 23195,10603 23204,10546 23214,10463 23223,10448 23233,10324 23242,10226 23252,10178 23261,10958 23271,11611 23280,11539 23290,11356 23299,11377 23309,12217 23319,12352 23328,12253 23337,12238 23347,12230 23357,12017 23366,12061 23376,12054 23385,11939 23395,11840 23404,11851 23414,11842 23423,11728 23433,11579 23442,11587 23452,11444 23461,11406 23471,11395 23480,11324 23490,11154 23500,11128 23518,11020 23528,10971 23537,10884 23547,10875 23556,10740 23575,10642 23585,10595 23595,10526 23604,10447 23613,10416 23623,10268 23633,10277 23652,10143 23661,10067 23671,10037 23680,10038 23690,9882 23699,11183 23709,11325 23718,11224 23728,11149 23737,11038 23747,11064 23756,10941 23766,10884 23775,10799 23785,10739 23794,10659 23804,10636 23813,10503 23823,10506 23832,10378 23842,10347 23851,10265 23861,10244 23871,10189 23880,10129 23889,10070 23899,10217 23909,11323 23918,11218 23928,11175 23937,11059 23947,11037 23956,11008 23966,10865 23975,10874 23985,10761 23994,10658 24004,10670 24013,10615 24023,10503 24032,10522 24042,10407 24051,10397 24061,10357 24070,10318 24080,10255 24089,10162 24099,10142 24108,10054 24118,10003 24128,9975 24137,9885 24146,9895 24156,9805 24166,9791 24175,9714 24185,10026 24194,11846 24204,12303 24213,12179 24223,12111 24242,12034 24251,11897 24261,11843 24270,11749 24280,11742 24289,11544 24299,11623 24308,11441 24318,11451 24327,11337 24337,11307 24346,11099 24356,11189 24365,11110 24375,11002 24385,10932 24394,10873 24403,10845 24413,10833 24423,10756 24432,10606 24442,10630 24452,10512 24461,10526 24470,10406 24480,10368 24489,10280 24499,10244 24508,10215 24518,11064 24527,11384 24537,11239 24546,11235 24556,11060 24565,11047 24575,11029 24584,10893 24594,10930 24603,10825 24613,10662 24622,10598 24632,10575 24642,10518 24651,10446 24661,10426 24670,10371 24680,10346 24689,10303 24698,10196 24708,10194 24718,10145 24727,10057 24737,9954 24746,9979 24756,9883 24765,9839 24775,9794 24784,9751 24794,9641 24803,9620 24813,9522 24822,9983 24832,11242 24841,11084 24851,11060 24860,10886 24870,10848 24879,10818 24889,10666 24899,10665 24908,10597 24917,10595 24927,10582 24937,11697 24946,11637 24956,11578 24965,11451 24975,11399 24985,11339 24994,11326 25003,11260 25013,11145 25023,11044 25032,10987 25041,10916 25051,10862 25060,10869 25070,10758 25079,10721 25089,10647 25098,10556 25108,10492 25117,10514 25127,10365 25136,10307 25146,10299 25155,10225 25165,10113 25174,10082 25184,10037"/>
 <path fill="none" stroke="rgb(153,102,153)" stroke-width="20" stroke-linejoin="round" d="M 10937,14069 L 10946,13873 10956,13848 10965,13801 10975,13661 10984,13915 10994,13962 11003,13634 11013,13996 11022,13957 11032,13967 11041,13943 11051,13792 11060,13933 11070,13943 11079,13855 11089,13923 11098,13966 11108,13883 11117,13516 11127,13206 11137,12776 11146,12367 11155,11788 11165,11426 11175,11036 11184,10549 11194,10040 11203,9611 11213,9349 11222,11475 11232,12007 11241,11931 11251,11931 11260,11816 11270,11687 11279,11665 11289,11636 11298,11527 11308,11527 11317,11410 11327,11367 11336,11326 11346,11250 11355,11163 11365,11149 11375,11058 11384,11110 11393,11004 11403,10953 11412,10903 11422,10902 11432,10746 11441,10745 11451,10748 11460,10694 11470,10591 11479,10592 11489,10498 11498,10433 11517,10433 11527,10353 11536,10408 11546,10367 11555,12807 11565,12790 11574,12728 11584,12730 11593,12740 11603,12629 11612,12608 11631,12613 11641,12597 11651,12456 11660,12466 11670,12414 11679,12361 11688,12279 11698,12243 11708,12205 11717,12258 11727,12139 11746,12087 11755,12099 11765,12005 11774,11999 11784,11896 11793,11996 11803,11893 11812,11841 11831,11736 11841,11754 11850,11627 11860,11664 11869,11565 11879,11580 11888,11613 11898,11513 11908,11464 11917,11475 11926,11423 11936,11372 11945,11307 11955,11318 11965,11216 11974,11267 11984,11162 12003,11175 12012,11082 12022,11058 12031,11110 12041,11057 12050,10950 12060,10890 12069,10900 12088,10836 12098,10902 12107,10847 12117,10798 12126,10782 12136,10643 12145,10643 12165,10679 12174,10557 12184,10592 12193,10486 12202,10484 12212,10537 12222,10389 12231,10380 12241,10367 12250,10277 12260,10328 12269,12842 12279,12812 12288,12727 12298,12681 12307,12608 12317,12608 12326,12467 12336,12396 12346,12416 12355,12308 12364,12256 12374,12204 12383,12192 12393,12177 12403,12104 12412,12099 12421,11996 12431,11892 12441,11928 12450,11919 12460,11840 12469,11788 12479,11683 12488,11683 12498,11735 12507,11675 12517,11510 12526,11527 12536,11461 12545,11476 12555,11370 12564,11411 12574,11319 12583,11315 12593,11219 12602,11214 12612,11164 12621,11214 12631,11112 12640,11119 12650,11164 12659,11005 12669,11057 12678,10979 12688,11058 12697,10940 12707,10955 12716,10907 12726,10902 12735,10850 12745,10797 12755,10796 12764,10847 12774,10744 12783,10851 12793,10696 12802,10805 12812,10679 12821,10693 12840,10644 12850,10590 12859,10628 12869,10580 12878,10611 12888,10640 12897,10640 12907,10486 12916,10587 12926,10522 12935,10509 12945,10535 12954,10432 12964,10380 12983,10280 12993,10328 13002,10224 13012,10317 13021,10263 13031,10471 13040,12732 13050,12698 13059,12609 13069,12575 13078,12466 13097,12361 13107,12267 13116,12210 13126,12204 13135,12100 13154,11997 13164,11997 13173,11983 13183,11931 13193,11843 13211,11801 13221,11723 13230,11683 13240,11572 13250,11579 13259,11488 13268,11524 13278,11469 13288,11424 13297,11371 13307,10908 13316,10535 13326,10474 13335,10457 13345,10322 13354,10285 13364,10126 13373,10049 13383,9963 13392,9924 13402,10079 13411,12026 13421,11911 13430,11744 13440,11640 13449,11519 13459,11383 13468,11273 13478,11093 13488,10877 13497,10747 13507,10638 13516,10423 13525,10274 13535,9763 13544,10411 13554,9984 13564,9734 13573,9581 13583,9262 13592,9121 13602,9008 13611,11339 13621,11808 13630,11642 13640,11643 13649,11600 13659,11513 13668,11426 13678,11439 13688,11359 13697,11249 13706,11148 13716,11215 13725,11073 13735,11053 13744,10958 13754,10931 13763,10781 13773,10782 13782,10719 13792,10681 13802,10577 13811,10497 13821,10500 13830,10383 13840,10392 13849,10290 13859,10262 13868,10177 13878,10153 13887,10097 13897,9948 13906,9960 13916,9931 13925,9841 13935,9763 13944,9712 13954,9684 13963,9655 13973,9547 13982,9448 13992,11045 14001,12204 14012,12089 14020,12038 14030,11972 14039,11880 14049,11798 14058,11753 14068,11656 14077,11512 14087,11576 14097,11431 14106,11353 14116,11224 14125,11253 14135,11263 14144,11227 14154,11008 14163,11014 14173,10987 14182,10837 14192,10806 14201,10773 14211,10669 14220,10591 14230,10539 14239,10489 14249,10464 14258,10445 14268,10306 14277,10245 14287,10219 14296,10126 14306,10195 14316,10024 14325,10099 14334,9974 14344,9937 14353,9862 14363,10533 14373,11182 14391,11113 14400,11129 14410,10988 14419,10981 14429,10830 14438,10855 14448,10725 14457,10744 14467,10620 14476,10624 14486,10561 14495,10390 14505,10387 14514,10285 14524,10296 14533,10210 14543,10157 14552,10118 14562,9990 14571,9968 14581,9930 14591,9952 14600,9752 14610,9730 14619,10844 14629,10885 14638,10822 14648,10767 14657,10757 14667,10621 14676,10690 14686,10498 14695,10489 14705,10370 14714,10323 14724,10467 14733,11263 14743,11139 14752,11137 14762,11026 14771,11686 14781,11791 14790,11678 14800,11625 14809,11618 14819,11468 14828,11512 14838,11425 14847,11289 14857,11193 14867,11267 14876,11120 14886,11084 14895,10985 14905,10950 14924,10773 14933,10774 14943,10725 14952,10661 14962,10553 14971,10574 14981,10491 14990,10546 15000,10442 15009,10372 15019,10248 15028,10297 15038,10156 15047,10059 15057,10067 15066,9938 15076,10087 15085,10770 15095,10662 15114,10612 15123,10397 15142,10409 15152,10368 15162,10261 15171,10203 15181,10150 15200,10146 15209,10065 15219,10025 15228,9977 15238,11348 15247,11749 15257,11659 15266,11603 15276,11559 15285,11436 15295,11371 15304,11327 15314,11199 15323,11135 15333,11089 15343,10924 15352,10874 15361,10824 15371,10722 15380,10678 15390,10642 15400,10528 15409,10469 15428,10349 15438,10299 15447,10180 15457,10121 15466,10047 15477,9967 15485,10061 15495,9944 15504,9872 15514,9789 15523,9754 15533,9711 15542,9682 15552,11306 15561,11308 15571,11194 15580,11125 15590,11063 15599,11020 15609,10897 15619,10863 15628,10827 15637,10734 15647,10703 15656,10592 15667,10556 15675,10548 15685,10453 15695,10356 15704,10276 15714,10275 15723,10234 15733,10147 15742,10081 15752,10017 15761,11361 15771,11286 15780,11313 15790,11158 15799,11159 15818,11029 15828,10909 15837,10927 15847,10830 15856,10793 15866,10722 15875,10697 15885,10631 15895,10551 15904,10456 15914,10426 15923,10299 15932,10348 15942,10205 15952,10194 15961,10126 15971,10091 15980,9986 15990,9911 15999,9907 16009,9842 16018,9799 16028,10835 16037,11018 16047,10782 16056,10756 16066,10767 16075,10593 16085,10531 16094,10461 16104,10481 16113,10314 16123,10312 16132,10448 16142,11285 16151,11201 16161,11171 16171,11010 16180,10970 16190,10998 16199,10832 16208,10867 16218,10740 16228,10781 16237,10599 16247,10588 16256,10532 16266,10357 16275,10371 16285,10317 16294,10245 16304,10295 16313,11779 16323,11870 16333,11759 16342,11737 16351,11599 16361,11542 16370,11455 16380,11389 16389,11309 16399,11243 16408,11080 16418,11072 16428,11044 16437,10964 16446,10796 16456,10841 16466,10699 16475,10680 16485,10558 16494,10607 16504,10450 16513,10414 16523,10345 16532,10330 16542,10191 16551,10155 16561,10101 16570,10069 16580,9966 16589,10151 16599,11068 16608,10967 16618,10974 16627,10900 16637,10802 16646,10701 16656,11560 16665,12172 16675,12148 16684,12091 16694,11961 16703,11926 16713,11884 16723,11832 16732,11724 16741,11717 16751,11594 16761,11484 16770,11467 16780,11350 16789,11395 16799,11206 16808,11175 16818,11110 16827,11064 16837,11020 16846,11009 16856,10893 16865,10762 16884,10669 16894,10693 16903,10532 16913,10555 16922,10494 16932,10370 16941,10363 16951,10228 16961,10291 16970,10190 16980,10028 16989,10056 16998,9931 17008,9949 17018,9865 17027,9756 17037,9720 17046,9630 17056,9615 17065,9577 17075,9785 17084,11154 17094,12048 17103,11995 17113,11864 17122,11860 17132,11838 17141,11706 17151,11651 17160,11615 17170,11482 17180,11503 17189,11351 17198,11388 17208,11251 17217,11194 17227,11160 17236,11036 17246,11067 17255,10934 17265,10872 17275,10846 17284,10678 17294,10626 17303,10654 17313,10596 17322,10541 17332,10459 17341,10469 17351,10412 17360,10392 17370,10239 17379,10160 17390,10189 17399,10099 17408,10019 17417,9987 17427,9934 17436,9899 17446,10731 17455,11461 17465,11270 17474,11143 17484,11131 17493,11065 17503,10935 17512,10881 17522,10842 17532,10799 17541,10688 17551,10611 17560,10550 17570,10452 17579,10469 17589,10349 17598,10309 17608,10200 17617,10141 17627,10129 17636,10106 17646,10054 17655,9937 17665,9944 17674,9823 17684,9710 17693,9772 17703,9621 17712,9643 17722,9527 17731,10075 17741,10892 17751,11754 17760,11647 17769,11725 17789,11600 17798,11550 17808,11476 17817,11429 17827,11290 17836,11276 17846,11256 17855,11168 17865,11076 17874,10928 17884,10901 17893,10805 17903,10858 17912,10785 17922,10669 17931,10594 17941,10549 17950,10522 17960,10360 17969,10450 17979,10392 17988,10205 17998,10155 18007,10086 18017,10061 18026,9915 18036,9973 18046,9972 18055,9825 18065,9896 18074,9825 18084,9619 18093,9656 18103,9589 18112,9423 18122,9487 18131,9410 18141,9832 18150,10736 18160,11142 18169,11043 18179,11079 18188,11013 18198,10910 18207,10877 18217,10830 18226,10677 18236,10661 18245,10590 18255,10586 18264,10509 18274,10409 18293,10408 18302,10960 18312,10861 18322,10790 18331,11683 18341,12846 18350,12562 18360,12516 18369,12395 18379,12309 18388,12283 18398,12150 18407,12079 18417,11976 18426,11945 18436,11781 18445,11709 18455,11695 18464,11566 18474,11493 18483,11477 18493,11339 18503,11275 18512,11164 18521,11277 18531,11114 18541,11037 18550,10959 18559,10947 18569,10824 18578,10771 18588,10698 18598,10722 18607,10610 18617,10452 18626,10451 18636,10388 18645,10309 18655,10326 18664,10182 18674,10268 18683,10120 18693,10039 18712,9991 18721,11616 18731,11679 18740,11569 18750,11494 18759,11551 18769,11432 18778,11405 18788,11276 18797,11125 18807,11231 18817,11043 18826,11064 18836,10899 18845,10874 18855,10922 18864,10778 18874,10593 18883,10630 18893,10573 18912,10421 18921,10400 18931,10340 18940,10243 18950,10225 18959,10129 18969,10108 18978,10007 18988,9986 18997,9922 19007,9794 19016,9782 19026,9705 19035,9961 19045,10915 19054,10730 19064,10741 19073,10609 19083,10592 19092,10508 19102,10427 19111,10455 19121,10369 19131,10322 19140,10135 19150,10112 19159,10105 19169,10000 19178,9984 19188,9880 19197,9900 19207,9867 19216,10710 19226,11455 19235,11346 19245,11213 19254,11204 19264,11144 19273,11011 19283,10992 19292,10863 19302,10856 19311,10771 19321,10762 19330,10611 19340,10652 19349,10495 19359,10433 19368,10578 19378,11748 19388,11694 19397,11615 19407,11544 19416,11497 19426,11460 19435,11341 19445,11339 19454,11193 19464,11144 19473,11125 19483,11020 19492,10971 19502,10887 19511,10904 19521,10736 19530,10704 19540,10644 19549,10573 19559,10472 19568,10511 19578,10394 19587,10330 19597,10298 19606,10190 19616,10187 19626,10108 19635,10002 19645,10021 19654,9934 19664,9854 19673,9865 19683,9688 19692,9678 19702,9786 19711,10930 19721,10838 19730,10749 19740,10688 19749,10632 19759,10556 19768,10534 19778,10410 19787,10399 19797,11172 19806,11205 19816,11181 19835,11156 19844,10992 19854,10933 19863,10865 19873,10808 19883,10726 19892,10776 19902,10653 19911,10646 19920,10556 19930,10515 19940,10415 19949,10367 19959,10292 19968,10240 19978,10243 19987,10167 19997,10120 20006,10095 20016,9888 20025,9924 20035,9949 20044,9791 20054,9745 20063,9925 20073,11470 20082,11370 20092,11217 20101,11172 20111,11071 20120,11029 20130,10976 20139,10857 20149,10834 20158,10729 20168,10656 20177,10579 20188,10505 20197,10392 20206,10377 20216,10290 20225,11718 20235,11687 20244,11568 20254,11537 20263,11491 20273,11385 20282,11331 20292,11223 20301,11096 20311,11156 20320,11033 20339,10938 20349,10838 20358,10813 20368,10719 20377,10626 20387,10636 20396,10548 20406,10473 20416,10429 20425,10321 20434,10316 20444,10256 20453,10185 20463,10085 20473,10013 20482,9990 20492,9982 20501,9930 20511,9858 20520,9796 20530,9685 20539,9722 20549,9619 20558,9566 20568,9462 20577,10899 20587,10842 20596,10751 20606,10649 20615,10639 20625,10555 20634,10473 20644,10367 20653,10314 20663,10263 20672,10210 20682,10151 20692,10089 20701,10031 20710,10985 20720,11157 20730,11011 20739,10980 20749,10918 20758,10971 20768,10819 20777,10679 20787,10686 20796,10656 20806,10591 20815,11966 20825,12067 20834,11949 20844,11880 20853,11753 20863,11724 20872,11678 20882,11555 20891,11456 20901,11431 20910,11375 20920,11245 20929,11161 20939,11157 20948,11072 20958,11039 20968,10920 20977,10866 20987,10811 20996,10743 21006,10695 21015,10636 21025,10582 21034,10514 21044,10476 21053,10393 21063,10332 21072,10288 21082,10278 21091,10183 21101,10138 21110,10057 21120,10011 21129,9942 21139,9962 21148,9849 21158,9807 21167,9798 21177,9740 21186,9712 21196,10722 21206,11006 21215,10988 21225,10923 21234,10850 21244,10810 21253,10696 21263,10688 21272,10652 21282,10578 21291,10537 21301,10452 21310,10441 21320,10313 21329,10270 21339,10221 21348,10179 21358,10111 21367,10059 21377,9997 21386,9883 21396,9901 21405,9789 21415,9747 21424,9658 21434,9633 21443,10725 21453,11913 21462,12149 21472,12080 21481,11970 21491,11911 21500,12000 21510,11777 21519,11745 21529,11698 21539,11637 21548,11621 21558,11390 21567,11401 21577,11376 21586,11314 21596,11269 21605,11133 21615,11056 21624,11026 21634,11031 21643,10934 21662,10763 21672,10710 21681,10719 21691,10622 21700,10581 21710,10462 21720,10389 21729,10414 21738,10358 21748,10288 21757,10227 21767,10225 21777,10161 21786,9948 21796,9955 21805,9955 21815,9912 21824,9793 21834,9717 21843,9763 21853,9636 21862,9661 21872,9833 21881,10540 21891,10650 21900,10607 21910,10527 21919,10448 21929,10436 21938,10378 21948,10271 21957,10226 21967,10174 21976,10193 21986,9947 21996,9956 22005,9933 22014,9858 22024,10418 22033,11349 22043,12284 22053,12250 22062,12266 22072,12178 22081,12069 22091,12030 22100,11885 22110,11843 22119,11738 22129,11654 22138,11669 22148,11624 22157,11469 22167,11411 22176,11375 22186,11286 22195,11204 22205,11125 22214,11066 22224,11022 22233,10863 22243,10942 22253,10814 22262,10794 22271,10671 22281,10585 22291,10570 22300,10478 22309,10486 22319,10398 22329,10394 22338,10251 22348,10299 22357,10131 22367,10097 22376,10069 22386,10075 22395,10039 22405,9882 22414,9959 22424,9782 22433,9741 22443,9752 22452,9713 22462,9685 22471,9669 22481,9657 22490,9570 22500,9409 22509,9481 22519,9349 22529,9397 22538,9333 22548,9277 22557,9267 22567,9246 22576,9191 22586,9773 22595,10831 22605,10716 22614,12476 22624,13087 22633,12956 22643,12974 22652,12810 22662,12795 22671,12718 22681,12681 22690,12576 22700,12555 22709,12436 22719,12335 22728,12319 22738,12228 22747,12114 22757,11994 22766,11906 22776,11878 22785,11834 22795,11762 22805,11649 22814,11612 22824,11541 22833,11483 22842,11366 22852,11304 22862,11248 22871,11212 22881,11154 22890,11109 22900,10990 22909,10945 22919,10901 22928,10843 22938,10729 22947,10626 22957,10611 22966,10525 22976,10460 22985,10406 22995,10350 23004,10288 23014,10242 23023,10156 23033,10143 23042,10058 23052,10027 23061,9891 23071,9931 23080,9804 23090,9767 23100,9721 23109,9667 23119,9584 23128,9482 23138,9461 23147,9421 23157,9394 23166,9305 23176,9565 23185,10657 23195,10546 23204,10510 23214,10473 23223,10462 23233,10256 23243,10243 23252,10143 23261,10744 23271,11655 23280,11519 23290,11405 23299,11360 23309,12004 23318,12346 23328,12339 23338,12255 23347,12214 23356,12106 23366,12157 23376,12036 23385,11938 23395,11902 23405,11857 23414,11857 23423,11672 23433,11635 23442,11562 23452,11501 23461,11429 23471,11401 23480,11332 23490,11130 23499,11181 23509,11140 23518,10993 23528,10914 23537,10884 23547,10910 23556,10804 23566,10737 23575,10642 23585,10625 23594,10529 23604,10489 23614,10379 23623,10340 23632,10341 23642,10231 23652,10103 23661,10101 23671,10041 23680,9981 23690,9909 23699,11094 23709,11323 23718,11186 23728,11139 23737,11014 23747,10968 23756,10923 23766,10859 23775,10799 23785,10749 23794,10681 23804,10634 23813,10551 23823,10505 23833,10391 23842,10366 23851,10290 23861,10251 23870,10148 23880,10027 23889,10043 23899,10038 23908,11342 23918,11256 23928,11151 23937,11069 23947,11050 23956,10998 23966,10926 23975,10867 23985,10766 23994,10708 24004,10681 24013,10620 24023,10568 24032,10539 24042,10449 24051,10439 24061,10363 24070,10325 24080,10270 24089,10156 24099,10104 24109,10073 24118,9969 24128,9912 24137,9908 24147,9952 24156,9780 24166,9801 24175,9700 24185,10601 24194,12396 24204,12300 24213,12227 24223,12154 24232,12149 24242,12035 24251,11908 24261,11834 24270,11730 24280,11764 24289,11587 24299,11570 24308,11495 24318,11473 24327,11295 24337,11299 24346,11260 24356,11205 24365,11089 24375,11075 24384,10996 24394,10895 24404,10842 24413,10798 24422,10664 24432,10679 24442,10640 24451,10557 24461,10501 24470,10467 24480,10424 24489,10286 24499,10263 24508,10258 24518,11330 24527,11338 24537,11249 24546,11280 24556,11091 24565,11115 24575,11016 24584,10975 24594,10950 24603,10810 24613,10738 24622,10675 24632,10621 24641,10564 24651,10458 24660,10464 24670,10441 24679,10283 24689,10265 24698,10270 24708,10152 24718,10160 24727,9996 24737,10054 24746,10042 24756,9938 24765,9837 24775,9849 24784,9784 24794,9684 24803,9711 24813,9591 24822,10078 24832,11247 24841,11089 24851,10991 24860,10940 24870,10820 24879,10801 24889,10673 24898,10666 24908,10612 24917,10466 24927,11076 24936,11642 24946,11591 24955,11508 24965,11454 24975,11416 24984,11321 24994,11294 25003,11294 25013,11134 25022,11006 25032,10964 25041,10925 25051,10859 25060,10778 25070,10676 25079,10715 25089,10634 25098,10565 25108,10500 25117,10397 25127,10331 25136,10361 25146,10272 25155,10198 25165,10111 25174,10086 25184,9985"/>
 <path fill="none" stroke="rgb(0,132,209)" stroke-width="20" stroke-linejoin="round" d="M 13328,13461 L 13353,12932 13375,12932 13399,12716 13423,12333 13447,11842 13470,11632 13494,11339 13518,11045 13542,10773 13565,10668 13589,10416 13614,10144 13637,10123 13661,9892 13685,9997 13708,9892 13732,9892 13756,9892 13781,9871 13803,9892 13828,9913 13851,9766 13878,9808 13899,9892 13922,9641 13946,9850 13970,9662 13994,9536 14017,9620 14041,9787 14065,9703 14089,9766 14113,9808 14137,9745 14160,9787 14184,9703 14208,9599 14232,9662 14256,9683 14279,9641 14303,9599 14328,9641 14351,9620 14380,9033 14397,8613 14421,8634 14445,8592 14469,8571 14493,8676 14516,8613 14540,8613 14564,8571 14588,8676 14611,8634 14636,7901 14659,7755 14683,7776 14707,7985 14731,7566 14755,7021 14778,6811 14802,6119 14826,6287 14849,6371 14873,6371 14897,6518 14921,6518 14945,6622 14969,6580 14992,6790 15016,6769 15040,6874 15063,6664 15087,6601 15111,6077 15135,6182 15159,6287 15183,6119 15207,6308 15230,6350 15254,7021 15278,7126 15302,7209 15325,7314 15349,7293 15373,7188 15397,7356 15425,7440 15444,7314 15468,7377 15493,7440 15516,7377 15539,7377 15564,8069 15587,8425 15611,8383 15634,8445 15659,8425 15682,8487 15707,8383 15730,8487 15754,8487 15777,9305 15801,9431 15825,9452 15849,9494 15872,9368 15897,9410 15920,9473 15944,9452 15968,9305 15993,9389 16015,9473 16039,9766 16063,10270 16087,10186 16110,10249 16134,10249 16158,10961 16182,11087 16206,10920 16229,10857 16254,10899 16277,10899 16302,10794 16325,10312 16348,9913 16372,9808 16396,9955 16420,9766 16444,9808 16468,9850 16491,9766 16515,9850 16539,9766 16563,9683 16587,9745 16610,10437 16634,10584 16658,10437 16681,9683 16705,9599 16729,9536 16753,9536 16777,9515 16801,9494 16824,9473 16848,9473 16872,9515 16896,9494 16920,9431 16943,9473 16967,9410 16991,9473 17015,9410 17038,9326 17063,9473 17086,8970 17113,7545 17134,7461 17158,7524 17181,7545 17205,7650 17229,7608 17253,7671 17276,7650 17300,7692 17324,7755 17348,7817 17372,7838 17395,7796 17419,7817 17443,7985 17467,8676 17492,8802 17514,8802 17538,8781 17562,8760 17586,8802 17612,8781 17634,8739 17657,8781 17681,8823 17705,8697 17732,8844 17752,9683 17776,10626 17800,10605 17824,10584 17847,10479 17871,10479 17895,10416 17919,10437 17943,10416 17966,10416 17991,10291 18014,10270 18038,10395 18062,10165 18086,10270 18109,10165 18133,10270 18157,10920 18181,11779 18205,11800 18228,11737 18252,11611 18276,11632 18300,11716 18323,12211 18348,11842 18371,11465 18395,11402 18419,11297 18442,11276 18466,11276 18490,11150 18517,11108 18537,11066 18563,11045 18586,10982 18609,10982 18633,10899 18656,10836 18680,10899 18704,10794 18728,10312 18752,9829 18776,9829 18800,9787 18829,9745 18850,9724 18871,9745 18894,9683 18918,9473 18942,9703 18966,9787 18990,9494 19014,9683 19037,9641 19062,10563 19085,10395 19109,10479 19132,10458 19156,10332 19181,10312 19204,10353 19228,9913 19251,9431 19276,9494 19299,9452 19323,9494 19347,9368 19370,9599 19394,8487 19418,8613 19442,8445 19465,8466 19489,8508 19513,8466 19538,8529 19561,8592 19584,8425 19608,8550 19632,8613 19656,8529 19680,8571 19703,8634 19727,7608 19751,7545 19775,7713 19799,7671 19822,6895 19846,6895 19870,7000 19894,7063 19918,7042 19942,7147 19965,7042 19989,7188 20013,7293 20037,7167 20060,7293 20084,8006 20108,8131 20132,8194 20157,8194 20179,8215 20204,8173 20227,8425 20251,9137 20275,9116 20301,9137 20322,9137 20346,9200 20370,9137 20393,9158 20417,9284 20441,9116 20465,9116 20489,9137 20512,9095 20536,9137 20560,9179 20584,8739 20610,8257 20632,8131 20656,8278 20679,8299 20703,8320 20727,7566 20751,7356 20774,7314 20798,7461 20822,7776 20846,8383 20869,8445 20894,8487 20918,8383 20941,8425 20965,8466 20988,8466 21012,8425 21037,8508 21060,8466 21084,8529 21107,8466 21131,8529 21155,8508 21179,8592 21203,8991 21226,9599 21251,9557 21274,9515 21298,9473 21321,9515 21345,9578 21369,9515 21393,9431 21417,9578 21440,9368 21464,8215 21489,7461 21512,7566 21535,7692 21559,7545 21583,7650 21607,7776 21634,7755 21658,7755 21678,7859 21702,7838 21726,7817 21750,7880 21773,7859 21797,7985 21821,7880 21846,8027 21869,8027 21894,7419 21917,7042 21940,7272 21964,7251 21988,7188 22013,7293 22035,7545 22059,7503 22083,7314 22107,7293 22130,7440 22155,7356 22178,7461 22202,7461 22226,7461 22250,7545 22273,7629 22297,7608 22322,7524 22344,7838 22368,7545 22393,7713 22417,7838 22440,7734 22463,7817 22488,7817 22511,7880 22535,7943 22559,7922 22583,7943 22607,8802 22630,9263 22654,8928 22678,8907 22701,8949 22725,8823 22749,8970 22773,8844 22797,8991 22820,8865 22844,8823 22868,8949 22892,8928 22916,8907 22939,8949 22963,8865 22987,8991 23011,8781 23035,8928 23059,8970 23082,8823 23106,8907 23131,9012 23154,8823 23179,8886 23204,7964 23226,8110 23249,8090 23273,8592 23298,8949 23322,9494 23344,10018 23368,9976 23392,9892 23416,9787 23440,9955 23463,9808 23487,9683 23511,9787 23538,9787 23559,9766 23583,9662 23606,9662 23630,9662 23653,9683 23677,9620 23701,9515 23725,8697 23749,8781 23772,8676 23799,8676 23820,8802 23844,8802 23868,8760 23891,8760 23915,9284 23939,9641 23965,9620 23986,9620 24010,9620 24034,9578 24058,9641 24081,9368 24106,9473 24129,9641 24153,9347 24177,9620 24201,9766 24224,9473 24248,9620 24272,9452 24296,9431 24320,9494 24344,9494 24367,9410 24391,9452 24415,9326 24439,9368 24462,9347 24486,9326 24512,9431 24534,9955 24557,10270 24581,10207 24605,10165 24629,10165 24653,10081 24677,10060 24700,10186 24724,10144 24748,9934 24772,10186 24796,9997 24819,10081 24843,9326 24867,9095 24893,9116 24914,9095 24939,8802 24962,8278 24986,8173 25009,8215 25033,8194 25059,8194 25081,8257 25106,8257 25128,8173 25153,8341 25176,8299 25200,8173 25200,9012"/>
 <path fill="none" stroke="rgb(255,66,14)" stroke-width="20" stroke-linejoin="round" d="M 10946,12647 L 10969,11884 10994,11276 11017,10479 11041,9305 11065,8110 11088,6538 11112,4882 11136,3687 11160,3666 11183,3666 11207,3645 11231,3645 11255,3666 11279,3666 11303,3645 11326,3666 11350,3666 11374,3666 11398,3624 11421,3666 11445,3666 11470,3645 11493,3666 11517,3666 11542,3666 11564,3624 11589,3666 11612,3666 11636,3645 11660,3666 11683,3666 11707,3666 11731,3645 11755,3666 11779,3666 11802,3666 11826,3645 11851,3666 11874,3666 11897,3645 11921,3666 11945,3666 11969,3645 11992,3645 12016,3666 12040,3666 12064,3624 12088,3666 12111,3666 12136,3645 12159,3645 12184,3666 12207,3666 12230,3645 12254,3666 12278,3666 12302,3645 12326,3645 12349,3666 12373,3666 12397,3645 12421,3666 12445,3666 12468,3666 12492,3624 12516,3687 12540,3666 12564,3624 12588,3666 12611,3666 12635,3666 12659,3645 12683,3645 12706,3666 12730,3666 12755,3624 12779,3666 12802,3666 12826,3645 12849,3666 12873,3666 12898,3666 12920,3645 12945,3666 12968,3666 12992,3645 13016,3666 13041,3666 13063,3645 13087,3645 13111,3666 13135,3666 13158,3645 13182,3645 13206,3666 13230,3666 13254,3645 13279,3666 13301,3666 13326,4274 13349,4652 13375,4840 13396,4966 13421,5385 13444,5805 13468,6119 13492,6371 13520,6664 13542,6958 13563,7356 13587,7440 13611,7524 13634,7650 13659,7776 13682,7817 13706,7838 13730,7838 13753,7838 13778,7838 13802,7859 13825,7943 13849,7922 13872,7838 13896,7985 13920,7985 13944,7922 13968,8110 13992,8110 14015,8299 14040,7943 14063,7880 14086,8027 14111,7985 14134,8006 14158,8027 14182,8027 14205,7985 14229,8110 14253,8027 14277,8131 14301,8131 14324,8131 14348,8152 14373,8529 14395,9137 14419,9116 14442,9158 14466,9074 14490,9200 14515,9095 14538,9137 14562,9095 14586,9137 14610,9137 14634,9745 14656,9913 14681,9997 14704,9955 14729,9934 14752,10731 14775,10982 14800,11423 14824,11486 14848,11381 14871,11318 14895,11318 14918,11234 14942,11150 14967,11003 14990,11066 15014,10961 15038,11150 15062,10815 15085,11108 15109,11632 15132,11590 15157,11570 15180,11507 15204,11402 15228,11423 15252,10836 15275,10584 15299,10584 15324,10479 15347,10458 15371,10395 15395,10437 15418,10437 15442,10395 15466,10374 15489,10270 15514,10353 15537,10270 15562,9850 15584,9326 15608,9368 15632,9305 15657,9368 15680,9200 15703,9305 15727,9263 15752,9263 15775,8571 15799,8299 15822,8320 15846,8278 15870,8299 15894,8257 15918,8299 15941,8425 15966,8341 15990,8278 16013,8445 16039,7964 16060,7524 16085,7440 16109,7545 16133,7587 16157,6895 16179,6664 16203,6790 16227,6790 16251,6832 16274,6853 16299,6895 16323,7314 16347,7901 16371,7943 16393,7901 16417,7838 16441,7880 16465,7964 16490,7943 16513,7985 16537,7985 16560,7880 16584,8090 16608,7440 16631,7126 16655,7209 16679,8048 16704,8110 16727,8257 16751,8194 16774,8194 16798,8152 16823,8299 16846,8215 16869,8278 16894,8299 16918,8278 16942,8257 16965,8299 16989,8299 17013,8362 17036,8299 17060,8445 17085,8571 17107,10144 17132,10228 17155,10228 17179,10249 17203,10123 17227,10165 17251,10081 17274,10060 17298,9997 17322,9997 17346,9976 17370,9871 17393,9955 17417,9829 17441,9829 17464,9158 17488,8928 17513,8928 17537,8991 17560,8949 17584,8949 17607,8991 17632,8991 17656,8949 17679,8991 17702,8886 17726,8970 17750,8215 17774,7126 17797,7167 17821,7105 17845,7293 17869,7272 17894,7314 17916,7272 17941,7314 17964,7398 17988,7482 18011,7335 18036,7461 18059,7545 18083,7419 18107,7629 18130,7440 18154,7042 18178,5972 18203,5951 18226,6035 18249,6014 18273,6140 18297,6140 18321,5490 18345,5868 18369,6287 18393,6371 18417,6287 18441,6497 18464,6476 18487,6601 18512,6622 18535,6643 18559,6706 18582,6811 18607,6832 18631,6769 18654,6853 18678,6853 18701,7063 18725,7230 18749,7922 18773,7859 18798,7943 18820,8006 18845,8027 18870,8048 18892,8110 18916,8027 18939,8006 18963,8194 18987,8110 19011,8006 19036,8299 19058,7188 19082,7230 19106,7293 19130,7356 19154,7398 19177,7272 19201,7482 19225,7776 19249,8299 19273,8320 19296,8278 19320,8194 19344,8194 19369,8194 19392,9137 19415,9326 19439,9179 19464,9284 19487,9137 19511,9305 19534,9200 19558,9326 19582,9137 19606,9158 19631,9158 19653,9242 19677,9179 19702,9284 19725,9955 19748,10060 19772,9997 19797,10081 19821,10794 19844,10773 19867,10773 19892,10668 19916,10752 19939,10731 19963,10584 19986,10500 20011,10500 20036,10647 20058,10332 20083,9808 20105,9599 20130,9578 20153,9515 20177,9578 20201,9620 20227,9494 20248,8529 20273,8508 20296,8592 20321,8613 20343,8550 20368,8550 20392,8655 20415,8550 20438,8592 20462,8571 20486,8592 20511,8634 20535,8571 20558,8676 20583,8865 20605,9536 20629,9557 20653,9515 20676,9347 20700,9515 20724,10102 20748,10332 20772,10395 20795,10332 20821,10102 20844,9263 20868,9347 20891,9305 20915,9326 20938,9305 20962,9200 20986,9347 21010,9305 21035,9158 21057,9305 21081,9284 21105,9263 21129,9095 21152,9263 21178,9137 21200,8970 21224,8194 21248,8194 21271,8152 21295,8215 21319,8173 21343,8194 21367,8320 21390,8173 21415,8299 21438,8215 21464,9452 21486,10165 21509,10186 21534,10144 21557,10060 21581,10102 21604,10018 21628,9997 21652,9955 21677,9955 21700,9871 21723,9892 21748,9955 21772,9745 21795,9829 21819,9850 21843,9724 21867,9683 21890,10291 21914,10521 21937,10563 21961,10605 21986,10563 22009,10437 22033,10291 22057,10102 22080,10479 22104,10374 22128,10437 22153,10332 22176,10291 22199,10291 22224,10228 22248,10291 22271,10144 22294,10081 22318,10123 22342,10144 22366,9955 22390,9976 22413,10081 22437,10081 22461,9829 22486,9829 22509,9892 22534,9934 22556,9745 22581,9850 22604,8991 22628,8508 22652,8760 22676,8928 22699,8760 22723,8844 22748,8802 22770,8844 22794,8907 22818,8802 22843,8781 22865,8865 22890,8844 22913,8823 22937,8802 22962,8781 22985,8928 23008,8907 23033,8802 23056,8802 23080,8844 23103,8802 23127,8949 23151,8697 23175,8928 23199,9599 23224,9662 23247,9683 23270,9410 23295,8571 23318,8445 23342,7713 23366,7796 23389,7776 23414,7943 23437,7922 23460,7985 23484,7859 23508,7985 23532,8027 23556,7964 23580,8048 23603,8090 23627,8027 23651,8048 23676,8090 23700,8110 23723,9074 23749,9074 23770,8991 23795,8970 23817,8949 23842,8970 23865,8970 23890,9012 23912,8550 23937,8069 23961,8090 23984,8131 24008,8110 24032,8194 24056,8299 24081,8215 24103,8152 24127,8278 24150,8215 24174,8194 24198,8027 24222,8173 24246,8215 24270,8194 24293,8320 24317,8278 24343,8299 24365,8341 24388,8320 24412,8278 24437,8341 24460,8425 24483,8320 24509,8466 24531,7838 24556,7440 24579,7545 24602,7629 24626,7671 24650,7545 24674,7524 24699,7629 24722,7755 24746,7608 24769,7671 24793,7713 24817,7608 24841,8383 24865,8739 24888,8613 24912,8529 24937,8781 24959,9641 24984,9536 25007,9515 25031,9473 25055,9599 25079,9473 25103,9515 25127,9410 25150,9473 25174,9515 25198,9410"/>
 <text class="TextShape"><tspan class="TextParagraph" font-family="Liberation Sans, sans-serif" font-size="353px" font-weight="400"><tspan class="TextPosition" x="10825" y="14654"><tspan fill="rgb(0,0,0)" stroke="none">0</tspan></tspan></tspan></text>
 <text class="TextShape"><tspan class="TextParagraph" font-family="Liberation Sans, sans-serif" font-size="353px" font-weight="400"><tspan class="TextPosition" x="13112" y="14654"><tspan fill="rgb(0,0,0)" stroke="none">10</tspan></tspan></tspan></text>
 <text class="TextShape"><tspan class="TextParagraph" font-family="Liberation Sans, sans-serif" font-size="353px" font-weight="400"><tspan class="TextPosition" x="15491" y="14654"><tspan fill="rgb(0,0,0)" stroke="none">20</tspan></tspan></tspan></text>
 <text class="TextShape"><tspan class="TextParagraph" font-family="Liberation Sans, sans-serif" font-size="353px" font-weight="400"><tspan class="TextPosition" x="17871" y="14654"><tspan fill="rgb(0,0,0)" stroke="none">30</tspan></tspan></tspan></text>
 <text class="TextShape"><tspan class="TextParagraph" font-family="Liberation Sans, sans-serif" font-size="353px" font-weight="400"><tspan class="TextPosition" x="20250" y="14654"><tspan fill="rgb(0,0,0)" stroke="none">40</tspan></tspan></tspan></text>
 <text class="TextShape"><tspan class="TextParagraph" font-family="Liberation Sans, sans-serif" font-size="353px" font-weight="400"><tspan class="TextPosition" x="22630" y="14654"><tspan fill="rgb(0,0,0)" stroke="none">50</tspan></tspan></tspan></text>
 <text class="TextShape"><tspan class="TextParagraph" font-family="Liberation Sans, sans-serif" font-size="353px" font-weight="400"><tspan class="TextPosition" x="25009" y="14654"><tspan fill="rgb(0,0,0)" stroke="none">60</tspan></tspan></tspan></text>
 <text class="TextShape"><tspan class="TextParagraph" font-family="Liberation Sans, sans-serif" font-size="353px" font-weight="400"><tspan class="TextPosition" x="27389" y="14654"><tspan fill="rgb(0,0,0)" stroke="none">70</tspan></tspan></tspan></text>
 <text class="TextShape"><tspan class="TextParagraph" font-family="Liberation Sans, sans-serif" font-size="353px" font-weight="400"><tspan class="TextPosition" x="10483" y="14207"><tspan fill="rgb(0,0,0)" stroke="none">0</tspan></tspan></tspan></text>
 <text class="TextShape"><tspan class="TextParagraph" font-family="Liberation Sans, sans-serif" font-size="353px" font-weight="400"><tspan class="TextPosition" x="10298" y="12110"><tspan fill="rgb(0,0,0)" stroke="none">10</tspan></tspan></tspan></text>
 <text class="TextShape"><tspan class="TextParagraph" font-family="Liberation Sans, sans-serif" font-size="353px" font-weight="400"><tspan class="TextPosition" x="10298" y="10013"><tspan fill="rgb(0,0,0)" stroke="none">20</tspan></tspan></tspan></text>
 <text class="TextShape"><tspan class="TextParagraph" font-family="Liberation Sans, sans-serif" font-size="353px" font-weight="400"><tspan class="TextPosition" x="10298" y="7916"><tspan fill="rgb(0,0,0)" stroke="none">30</tspan></tspan></tspan></text>
 <text class="TextShape"><tspan class="TextParagraph" font-family="Liberation Sans, sans-serif" font-size="353px" font-weight="400"><tspan class="TextPosition" x="10298" y="5820"><tspan fill="rgb(0,0,0)" stroke="none">40</tspan></tspan></tspan></text>
 <text class="TextShape"><tspan class="TextParagraph" font-family="Liberation Sans, sans-serif" font-size="353px" font-weight="400"><tspan class="TextPosition" x="10298" y="3723"><tspan fill="rgb(0,0,0)" stroke="none">50</tspan></tspan></tspan></text>
 <text class="TextShape"><tspan class="TextParagraph" font-family="Liberation Sans, sans-serif" font-size="353px" font-weight="400"><tspan class="TextPosition" x="27823" y="14207"><tspan fill="rgb(0,0,0)" stroke="none">20</tspan></tspan></tspan></text>
 <text class="TextShape"><tspan class="TextParagraph" font-family="Liberation Sans, sans-serif" font-size="353px" font-weight="400"><tspan class="TextPosition" x="27823" y="13074"><tspan fill="rgb(0,0,0)" stroke="none">25</tspan></tspan></tspan></text>
 <text class="TextShape"><tspan class="TextParagraph" font-family="Liberation Sans, sans-serif" font-size="353px" font-weight="400"><tspan class="TextPosition" x="27823" y="11942"><tspan fill="rgb(0,0,0)" stroke="none">30</tspan></tspan></tspan></text>
 <text class="TextShape"><tspan class="TextParagraph" font-family="Liberation Sans, sans-serif" font-size="353px" font-weight="400"><tspan class="TextPosition" x="27823" y="10810"><tspan fill="rgb(0,0,0)" stroke="none">35</tspan></tspan></tspan></text>
 <text class="TextShape"><tspan class="TextParagraph" font-family="Liberation Sans, sans-serif" font-size="353px" font-weight="400"><tspan class="TextPosition" x="27823" y="9678"><tspan fill="rgb(0,0,0)" stroke="none">40</tspan></tspan></tspan></text>
 <text class="TextShape"><tspan class="TextParagraph" font-family="Liberation Sans, sans-serif" font-size="353px" font-weight="400"><tspan class="TextPosition" x="27823" y="8546"><tspan fill="rgb(0,0,0)" stroke="none">45</tspan></tspan></tspan></text>
 <text class="TextShape"><tspan class="TextParagraph" font-family="Liberation Sans, sans-serif" font-size="353px" font-weight="400"><tspan class="TextPosition" x="27823" y="7413"><tspan fill="rgb(0,0,0)" stroke="none">50</tspan></tspan></tspan></text>
 <text class="TextShape"><tspan class="TextParagraph" font-family="Liberation Sans, sans-serif" font-size="353px" font-weight="400"><tspan class="TextPosition" x="27823" y="6281"><tspan fill="rgb(0,0,0)" stroke="none">55</tspan></tspan></tspan></text>
 <text class="TextShape"><tspan class="TextParagraph" font-family="Liberation Sans, sans-serif" font-size="353px" font-weight="400"><tspan class="TextPosition" x="27823" y="5149"><tspan fill="rgb(0,0,0)" stroke="none">60</tspan></tspan></tspan></text>
 <text class="TextShape"><tspan class="TextParagraph" font-family="Liberation Sans, sans-serif" font-size="353px" font-weight="400"><tspan class="TextPosition" x="27823" y="4017"><tspan fill="rgb(0,0,0)" stroke="none">65</tspan></tspan></tspan></text>
 <text class="TextShape"><tspan class="TextParagraph" font-family="Liberation Sans, sans-serif" font-size="353px" font-weight="400"><tspan class="TextPosition" x="27823" y="2884"><tspan fill="rgb(0,0,0)" stroke="none">70</tspan></tspan></tspan></text>
 <text class="TextShape"><tspan class="TextParagraph" font-family="Liberation Sans, sans-serif" font-size="459px" font-weight="400"><tspan class="TextPosition" x="13589" y="995"><tspan fill="rgb(0,0,0)" stroke="none">L4S: CUBIC(50Mbps) vs CUBIC(40Mbps/ECT0 responsive)</tspan></tspan></tspan></text>
 <text class="TextShape"><tspan class="TextParagraph" font-family="Liberation Sans, sans-serif" font-size="388px" font-weight="400"><tspan class="TextPosition" x="15816" y="2047"><tspan fill="rgb(0,0,0)" stroke="none">qdisc:dualpi2 bandwidth:50Mbit rtt:20ms</tspan></tspan></tspan></text>
 <path fill="rgb(221,221,221)" stroke="none" d="M 4388,9634 L 210,9634 210,6547 8567,6547 8567,9634 4388,9634 Z"/>
 <path fill="none" stroke="rgb(255,66,14)" stroke-width="20" stroke-linejoin="round" d="M 326,7343 L 1126,7343"/>
 <path fill="none" stroke="rgb(0,132,209)" stroke-width="20" stroke-linejoin="round" d="M 326,7841 L 1126,7841"/>
 <path fill="none" stroke="rgb(153,102,153)" stroke-width="20" stroke-linejoin="round" d="M 326,8836 L 1126,8836"/>
 <path fill="none" stroke="rgb(255,149,14)" stroke-width="30" stroke-linejoin="round" d="M 326,9334 L 1126,9334"/>
 <text class="TextShape"><tspan class="TextParagraph" font-family="Liberation Sans, sans-serif" font-size="353px" font-weight="400"><tspan class="TextPosition" x="1226" y="6965"><tspan fill="rgb(0,0,0)" stroke="none">Left axis (Mbps)</tspan></tspan></tspan></text>
 <text class="TextShape"><tspan class="TextParagraph" font-family="Liberation Sans, sans-serif" font-size="353px" font-weight="400"><tspan class="TextPosition" x="1226" y="7463"><tspan fill="rgb(0,0,0)" stroke="none">CUBIC(50Mbps) delivery rate</tspan></tspan></tspan></text>
 <text class="TextShape"><tspan class="TextParagraph" font-family="Liberation Sans, sans-serif" font-size="353px" font-weight="400"><tspan class="TextPosition" x="1226" y="7961"><tspan fill="rgb(0,0,0)" stroke="none">CUBIC(40Mbps/ECT0 responsive) delivery rate</tspan></tspan></tspan></text>
 <text class="TextShape"><tspan class="TextParagraph" font-family="Liberation Sans, sans-serif" font-size="353px" font-weight="400"><tspan class="TextPosition" x="1226" y="8458"><tspan fill="rgb(0,0,0)" stroke="none">Right axis (ms)</tspan></tspan></tspan></text>
 <text class="TextShape"><tspan class="TextParagraph" font-family="Liberation Sans, sans-serif" font-size="353px" font-weight="400"><tspan class="TextPosition" x="1226" y="8956"><tspan fill="rgb(0,0,0)" stroke="none">CUBIC(50Mbps) TCP RTT</tspan></tspan></tspan></text>
 <text class="TextShape"><tspan class="TextParagraph" font-family="Liberation Sans, sans-serif" font-size="353px" font-weight="400"><tspan class="TextPosition" x="1226" y="9454"><tspan fill="rgb(0,0,0)" stroke="none">CUBIC(40Mbps/ECT0 responsive) TCP RTT</tspan></tspan></tspan></text>
 <text class="TextShape"><tspan class="TextParagraph" font-family="Liberation Sans, sans-serif" font-size="423px" font-weight="400"><tspan class="TextPosition" x="18478" y="15555"><tspan fill="rgb(0,0,0)" stroke="none">Time (s)</tspan></tspan></tspan></text>
 <text class="TextShape" transform="rotate(-90 9515 9166)"><tspan class="TextParagraph" font-family="Liberation Sans, sans-serif" font-size="423px" font-weight="400"><tspan class="TextPosition" x="9515" y="9166"><tspan fill="rgb(0,0,0)" stroke="none">Mbps</tspan></tspan></tspan></text>
</svg>