<?xml version="1.0" encoding="UTF-8"?>
<!DOCTYPE svg PUBLIC "-//W3C//DTD SVG 1.1//EN" "http://www.w3.org/Graphics/SVG/1.1/DTD/svg11.dtd">
<svg width="287mm" height="162mm" viewBox="0 0 28700 16200" version="1.1" xmlns="http://www.w3.org/2000/svg" xmlns:xlink="http://www.w3.org/1999/xlink" stroke-width="28.222" stroke-linejoin="round" xml:space="preserve">
 <path fill="rgb(255,255,255)" stroke="none" d="M 14345,16227 L 0,16227 0,0 28690,0 28690,16227 14345,16227 Z"/>
 <path fill="rgb(221,221,221)" stroke="none" d="M 18566,14131 L 10916,14131 10916,2770 26217,2770 26217,14131 18566,14131 Z"/>
 <path fill="none" stroke="rgb(179,179,179)" stroke-linejoin="round" d="M 18566,14131 L 10916,14131 10916,2770 26217,2770 26217,14131 18566,14131 Z"/>
 <path fill="none" stroke="rgb(179,179,179)" stroke-linejoin="round" d="M 26217,14130 L 10916,14130"/>
 <path fill="none" stroke="rgb(179,179,179)" stroke-linejoin="round" d="M 26217,12025 L 10916,12025"/>
 <path fill="none" stroke="rgb(179,179,179)" stroke-linejoin="round" d="M 26217,9921 L 10916,9921"/>
 <path fill="none" stroke="rgb(179,179,179)" stroke-linejoin="round" d="M 26217,7818 L 10916,7818"/>
 <path fill="none" stroke="rgb(179,179,179)" stroke-linejoin="round" d="M 26217,5714 L 10916,5714"/>
 <path fill="none" stroke="rgb(179,179,179)" stroke-linejoin="round" d="M 26217,3610 L 10916,3610"/>
 <path fill="none" stroke="rgb(179,179,179)" stroke-linejoin="round" d="M 10916,14280 L 10916,14130"/>
 <path fill="none" stroke="rgb(179,179,179)" stroke-linejoin="round" d="M 10916,14280 L 10916,14130"/>
 <path fill="none" stroke="rgb(179,179,179)" stroke-linejoin="round" d="M 13102,14280 L 13102,14130"/>
 <path fill="none" stroke="rgb(179,179,179)" stroke-linejoin="round" d="M 13102,14280 L 13102,14130"/>
 <path fill="none" stroke="rgb(179,179,179)" stroke-linejoin="round" d="M 15287,14280 L 15287,14130"/>
 <path fill="none" stroke="rgb(179,179,179)" stroke-linejoin="round" d="M 15287,14280 L 15287,14130"/>
 <path fill="none" stroke="rgb(179,179,179)" stroke-linejoin="round" d="M 17473,14280 L 17473,14130"/>
 <path fill="none" stroke="rgb(179,179,179)" stroke-linejoin="round" d="M 17473,14280 L 17473,14130"/>
 <path fill="none" stroke="rgb(179,179,179)" stroke-linejoin="round" d="M 19659,14280 L 19659,14130"/>
 <path fill="none" stroke="rgb(179,179,179)" stroke-linejoin="round" d="M 19659,14280 L 19659,14130"/>
 <path fill="none" stroke="rgb(179,179,179)" stroke-linejoin="round" d="M 21845,14280 L 21845,14130"/>
 <path fill="none" stroke="rgb(179,179,179)" stroke-linejoin="round" d="M 21845,14280 L 21845,14130"/>
 <path fill="none" stroke="rgb(179,179,179)" stroke-linejoin="round" d="M 24031,14280 L 24031,14130"/>
 <path fill="none" stroke="rgb(179,179,179)" stroke-linejoin="round" d="M 24031,14280 L 24031,14130"/>
 <path fill="none" stroke="rgb(179,179,179)" stroke-linejoin="round" d="M 26217,14280 L 26217,14130"/>
 <path fill="none" stroke="rgb(179,179,179)" stroke-linejoin="round" d="M 26217,14280 L 26217,14130"/>
 <path fill="none" stroke="rgb(179,179,179)" stroke-linejoin="round" d="M 10916,14130 L 26217,14130"/>
 <path fill="none" stroke="rgb(179,179,179)" stroke-linejoin="round" d="M 10766,14130 L 10916,14130"/>
 <path fill="none" stroke="rgb(179,179,179)" stroke-linejoin="round" d="M 10766,14130 L 10916,14130"/>
 <path fill="none" stroke="rgb(179,179,179)" stroke-linejoin="round" d="M 10766,12025 L 10916,12025"/>
 <path fill="none" stroke="rgb(179,179,179)" stroke-linejoin="round" d="M 10766,12025 L 10916,12025"/>
 <path fill="none" stroke="rgb(179,179,179)" stroke-linejoin="round" d="M 10766,9921 L 10916,9921"/>
 <path fill="none" stroke="rgb(179,179,179)" stroke-linejoin="round" d="M 10766,9921 L 10916,9921"/>
 <path fill="none" stroke="rgb(179,179,179)" stroke-linejoin="round" d="M 10766,7818 L 10916,7818"/>
 <path fill="none" stroke="rgb(179,179,179)" stroke-linejoin="round" d="M 10766,7818 L 10916,7818"/>
 <path fill="none" stroke="rgb(179,179,179)" stroke-linejoin="round" d="M 10766,5714 L 10916,5714"/>
 <path fill="none" stroke="rgb(179,179,179)" stroke-linejoin="round" d="M 10766,5714 L 10916,5714"/>
 <path fill="none" stroke="rgb(179,179,179)" stroke-linejoin="round" d="M 10766,3610 L 10916,3610"/>
 <path fill="none" stroke="rgb(179,179,179)" stroke-linejoin="round" d="M 10766,3610 L 10916,3610"/>
 <path fill="none" stroke="rgb(179,179,179)" stroke-linejoin="round" d="M 10916,14130 L 10916,2769"/>
 <path fill="none" stroke="rgb(179,179,179)" stroke-linejoin="round" d="M 26367,14130 L 26217,14130"/>
 <path fill="none" stroke="rgb(179,179,179)" stroke-linejoin="round" d="M 26367,14130 L 26217,14130"/>
 <path fill="none" stroke="rgb(179,179,179)" stroke-linejoin="round" d="M 26367,11857 L 26217,11857"/>
 <path fill="none" stroke="rgb(179,179,179)" stroke-linejoin="round" d="M 26367,11857 L 26217,11857"/>
 <path fill="none" stroke="rgb(179,179,179)" stroke-linejoin="round" d="M 26367,9585 L 26217,9585"/>
 <path fill="none" stroke="rgb(179,179,179)" stroke-linejoin="round" d="M 26367,9585 L 26217,9585"/>
 <path fill="none" stroke="rgb(179,179,179)" stroke-linejoin="round" d="M 26367,7313 L 26217,7313"/>
 <path fill="none" stroke="rgb(179,179,179)" stroke-linejoin="round" d="M 26367,7313 L 26217,7313"/>
 <path fill="none" stroke="rgb(179,179,179)" stroke-linejoin="round" d="M 26367,5041 L 26217,5041"/>
 <path fill="none" stroke="rgb(179,179,179)" stroke-linejoin="round" d="M 26367,5041 L 26217,5041"/>
 <path fill="none" stroke="rgb(179,179,179)" stroke-linejoin="round" d="M 26367,2768 L 26217,2768"/>
 <path fill="none" stroke="rgb(179,179,179)" stroke-linejoin="round" d="M 26367,2768 L 26217,2768"/>
 <path fill="none" stroke="rgb(179,179,179)" stroke-linejoin="round" d="M 26217,14130 L 26217,2768"/>
 <path fill="none" stroke="rgb(255,149,14)" stroke-width="20" stroke-linejoin="round" d="M 13117,14130 L 13119,13883 13128,13962 13137,13565 13145,13828 13154,13609 13163,13467 13172,13535 13180,13709 13189,13916 13198,13793 13207,13857 13216,13884 13224,13763 13233,13863 13242,13871 13250,13930 13259,13758 13268,13694 13276,13800 13285,13778 13294,13867 13303,13935 13311,13763 13320,13814 13329,13663 13338,13575 13346,13592 13355,13558 13364,13837 13373,13713 13381,13763 13390,13813 13399,13882 13408,13819 13416,13731 13425,13625 13434,13855 13443,13770 13451,13504 13460,13601 13469,13633 13478,13533 13486,13446 13495,13520 13504,13594 13513,13671 13521,13665 13530,13741 13539,13855 13548,13840 13556,13806 13565,13935 13574,13845 13583,13861 13591,13894 13600,13845 13609,13818 13618,13897 13626,13914 13635,13895 13644,13769 13652,13946 13661,13919 13670,13868 13679,13887 13687,13929 13696,13860 13705,13866 13714,13820 13723,13784 13731,13827 13740,13894 13749,13936 13766,13882 13775,13856 13784,13882 13792,13754 13801,13893 13810,13851 13819,13795 13827,13828 13836,13770 13845,13900 13854,13844 13862,13835 13871,13804 13880,13697 13889,13728 13897,13791 13906,13804 13915,13750 13924,13745 13932,13698 13941,13510 13950,13592 13959,13487 13967,13584 13976,13646 13985,13690 13994,13515 14003,13397 14011,13172 14020,13376 14029,13519 14037,13704 14046,13872 14055,13754 14063,13554 14072,13562 14081,13824 14090,13997 14099,14039 14107,13693 14116,13584 14125,13571 14133,13543 14142,13578 14151,13693 14160,13800 14169,13901 14177,13622 14186,13462 14195,13816 14203,13981 14212,13820 14221,13726 14230,13530 14238,13223 14247,13288 14256,13455 14265,13792 14274,13751 14282,13917 14291,13991 14300,13971 14308,13798 14317,13764 14326,13736 14335,13597 14343,13852 14351,13818 14360,13761 14369,13822 14377,13922 14386,13853 14395,13782 14403,13876 14421,13915 14430,13870 14438,13755 14447,13822 14456,13846 14465,13832 14473,13879 14482,13971 14491,13840 14500,13872 14508,13921 14517,13830 14526,13885 14535,13885 14543,13924 14552,13942 14561,14012 14570,13961 14578,13954 14587,13973 14596,13833 14605,13702 14613,13920 14622,13997 14631,13970 14640,13906 14648,13895 14657,13978 14666,14015 14675,13992 14683,13939 14692,13944 14701,13978 14710,13925 14718,13903 14727,13802 14736,13909 14753,13944 14762,13899 14771,13890 14780,13930 14788,13986 14797,13958 14806,13908 14815,13947 14823,13823 14832,13953 14841,13897 14850,13891 14858,13857 14867,13898 14876,13827 14884,13922 14893,13968 14902,13985 14911,13925 14919,13938 14928,13933 14937,13934 14946,13945 14955,13965 14963,13822 14972,13686 14981,13781 14989,13812 14998,13902 15007,13764 15024,13804 15033,13957 15042,13844 15051,13837 15059,13944 15068,13933 15077,13660 15086,13738 15094,13563 15103,13627 15112,13612 15120,13515 15130,13725 15138,13773 15147,13652 15156,13267 15164,13466 15173,13597 15182,13715 15191,13760 15199,13682 15208,13675 15217,13864 15225,13915 15234,13929 15243,14000 15252,13756 15260,13857 15269,13700 15278,13728 15287,13730 15295,13668 15304,13798 15313,13853 15322,13843 15330,13925 15339,13936 15348,13956 15357,13916 15365,13776 15374,13927 15383,13924 15393,13927 15400,13844 15409,13955 15418,13997 15427,13962 15435,13899 15444,13858 15453,13840 15462,13837 15470,13733 15479,13843 15488,13988 15497,13902 15505,13896 15514,13931 15523,13774 15532,13841 15540,13922 15558,13829 15567,13763 15575,13917 15584,13925 15593,13854 15601,13750 15610,13792 15619,13912 15628,13953 15637,13913 15645,13919 15654,14026 15663,13995 15671,13937 15680,13914 15689,13976 15698,14004 15706,13979 15715,14022 15724,14001 15733,13978 15741,14026 15750,13975 15759,14044 15768,13964 15776,13953 15785,13963 15794,13934 15803,13960 15811,13970 15829,13941 15838,14007 15846,14013 15855,14012 15864,13984 15873,13969 15881,13879 15890,13852 15899,13984 15908,13960 15916,14017 15925,13935 15934,14004 15943,14024 15951,13958 15960,13999 15969,13976 15977,13942 15986,13976 15995,13922 16004,13966 16012,13942 16021,13922 16030,13936 16039,13879 16047,13893 16056,13905 16065,13960 16074,13874 16082,13821 16091,13885 16100,13963 16109,13911 16117,13945 16126,13945 16144,13958 16152,13960 16161,13957 16170,13915 16179,13901 16187,13952 16196,13946 16205,13962 16214,13887 16222,13865 16231,13918 16240,13776 16249,13742 16257,13851 16266,13882 16275,13945 16283,13933 16292,13935 16301,14000 16310,13986 16318,13894 16327,13832 16336,13792 16345,13755 16354,13849 16362,13773 16371,13656 16380,13635 16389,13686 16397,13736 16406,13589 16415,13510 16423,13603 16432,13911 16441,13900 16450,13876 16458,13909 16467,13779 16476,13774 16485,13790 16493,13814 16502,13672 16511,13742 16520,13801 16528,13879 16537,13708 16546,13658 16555,13741 16563,13776 16572,13735 16581,13772 16590,13708 16598,13798 16607,13787 16616,13718 16624,13703 16633,13842 16642,13783 16651,13598 16659,13659 16668,13788 16677,13793 16686,13889 16695,13796 16703,13798 16712,13889 16721,13869 16730,13973 16738,13920 16747,13591 16756,13802 16764,13974 16773,14050 16782,13720 16791,13452 16799,13110 16808,13372 16817,13774 16826,13830 16834,13717 16843,13722 16852,13695 16861,13877 16869,13927 16878,13795 16887,13884 16896,14033 16904,13893 16913,13847 16922,13920 16931,13918 16939,13865 16948,13803 16957,13962 16966,13887 16974,13803 16992,13782 17000,13699 17009,13607 17018,13783 17027,13842 17035,13839 17044,13752 17053,13611 17062,13820 17079,13440 17088,13535 17097,13803 17106,13800 17114,13808 17123,13852 17132,13901 17140,13889 17149,13942 17158,13966 17167,13913 17175,13774 17184,13658 17193,13493 17202,13249 17210,13112 17219,13378 17228,13657 17237,13688 17245,13624 17254,13814 17263,13800 17272,13920 17280,13905 17289,13831 17298,13943 17307,13904 17315,13826 17324,13838 17333,13926 17342,13977 17350,13904 17359,13819 17368,13917 17376,13919 17385,13881 17394,13837 17403,13946 17411,13986 17420,13943 17429,13940 17438,13925 17447,13965 17455,13942 17464,13917 17473,13987 17482,13877 17490,13935 17499,13914 17508,13948 17516,13887 17525,13799 17534,13929 17543,13986 17551,13729 17560,13779 17569,13802 17578,13728 17586,13815 17595,13799 17604,13863 17613,13916 17621,13770 17630,13686 17639,13490 17648,13557 17656,13826 17665,13903 17674,13981 17683,13813 17691,13653 17700,13643 17709,13703 17718,13831 17726,13822 17735,13834 17744,13759 17752,13820 17761,13924 17770,13847 17779,13762 17788,13857 17796,13890 17805,13907 17814,13921 17823,13867 17831,13845 17840,13868 17849,13728 17858,13702 17866,13932 17875,13949 17884,13842 17892,13908 17901,13957 17910,13856 17919,13853 17927,13805 17936,13930 17945,13787 17954,13760 17962,13911 17971,13936 17980,13803 17989,13940 17997,13665 18006,13802 18015,13749 18024,13955 18032,13769 18041,13885 18050,13851 18067,13667 18076,13797 18085,13639 18094,13851 18102,13709 18111,13845 18120,13761 18128,13834 18137,13789 18146,13703 18155,13596 18163,13824 18172,13876 18181,13904 18190,13901 18199,13850 18207,13852 18216,13910 18225,13971 18234,13922 18242,13909 18251,13711 18260,13599 18268,13523 18277,13440 18286,13430 18295,13576 18303,13629 18312,13718 18321,13713 18330,13854 18339,13997 18347,13864 18356,13761 18365,13802 18373,13590 18382,13742 18391,13779 18400,13744 18409,13534 18417,13592 18426,13590 18435,13827 18443,13627 18452,13878 18461,13990 18470,14044 18478,14085 18487,13862 18496,13591 18504,13518 18513,13687 18531,13690 18540,13830 18548,13797 18557,13781 18566,13849 18574,13944 18583,13835 18592,13886 18601,13778 18609,13783 18618,13709 18627,13739 18636,13724 18644,13730 18653,13813 18662,13718 18671,13815 18679,13908 18688,13927 18697,13819 18706,13718 18714,13564 18723,13697 18732,13820 18741,13902 18749,13903 18758,13857 18767,13869 18776,13921 18784,13941 18793,13824 18802,13874 18811,13757 18819,13900 18828,13738 18837,13834 18846,13869 18854,13825 18863,13867 18872,13786 18881,13822 18889,13867 18898,13932 18907,13733 18916,13638 18926,13591 18933,13693 18942,13680 18950,13775 18959,13794 18968,13837 18977,13617 18985,13772 18994,13737 19003,13635 19012,13473 19021,13534 19029,13565 19038,13646 19047,13765 19056,13809 19064,13855 19073,13763 19082,13888 19090,13920 19099,13970 19108,13932 19117,13782 19125,13980 19134,14000 19143,13917 19152,13856 19160,13889 19169,13937 19178,13853 19187,13987 19195,13925 19204,13990 19213,13850 19222,13944 19230,13957 19239,13937 19248,13939 19256,13953 19265,13984 19274,13837 19283,13865 19292,13949 19300,13866 19309,13735 19318,13590 19327,13491 19335,13720 19344,13892 19353,13910 19361,13835 19370,13781 19379,13654 19388,13783 19396,13771 19405,13931 19414,13890 19423,13867 19431,13979 19440,14024 19449,13751 19458,13856 19466,13760 19475,13382 19484,13169 19493,13151 19501,13448 19510,13575 19519,13692 19528,13557 19537,13596 19545,13678 19563,13843 19571,13704 19580,13731 19589,13729 19598,13812 19606,13700 19615,13715 19624,13628 19632,13707 19641,13673 19650,13583 19659,13521 19668,13457 19676,13671 19685,13728 19694,13606 19702,13633 19711,13690 19720,13752 19729,13739 19737,13699 19746,13756 19755,13583 19764,13560 19772,13649 19781,13553 19790,13293 19799,13111 19807,13054 19816,13448 19825,13778 19834,13829 19842,13713 19851,13731 19860,13548 19869,13562 19877,13472 19886,13457 19895,13439 19904,13805 19912,13554 19921,13300 19930,13287 19939,13529 19947,13719 19956,13653 19965,13860 19974,13857 19982,13808 19991,13895 20000,13758 20008,13788 20017,13911 20026,13740 20035,13768 20043,13744 20052,13852 20061,13880 20070,13894 20078,13822 20087,13916 20096,13850 20105,13839 20113,13846 20122,13807 20131,13804 20140,13839 20148,13881 20157,13981 20166,13884 20175,13948 20183,13922 20192,13996 20201,14011 20210,13885 20218,13980 20236,13990 20245,14004 20253,13982 20262,13914 20271,13991 20280,13961 20288,14004 20297,13970 20306,13952 20315,13973 20323,14006 20332,13872 20341,13947 20350,13864 20358,13961 20367,13952 20376,13960 20384,13936 20393,14016 20402,13995 20411,13959 20420,13918 20428,14024 20437,13926 20446,13978 20454,13950 20463,13939 20472,13862 20481,13956 20489,13956 20507,14009 20516,13899 20524,13907 20533,13878 20542,13827 20551,13661 20559,13839 20568,13948 20577,13951 20586,13882 20594,13969 20603,13935 20612,13950 20621,13917 20629,13931 20638,13993 20656,14011 20664,13989 20673,13997 20682,13900 20691,13965 20699,13945 20708,14016 20717,13887 20726,13829 20734,13999 20743,13912 20752,13937 20761,13816 20769,13847 20778,13810 20787,13873 20795,13801 20804,13877 20813,13845 20822,13896 20831,13941 20839,13832 20848,13965 20857,13984 20866,13857 20874,13945 20883,13982 20892,13848 20900,13926 20909,13796 20918,13673 20927,13774 20935,13910 20944,13832 20953,13684 20962,13815 20970,13777 20979,13709 20988,13766 20997,13808 21005,13884 21014,13761 21023,13821 21032,13590 21040,13646 21049,13720 21058,13740 21067,13795 21075,13821 21084,13558 21093,13554 21102,13610 21110,13625 21119,13722 21128,13788 21136,13810 21145,13873 21154,13800 21163,13826 21172,13753 21180,13827 21189,13928 21198,13690 21207,13767 21215,13779 21224,13623 21233,13537 21242,13566 21250,13747 21259,13810 21268,13742 21277,13697 21285,13682 21294,13730 21303,13795 21311,13882 21320,13765 21329,13826 21338,13892 21347,13718 21355,13780 21364,13715 21373,13877 21381,13965 21390,14007 21399,13964 21408,13940 21416,13967 21425,13809 21434,13935 21443,13902 21451,13970 21460,13989 21469,13824 21478,13878 21486,13830 21495,13834 21504,13977 21512,13911 21521,13888 21530,13922 21539,13939 21547,13978 21556,13861 21565,13833 21574,13865 21582,13942 21591,13812 21600,13930 21609,13611 21618,13688 21626,13587 21635,13824 21644,13683 21652,13735 21661,13820 21670,13822 21679,13795 21687,13648 21696,13880 21705,13875 21714,13529 21722,13464 21731,13114 21741,13043 21749,13452 21757,13592 21767,13624 21775,13837 21784,13739 21792,13689 21801,13756 21810,13745 21819,13770 21827,13749 21836,13865 21845,13853 21854,13897 21862,13937 21871,13915 21880,13948 21888,13865 21897,13936 21906,13904 21915,13922 21923,13869 21933,13865 21941,13898 21950,13933 21959,13997 21967,13790 21976,13979 21985,13926 21993,13881 22002,13760 22011,13937 22020,13976 22028,13787 22037,13874 22046,13972 22055,13879 22063,13761 22072,13793 22081,13917 22090,13967 22098,13878 22107,13781 22116,13830 22125,13922 22133,13899 22142,13801 22151,13885 22160,13774 22168,13867 22177,13751 22186,13943 22195,13782 22203,13758 22212,13800 22221,13828 22230,13737 22238,13678 22247,13645 22256,13785 22264,13723 22273,13826 22282,13951 22291,13919 22300,13822 22308,13870 22317,13936 22326,13980 22334,13686 22343,13880 22352,13818 22361,13917 22378,13762 22387,13926 22396,13699 22404,13617 22413,13600 22422,13809 22431,13770 22440,13730 22448,13450 22457,13335 22466,13268 22475,13107 22483,13381 22492,13487 22501,13674 22509,13686 22518,13899 22527,13810 22536,13877 22544,13408 22553,13438 22562,13259 22571,13527 22579,13605 22588,13656 22597,13681 22606,13774 22614,13822 22623,13837 22632,13838 22640,13729 22649,13910 22658,13812 22667,13803 22675,13866 22684,13904 22693,13767 22702,13835 22710,13867 22719,13866 22728,13825 22737,13910 22745,13900 22754,13844 22763,13775 22772,13697 22780,13953 22789,13906 22798,13901 22807,13918 22816,13967 22824,13884 22833,13833 22842,13758 22850,13752 22859,13903 22868,13834 22877,13884 22885,13923 22894,13856 22903,13805 22912,13949 22920,13880 22929,13921 22938,13854 22947,13964 22955,13907 22964,13850 22973,13965 22982,13932 22990,13764 22999,13710 23008,13486 23017,13210 23025,13082 23034,13125 23043,13515 23052,13664 23060,13560 23069,13635 23078,13594 23087,13807 23095,13732 23104,13655 23113,13520 23121,13537 23130,13786 23139,13894 23148,13804 23156,13817 23165,13965 23174,14043 23183,13753 23191,13925 23200,13989 23209,14056 23218,13707 23226,13833 23235,13661 23244,13726 23253,13751 23261,13730 23270,13871 23279,13735 23288,13797 23296,13846 23305,13842 23314,13962 23323,13862 23331,13776 23340,13849 23349,13796 23358,13910 23366,13996 23375,13914 23384,13929 23393,13681 23401,13757 23410,13855 23419,13791 23427,13827 23436,13700 23445,13642 23454,13886 23462,13889 23471,13858 23480,13631 23489,13662 23498,13817 23506,13929 23515,13917 23524,13751 23533,13784 23541,13800 23550,13814 23559,13921 23567,13864 23576,13892 23585,13800 23594,13843 23602,13897 23611,13922 23620,13822 23637,13653 23646,13553 23655,13550 23664,13742 23673,13882 23681,13799 23690,13873 23699,13883 23707,13817 23716,13807 23725,13867 23734,13853 23742,13815 23751,13626 23760,13798 23769,13565 23777,13590 23786,13677 23795,13641 23803,13684 23812,13663 23821,13732 23830,13825 23839,13927 23847,13795 23856,13715 23865,13823 23873,13943 23882,13814 23891,13833 23900,13969 23908,13946 23917,13917 23926,13924 23935,13926 23943,13863 23952,13765 23961,13864 23970,13920 23978,13929 23987,13878 23996,13807 24005,13930 24013,13852 24022,13922"/>
 <path fill="none" stroke="rgb(153,102,153)" stroke-width="20" stroke-linejoin="round" d="M 10930,14100 L 10934,14080 10942,14003 10953,13745 10959,14035 10968,14000 10977,14022 10985,13904 10994,13826 11003,14006 11012,14018 11020,13947 11029,13940 11038,14009 11047,14015 11064,14037 11073,13962 11082,13985 11090,13845 11099,13331 11109,13000 11117,12548 11125,12092 11134,11770 11143,11426 11152,10907 11160,10435 11169,10172 11178,9663 11187,12232 11195,12264 11204,12211 11213,12126 11222,12048 11230,11981 11239,11893 11248,11929 11257,11876 11265,11876 11274,11722 11283,11620 11292,11615 11300,11563 11309,11510 11318,11448 11327,11459 11335,11319 11344,11311 11353,11203 11362,11197 11379,11196 11388,11092 11397,11090 11405,10989 11414,10987 11423,10921 11432,10940 11440,10765 11449,10811 11458,10725 11467,10711 11475,10623 11484,10554 11493,10568 11501,10620 11510,10568 11519,10567 11528,10452 11536,10464 11545,10411 11554,10412 11563,10399 11580,10253 11598,10255 11606,10254 11615,10203 11624,10168 11633,10150 11642,10098 11650,10031 11659,10124 11668,10061 11676,12018 11685,12642 11694,12558 11703,12659 11711,12508 11720,12490 11729,12423 11737,12403 11746,12400 11755,12401 11764,12316 11773,12296 11781,12227 11790,12243 11799,12138 11808,12141 11816,12176 11825,12138 11834,12086 11842,11981 11851,11978 11860,11878 11869,11877 11877,11887 11886,11757 11895,11781 11912,11721 11921,11722 11930,11651 11939,11613 11947,11525 11956,11498 11965,11458 11982,11458 11991,11353 12000,11316 12009,11302 12017,11235 12026,11198 12044,11249 12052,11130 12061,11176 12070,11100 12078,11090 12087,11039 12096,10985 12105,10921 12114,10986 12122,10854 12131,10883 12140,10786 12148,10882 12157,10815 12166,10700 12175,10673 12184,10712 12192,10621 12201,10621 12210,10674 12218,10555 12227,10517 12236,10463 12245,10462 12253,10370 12262,10397 12271,10369 12280,10412 12288,10306 12297,10255 12306,10202 12315,10152 12323,10150 12332,10203 12341,10150 12358,10097 12367,10046 12385,9939 12393,9927 12402,9874 12411,9940 12420,9889 12428,9813 12437,9304 12446,9746 12455,9739 12463,12384 12472,12497 12481,12399 12490,12289 12498,12193 12507,12296 12516,12100 12524,12034 12533,11984 12542,11981 12551,11886 12559,11824 12568,11771 12577,11688 12586,11657 12594,11642 12603,11606 12612,11462 12621,11456 12629,11385 12638,11405 12647,11301 12656,11248 12665,11197 12674,11240 12682,11106 12691,11093 12699,11091 12708,10986 12717,11039 12726,10935 12743,10936 12752,10830 12761,10829 12769,10776 12778,10832 12787,10713 12796,10674 12804,10673 12813,10578 12822,10624 12831,10569 12839,10568 12848,10516 12857,10476 12866,10464 12874,11653 12883,12914 12892,12822 12900,12818 12918,12812 12927,12768 12935,12713 12944,12648 12953,12594 12962,12556 12971,12504 12988,12447 12997,12452 13005,12399 13014,12348 13023,12251 13032,12259 13040,12244 13049,12226 13058,12177 13067,12100 13075,12146 13084,12025 13093,11970 13102,11972 13110,10972 13119,11379 13128,11603 13137,11481 13145,11421 13154,11439 13163,11139 13172,11181 13180,10996 13189,10897 13198,10882 13206,10752 13215,10859 13224,10852 13233,10770 13242,10695 13250,10827 13259,10874 13268,10686 13276,10768 13285,10698 13294,10453 13303,10478 13311,10518 13320,10525 13329,10563 13338,10553 13347,10468 13364,10202 13373,10453 13381,10560 13390,10530 13399,10518 13408,10464 13416,10402 13425,10271 13434,10363 13443,10269 13451,10227 13460,10183 13469,11469 13478,12748 13486,12705 13495,12656 13504,12471 13513,12360 13521,12276 13530,12092 13539,11869 13548,11819 13556,11660 13565,11483 13574,11487 13583,11328 13591,11188 13600,11007 13609,11569 13617,11190 13626,11136 13635,10963 13644,10925 13653,10745 13661,10992 13670,11066 13679,10982 13687,10771 13696,10766 13705,10508 13714,10598 13722,10818 13731,10685 13740,10541 13749,10353 13757,10305 13766,10230 13775,10031 13784,9993 13792,10642 13801,10780 13810,10681 13819,10686 13827,10436 13836,10403 13845,10251 13854,10309 13862,10430 13871,10399 13880,10445 13889,10375 13897,10201 13906,10424 13915,10397 13924,10306 13932,10551 13941,10449 13950,10662 13958,10622 13967,10685 13976,10601 13985,10612 13993,10512 14002,10510 14011,10435 14020,10379 14028,10424 14037,10388 14046,10490 14055,10527 14064,10459 14072,10397 14081,10536 14090,10505 14098,10442 14107,10461 14116,10342 14125,10255 14133,10156 14142,10031 14151,10171 14160,10212 14177,12677 14186,12827 14195,12795 14203,12709 14212,12514 14221,12467 14230,12431 14238,12265 14247,12266 14256,11999 14265,11889 14273,11829 14282,11535 14291,11817 14300,11654 14308,11726 14317,11617 14326,11514 14335,11494 14343,11258 14351,11008 14360,10933 14368,10792 14377,10638 14386,10754 14395,10791 14403,11217 14412,10925 14421,10868 14430,10857 14439,10701 14447,10614 14456,10387 14465,10130 14474,10123 14482,10036 14491,10323 14500,10896 14508,12832 14517,12781 14526,12634 14535,12454 14544,12434 14552,12227 14561,12065 14570,12030 14578,11859 14587,11767 14596,12077 14605,12165 14614,12187 14622,12067 14631,11849 14640,11740 14648,11637 14657,11490 14666,11231 14675,11018 14683,11132 14692,11570 14701,11465 14710,11316 14718,11696 14727,11686 14736,11691 14744,11468 14753,11389 14762,11217 14771,11144 14779,10915 14788,10994 14797,11297 14806,11243 14814,11044 14823,11021 14832,10829 14841,10996 14850,11184 14858,11176 14867,11078 14876,10951 14884,10730 14893,10618 14902,10535 14911,10377 14919,10212 14928,10637 14937,10631 14946,10702 14954,10432 14963,11081 14972,11242 14981,11260 14989,11133 14998,11020 15007,11001 15016,10850 15024,10636 15033,10468 15042,10362 15051,10174 15059,10146 15068,10311 15077,10826 15086,10743 15094,11058 15103,10808 15112,10834 15121,10688 15129,10609 15138,10688 15156,10744 15164,10585 15173,10441 15182,10398 15190,10269 15199,10162 15208,10014 15217,9935 15226,9640 15234,9686 15243,10125 15252,11911 15260,12785 15269,12595 15278,12542 15287,12399 15295,12410 15304,12117 15313,11862 15322,11788 15330,11686 15339,11601 15348,11467 15357,11827 15366,11758 15374,11520 15383,11533 15393,11396 15400,11297 15409,11071 15418,10781 15427,10774 15435,10505 15444,13120 15453,13384 15462,13345 15470,13211 15479,13131 15488,12985 15497,12860 15505,12807 15514,13078 15523,13001 15531,12951 15540,12901 15549,12622 15558,13044 15566,12934 15576,12775 15584,12790 15593,12635 15601,12610 15610,12407 15619,12382 15628,12038 15636,13339 15645,13965 15654,13828 15663,13742 15671,13647 15680,13568 15689,13369 15698,13184 15706,13068 15715,12890 15724,12746 15733,12535 15742,12383 15750,12207 15759,12113 15768,12941 15776,12868 15785,12699 15794,12603 15803,12615 15811,12384 15820,12209 15829,12049 15838,11710 15846,11547 15855,11500 15864,11900 15872,12387 15881,12270 15890,12215 15899,11937 15907,11804 15916,11684 15925,11561 15934,11401 15942,11056 15951,11253 15960,11896 15969,11914 15978,11712 15986,11537 15995,11403 16004,11327 16013,11860 16021,12532 16030,12312 16039,12336 16047,12176 16056,12101 16065,11983 16074,11754 16083,11706 16091,11416 16100,11333 16109,11552 16117,11793 16126,11758 16135,11689 16144,11416 16152,11814 16161,11788 16170,11786 16179,11626 16187,11603 16196,11445 16205,11770 16214,11644 16222,11675 16231,11388 16241,11374 16248,11335 16257,11056 16266,11070 16275,10808 16283,10643 16292,10503 16301,10321 16310,10252 16318,10664 16327,11208 16336,11542 16345,11392 16353,11374 16362,11440 16371,11488 16380,11338 16389,11360 16397,11163 16406,11056 16415,11029 16423,10864 16432,10543 16441,10671 16450,10449 16458,10444 16467,10691 16476,10675 16486,10515 16493,10537 16502,10967 16511,10702 16520,10695 16528,10555 16537,10429 16546,10502 16555,10620 16563,10580 16572,10719 16590,10778 16598,10589 16607,10534 16616,10443 16624,10365 16633,10360 16642,10279 16651,10327 16659,10249 16668,10172 16677,10114 16686,9886 16695,9875 16703,10070 16712,9981 16721,10202 16730,10259 16738,10201 16747,10279 16756,11695 16765,12802 16773,12824 16782,12700 16791,12485 16799,12476 16808,12253 16817,12190 16826,11955 16834,11888 16843,11823 16852,11633 16861,11564 16869,11252 16878,11232 16887,11041 16896,10814 16904,11092 16913,11176 16922,11234 16931,10893 16939,10930 16948,10777 16957,10469 16966,10733 16974,11007 16983,11127 16992,11018 17001,11004 17009,10993 17018,10683 17027,11093 17036,10942 17044,10985 17053,10869 17062,10980 17070,10985 17079,10940 17088,10884 17097,10631 17105,10609 17114,10404 17123,10269 17132,10245 17140,10174 17149,10200 17158,10430 17167,10462 17175,10839 17184,13068 17193,13034 17202,13060 17210,12970 17219,12880 17228,12830 17237,12622 17245,12491 17263,12291 17272,12109 17280,12035 17289,11921 17298,11708 17307,11614 17315,11666 17324,11482 17333,11279 17342,11229 17350,10829 17359,11053 17368,11340 17376,11246 17385,11746 17394,11617 17403,11624 17411,11325 17420,11297 17429,11183 17438,11002 17447,10779 17455,10695 17464,10525 17473,10479 17481,10767 17490,10964 17499,10790 17508,10732 17517,10849 17525,11108 17534,11089 17543,11078 17551,11342 17560,11309 17569,11162 17578,11286 17586,11055 17595,10888 17604,10801 17613,10695 17621,10754 17630,10972 17639,10907 17648,10941 17656,10619 17665,10453 17674,10341 17683,10650 17691,10715 17700,10515 17709,10738 17718,12105 17726,12994 17735,12966 17744,12800 17752,12714 17761,12589 17770,12384 17779,12333 17788,12189 17796,11976 17805,11830 17814,11915 17823,12136 17831,12052 17840,11977 17849,11816 17858,11879 17866,11493 17875,11541 17884,11838 17892,11727 17901,11716 17910,11577 17919,11496 17927,11343 17936,11095 17945,11610 17954,11428 17962,11366 17971,11104 17980,11131 17989,11010 17997,11417 18006,11328 18015,11320 18024,11224 18032,11029 18041,11002 18050,11236 18059,11187 18067,11461 18076,11364 18085,11318 18094,11082 18102,11139 18111,10980 18120,10945 18129,10820 18137,10996 18146,11064 18155,10907 18163,10856 18172,10727 18181,10748 18190,10554 18199,10562 18207,10351 18216,10762 18225,10627 18233,10400 18242,10298 18251,10793 18260,10879 18269,11097 18277,11053 18286,11020 18295,10944 18303,10833 18312,10760 18321,10702 18330,10467 18338,10406 18347,10507 18356,10366 18365,10376 18373,10507 18382,10635 18391,10612 18400,10604 18408,10514 18417,10386 18426,10341 18435,10144 18443,10318 18452,10343 18461,13029 18470,12974 18478,12827 18487,12814 18496,12652 18505,12571 18513,12409 18522,12252 18531,12200 18540,11986 18548,11917 18557,11832 18566,11705 18575,11435 18583,11304 18592,11796 18601,11650 18609,11493 18618,11483 18627,11810 18636,11551 18644,11606 18653,11505 18662,11225 18671,11228 18679,11093 18688,10868 18697,10801 18706,11168 18714,11135 18723,11005 18732,10922 18741,10753 18749,10662 18758,10377 18767,10248 18776,10217 18784,10810 18793,10970 18802,10882 18811,10873 18819,10742 18828,10497 18837,10475 18846,10485 18854,10228 18863,10505 18872,10503 18880,10429 18889,10406 18898,10623 18907,10641 18915,10695 18924,10759 18933,10670 18942,10897 18950,10839 18959,10860 18968,10818 18977,10772 18985,10610 18994,10590 19003,10687 19012,13064 19020,13014 19029,12922 19038,12863 19047,12773 19055,12622 19064,12573 19073,12468 19082,12332 19090,12347 19099,12049 19108,11948 19117,11820 19125,11802 19134,11608 19143,11401 19152,11376 19160,11218 19169,11640 19178,11618 19187,11490 19195,11295 19204,11202 19213,11028 19222,10884 19230,10859 19239,11284 19248,11345 19256,11220 19265,11105 19274,11040 19283,10828 19291,10775 19300,11385 19309,11531 19318,11578 19326,11468 19335,11410 19344,11286 19353,11033 19362,11211 19370,11125 19379,11128 19388,10995 19397,11018 19405,10842 19414,10693 19423,10505 19431,10312 19440,10183 19449,10560 19458,10921 19466,11252 19475,11316 19484,11202 19493,11116 19501,10965 19510,10843 19519,11036 19528,10827 19536,11064 19545,10983 19554,10956 19563,10862 19571,10717 19589,10566 19598,10394 19606,10603 19615,10500 19624,10799 19633,10719 19641,10653 19650,10507 19659,10385 19668,10262 19676,10484 19685,10564 19694,10459 19702,10457 19711,10341 19720,10217 19729,10418 19738,10194 19746,10273 19755,10080 19764,9988 19772,9896 19781,10090 19790,10067 19799,10014 19807,10012 19816,9765 19825,9682 19834,9886 19842,10012 19851,9885 19860,9884 19869,9774 19878,9837 19886,9767 19895,9704 19904,12478 19912,12429 19921,12338 19930,12203 19939,12057 19947,11918 19956,11757 19965,11686 19974,11525 19982,11384 19991,11269 20000,11074 20009,10883 20018,12401 20026,13443 20035,13443 20043,13311 20052,13262 20061,13175 20070,12962 20078,12961 20087,13136 20096,13053 20105,13000 20114,12866 20122,12706 20131,12652 20140,12461 20149,12417 20157,12240 20166,12052 20175,11972 20183,11788 20192,11757 20201,11715 20210,11559 20218,11170 20227,11190 20236,10993 20245,10935 20253,11688 20262,11415 20271,11503 20280,11300 20288,11196 20297,11058 20306,10785 20315,10699 20323,10899 20332,13575 20341,13426 20350,13309 20358,13248 20367,13073 20376,12971 20384,12763 20393,12542 20402,12349 20411,12502 20419,12173 20428,12204 20437,12674 20446,12593 20455,12591 20463,12443 20472,12405 20481,12198 20489,12094 20498,11791 20507,11743 20516,12404 20525,12902 20533,12889 20542,12691 20551,12679 20568,12542 20577,12219 20586,12100 20594,11974 20603,11773 20612,11825 20621,12292 20629,12184 20638,12065 20647,11932 20656,11894 20664,11666 20673,11478 20682,11421 20691,11293 20699,11055 20708,10970 20717,10903 20726,11543 20734,11428 20743,11817 20752,11943 20760,11806 20769,11656 20778,11620 20787,11411 20795,11330 20804,11689 20813,11571 20822,11601 20830,11446 20839,11364 20848,11139 20857,11013 20865,10826 20874,10733 20883,10523 20892,10508 20900,10434 20909,11050 20918,10868 20927,11354 20935,11185 20944,11531 20953,11375 20962,11280 20970,11253 20979,11058 20988,10976 20997,10909 21005,10791 21014,10578 21023,10825 21032,11121 21040,11212 21049,11082 21058,10905 21067,10893 21075,10716 21084,10980 21093,10905 21110,10877 21119,10645 21128,10583 21137,10349 21145,10241 21154,10047 21163,9954 21172,9847 21181,9811 21189,10219 21198,10541 21207,10414 21215,10405 21224,10426 21233,10403 21241,10329 21250,10364 21259,10208 21268,10010 21276,10241 21285,10142 21294,10094 21303,11882 21311,12570 21320,12410 21329,12300 21338,12132 21346,12064 21355,11945 21364,11905 21373,11518 21381,11384 21390,11210 21399,11584 21408,11566 21416,11478 21425,11354 21434,11158 21443,11153 21451,10870 21460,10696 21469,11304 21478,11109 21486,11071 21495,10921 21504,10838 21513,10585 21521,11021 21530,10944 21539,10871 21547,10611 21556,10554 21565,10474 21574,10439 21583,10257 21591,10827 21600,11135 21609,10928 21617,10847 21626,10756 21635,10593 21644,10933 21652,10849 21661,10710 21670,10716 21679,10492 21687,10576 21696,10373 21705,10746 21714,10887 21722,10868 21731,10870 21740,10862 21749,10737 21757,10570 21766,10508 21775,11624 21784,12999 21792,12954 21801,12863 21810,12859 21819,12767 21828,12610 21836,12452 21845,12450 21854,12200 21862,12161 21871,12074 21880,11897 21889,11772 21897,11685 21906,12056 21915,12006 21923,11789 21932,11794 21941,11703 21950,11634 21958,11294 21976,11098 21985,11138 21993,11580 22003,11399 22011,11331 22020,11277 22028,11236 22037,11464 22046,11463 22055,11408 22063,11236 22072,11186 22081,10941 22090,10806 22098,10632 22107,10983 22116,11158 22125,10969 22133,10874 22142,10906 22151,10702 22160,11208 22168,11034 22177,11014 22186,10864 22195,10787 22203,10635 22212,10444 22221,10984 22230,11110 22238,10987 22247,10943 22256,10924 22264,10816 22273,10543 22282,10553 22291,10354 22300,10166 22308,9969 22317,9878 22326,10046 22335,10685 22343,10563 22352,10545 22361,10414 22370,10429 22378,10506 22387,10398 22396,10382 22405,10316 22413,10239 22422,10137 22431,10343 22439,10575 22448,10529 22457,10521 22467,10404 22474,10454 22483,10323 22492,10435 22501,10437 22510,10528 22518,10524 22527,10316 22536,11332 22544,12792 22553,12770 22562,12710 22571,12477 22579,12308 22588,12197 22597,12008 22606,12065 22614,11828 22623,11649 22632,11533 22641,11322 22649,11235 22658,11319 22667,11532 22675,11474 22684,11297 22693,11168 22702,11050 22711,10894 22719,10817 22728,11196 22737,10953 22745,10898 22754,10847 22763,10827 22772,10695 22781,10408 22789,10697 22798,10744 22807,10735 22815,10538 22824,10399 22833,10293 22842,10692 22850,10668 22859,10480 22868,10685 22877,10753 22885,10671 22894,10484 22903,10385 22912,10254 22920,10211 22929,9964 22938,10395 22947,10380 22955,10525 22964,10645 22973,10629 22982,10554 22990,10454 22999,10546 23008,10677 23017,10673 23025,10598 23034,10585 23043,10379 23051,10512 23060,10455 23078,10365 23086,10385 23095,10484 23104,10406 23113,10273 23122,10236 23130,10174 23139,10241 23148,10548 23156,10592 23165,10551 23174,10556 23183,11641 23191,12998 23200,12853 23209,12776 23218,12818 23226,12680 23235,12543 23244,12461 23253,12374 23261,12356 23270,12150 23279,12107 23288,11901 23296,11832 23305,11746 23314,11775 23323,12004 23331,11868 23340,11683 23349,11726 23358,11526 23366,11306 23375,11213 23384,11453 23392,11770 23401,11692 23410,11680 23419,11672 23428,11424 23436,11368 23445,11217 23454,11346 23462,11320 23471,11201 23480,11297 23489,11044 23497,10965 23506,10778 23515,10663 23524,11044 23532,10973 23541,10944 23550,10822 23559,10700 23567,10527 23576,10876 23585,10675 23594,10678 23602,10571 23611,10786 23620,10798 23629,10735 23637,10674 23646,10597 23655,10628 23664,10319 23672,10125 23681,9984 23690,10299 23699,10253 23707,10278 23716,10147 23725,10035 23734,10445 23742,10620 23751,10725 23760,10442 23769,10465 23777,10354 23786,10281 23795,12776 23803,12650 23812,12496 23821,12557 23830,12318 23838,12012 23847,11846 23856,11927 23865,11800 23873,11507 23882,11321 23891,11285 23900,11017 23909,10835 23917,11387 23926,11348 23935,11219 23943,11103 23952,11499 23961,11398 23970,11329 23978,11232 23987,10915 23996,10801 24005,10589 24014,10537 24023,10904"/>
 <path fill="none" stroke="rgb(0,132,209)" stroke-width="20" stroke-linejoin="round" d="M 13128,13359 L 13150,13671 13172,13551 13194,13261 13216,13069 13238,13286 13260,13286 13282,13454 13303,13166 13325,13406 13347,13479 13369,13309 13391,13576 13413,13719 13435,13551 13457,13625 13479,13528 13500,13648 13524,13431 13544,13189 13566,12924 13587,12730 13609,12636 13631,12804 13653,12636 13675,12779 13701,12852 13720,12707 13741,12901 13762,12707 13784,12467 13806,13044 13828,13237 13850,12949 13872,13141 13894,13166 13915,13189 13937,13309 13959,13551 13981,13719 14003,13696 14025,13599 14049,13622 14068,13719 14090,13768 14112,13744 14134,13551 14156,13528 14178,13719 14200,13793 14221,13744 14244,13648 14265,13454 14288,13117 14309,13286 14331,13166 14352,12998 14373,12610 14395,12684 14417,13092 14439,13092 14461,12756 14483,12562 14505,12684 14526,12781 14548,12467 14570,12177 14594,11836 14614,12394 14636,12345 14659,12105 14680,11689 14701,12080 14723,12274 14745,12610 14767,12322 14789,12105 14811,12419 14833,12368 14854,12539 14876,12587 14898,12394 14920,12105 14942,12345 14964,12539 14987,13309 15008,13214 15029,13021 15051,12587 15073,12562 15095,13357 15117,13528 15139,13383 15160,13574 15185,13406 15204,13237 15226,12924 15248,12949 15272,13334 15292,13166 15315,12949 15335,12587 15357,12467 15379,12804 15401,12636 15423,12370 15445,12032 15467,12610 15488,12490 15510,12154 15532,12490 15554,12539 15576,12732 15598,12756 15620,12490 15642,12248 15663,11857 15685,11647 15707,11331 15729,10931 15751,10784 15772,10889 15794,11457 15817,11268 15838,10994 15860,10553 15882,11436 15904,11478 15926,11289 15949,10931 15972,11352 15991,11584 16013,11331 16035,12539 16057,12636 16079,12297 16100,12057 16122,12274 16144,12370 16166,12539 16188,12756 16210,12779 16232,12875 16255,12756 16277,12467 16297,12129 16319,11794 16341,12998 16363,13383 16385,13528 16407,13334 16432,13092 16450,12827 16472,12804 16494,13021 16517,13311 16538,13214 16560,13189 16582,13454 16603,13622 16625,13431 16647,13334 16669,13406 16691,13237 16713,13263 16734,13576 16756,13744 16779,13768 16800,13622 16822,13454 16844,13166 16866,12949 16888,12707 16909,12467 16931,12827 16954,12587 16975,12562 16997,13191 17019,13115 17040,13263 17062,13406 17084,13528 17106,13286 17128,13069 17151,12827 17172,13237 17193,13479 17215,13599 17237,13429 17259,13141 17281,12852 17303,12562 17325,12297 17347,12057 17368,12004 17390,12587 17412,12779 17434,12587 17456,12248 17478,11962 17500,12370 17521,12370 17543,12901 17565,13214 17587,13286 17609,12998 17631,12901 17652,13166 17674,12827 17696,13092 17718,13237 17740,13237 17763,13021 17784,12756 17806,12442 17828,12610 17849,12779 17871,12610 17893,12539 17915,12779 17937,12587 17959,12732 17980,12756 18002,12636 18024,12901 18046,12827 18068,13117 18090,13311 18112,13069 18133,12878 18155,13117 18177,12972 18199,12707 18221,12684 18243,12756 18265,13141 18287,13648 18309,13502 18330,13357 18352,13189 18374,13286 18396,13622 18418,13574 18440,13357 18461,13576 18484,13768 18505,13671 18527,13357 18549,13237 18571,12924 18592,12636 18614,13044 18636,13189 18659,13214 18680,12995 18702,12707 18724,13166 18746,12949 18767,12659 18789,12610 18811,13383 18833,13117 18857,12901 18877,13044 18899,13046 18921,13383 18942,13551 18965,13671 18986,13696 19008,13576 19032,13551 19052,13383 19073,13189 19095,12852 19117,12539 19140,12345 19161,12057 19183,12394 19205,12345 19226,12057 19248,12129 19274,12394 19292,12225 19314,12875 19337,13166 19358,12827 19379,13069 19401,12926 19423,12634 19445,12345 19467,13021 19489,13648 19511,13406 19532,13528 19554,13648 19576,13574 19598,13334 19620,13406 19643,13648 19664,13551 19686,13576 19708,13696 19729,13622 19755,13622 19773,13502 19795,13599 19817,13599 19838,13454 19860,13744 19882,13648 19904,13648 19926,13671 19948,13479 19970,13309 19991,13046 20016,12756 20035,12949 20057,12995 20079,12684 20101,12827 20123,12756 20145,12659 20166,12345 20188,11983 20210,11752 20232,11457 20254,11289 20276,11941 20298,11836 20319,11499 20341,11878 20363,11962 20385,11752 20407,11415 20429,11205 20451,11626 20473,11773 20494,11520 20516,11163 20538,12514 20560,12684 20582,12394 20604,12105 20626,12129 20647,12419 20669,12154 20691,11857 20713,11520 20735,11983 20757,12659 20778,12756 20800,12514 20822,12804 20844,12707 20868,12419 20888,12105 20910,12105 20932,12684 20953,13214 20976,13286 20997,13021 21019,12732 21041,13189 21063,13383 21085,13311 21106,13431 21128,13286 21150,12949 21172,12707 21194,12732 21216,13357 21238,13334 21260,13406 21281,13309 21303,13359 21325,13141 21347,12901 21369,12707 21391,12394 21413,12514 21434,12612 21456,12392 21478,12539 21500,12610 21522,12394 21544,12827 21565,12587 21587,12419 21609,13117 21632,13166 21653,13166 21675,13286 21697,13021 21718,13383 21741,13648 21762,13502 21784,13359 21806,13406 21829,13189 21850,12901 21872,12636 21893,12394 21915,12490 21937,12587 21959,12442 21981,12057 22003,12396 22025,12440 22047,12684 22068,12756 22090,12514 22112,12345 22134,12636 22156,12587 22178,12949 22199,12804 22221,12707 22243,13334 22265,13237 22287,12998 22309,12659 22331,12490 22353,13334 22374,13141 22398,13286 22418,13166 22440,13237 22462,13648 22484,13622 22506,13599 22527,13864 22550,13696 22571,13599 22593,13309 22615,13069 22637,12804 22658,12539 22680,12972 22702,12756 22724,12562 22746,12804 22768,12684 22790,12465 22811,12875 22834,12562 22856,12972 22877,13021 22899,13141 22923,12880 22943,12800 22965,13189 22986,13502 23008,13454 23030,13599 23052,13502 23074,13551 23096,13454 23118,13528 23139,13334 23161,13768 23183,13768 23205,13793 23227,13719 23249,13502 23271,13286 23292,13044 23314,12756 23336,13092 23358,12998 23381,12610 23402,13117 23424,13309 23445,13094 23467,13069 23489,13117 23511,12875 23535,12949 23555,12998 23577,12804 23599,13044 23620,13117 23642,13263 23664,13117 23686,12756 23711,12998 23730,12924 23751,13551 23774,13599 23796,13431 23817,13263 23839,12972 23861,12707 23883,12370 23904,12129 23926,12225 23948,12419 23970,12875 23992,12659 24014,12322 24036,12539 24036,9101"/>
 <path fill="none" stroke="rgb(255,66,14)" stroke-width="20" stroke-linejoin="round" d="M 10941,12661 L 10963,11815 10985,11163 11007,10363 11029,9206 11051,8008 11073,6598 11094,4578 11116,3652 11139,3673 11160,3673 11182,3631 11204,3673 11225,3673 11247,3652 11270,3673 11291,3673 11313,3673 11335,3631 11357,3673 11379,3673 11401,3652 11422,3673 11444,3673 11466,3673 11489,3652 11510,3673 11532,3673 11553,3652 11575,3652 11598,3673 11619,3673 11641,3652 11663,3673 11685,3652 11707,3673 11728,3631 11750,3673 11772,3673 11794,3652 11816,3673 11838,3673 11859,3673 11881,3631 11903,3673 11925,3673 11948,3652 11969,3673 11991,3673 12012,3673 12034,3652 12056,3673 12078,3673 12100,3673 12122,3631 12144,3673 12166,3673 12188,3652 12210,3673 12231,3673 12253,3652 12275,3652 12297,3673 12318,3673 12340,3652 12362,3673 12384,3673 12406,3673 12428,3631 12450,4052 12471,3673 12493,3652 12516,3652 12537,3673 12559,3673 12581,3652 12603,3673 12625,3673 12647,3652 12668,3673 12690,3673 12713,3673 12734,3652 12756,3673 12778,3673 12800,3673 12821,3631 12843,3673 12865,3673 12887,3652 12909,3673 12931,3673 12952,3673 12974,3652 12996,3673 13018,3673 13040,3673 13062,3652 13084,3673 13105,3673 13127,4410 13150,4136 13171,4241 13194,4431 13215,4746 13237,4494 13258,4494 13281,4368 13302,4578 13325,4473 13346,4304 13368,4452 13390,4220 13412,4115 13434,4220 13455,4157 13477,4283 13499,4157 13521,4347 13543,4599 13565,4809 13586,5041 13609,5272 13631,5020 13652,5062 13674,4999 13696,4999 13718,5146 13741,4830 13761,5041 13784,5335 13805,4809 13827,4536 13849,4809 13871,4746 13892,4641 13915,4557 13937,4473 13958,4304 13980,4052 14003,4115 14025,4199 14045,4157 14067,4073 14090,4031 14111,4052 14133,4178 14155,4283 14177,4073 14200,4010 14221,4010 14242,4199 14264,4304 14287,4683 14308,4536 14330,4557 14351,4830 14372,5083 14395,5188 14417,4725 14439,4704 14460,4936 14482,5230 14503,5167 14525,5041 14547,5272 14570,5567 14591,5946 14613,5399 14635,5462 14657,5693 14678,6030 14701,5756 14723,5525 14744,5188 14767,5441 14788,5714 14810,5378 14832,5441 14854,5251 14875,5167 14898,5378 14919,5693 14941,5462 14963,5293 14984,4515 15006,4557 15030,4830 15050,5062 15072,5293 15094,4473 15116,4283 15137,4389 15160,4199 15182,4431 15203,4557 15226,4809 15248,4894 15269,4473 15290,4683 15312,4809 15334,5146 15357,5399 15378,4915 15400,5125 15423,5441 15443,5714 15465,5230 15488,5230 15509,5651 15532,5314 15553,5272 15576,5083 15598,5062 15619,5209 15640,5588 15662,5883 15685,6198 15706,6430 15728,6787 15750,6977 15772,6977 15794,6366 15816,6472 15838,6892 15859,7082 15881,6451 15903,6303 15925,6535 15946,6850 15968,6409 15990,6240 16012,6472 16034,5293 16056,5188 16078,5420 16099,5714 16122,5672 16144,5378 16165,5188 16188,5041 16209,5083 16230,4852 16252,5062 16275,5314 16296,5651 16319,5967 16340,4873 16362,4410 16383,4326 16405,4389 16427,4662 16450,5020 16471,4915 16493,4809 16515,4557 16536,4557 16559,4536 16580,4410 16602,4178 16624,4326 16646,4410 16668,4368 16689,4557 16711,4578 16733,4220 16755,4031 16777,4031 16799,4094 16821,4368 16842,4662 16865,4788 16886,5146 16910,5293 16931,4978 16953,5188 16974,5293 16996,4599 17018,4683 17040,4515 17061,4431 17083,4262 17105,4431 17127,4704 17149,4915 17171,4599 17193,4304 17214,4178 17236,4389 17258,4599 17280,4957 17302,5230 17324,5483 17345,5735 17367,5840 17389,5209 17411,4999 17433,5251 17456,5462 17476,5840 17500,5420 17520,5441 17542,4873 17565,4599 17586,4557 17608,4704 17630,4894 17651,4599 17674,4978 17696,4725 17717,4641 17739,4536 17761,4746 17783,5041 17804,5272 17826,5188 17849,5041 17870,5209 17892,5209 17914,5041 17935,5209 17958,4999 17979,5083 18001,5167 18024,4852 18045,5041 18068,4683 18090,4431 18110,4683 18133,4894 18154,4725 18176,4767 18198,5062 18220,5125 18242,5041 18264,4683 18285,4199 18309,4241 18330,4431 18351,4578 18373,4557 18395,4157 18416,4199 18439,4431 18461,4220 18482,4010 18504,4094 18526,4452 18548,4578 18570,4873 18592,5146 18614,4725 18636,4641 18657,4494 18679,4788 18701,5146 18722,4620 18744,4788 18766,5146 18788,5188 18810,4431 18832,4641 18854,4873 18876,4809 18898,4746 18919,4389 18941,4241 18963,4094 18986,4094 19008,4241 19029,4241 19051,4389 19073,4620 19094,4894 19116,5251 19138,5420 19160,5735 19181,5399 19203,5420 19225,5735 19247,5672 19270,5483 19291,5525 19313,4978 19335,4641 19357,4936 19378,4746 19400,4830 19423,5104 19444,5378 19466,4873 19488,4199 19509,4283 19531,4347 19553,4157 19576,4220 19597,4368 19619,4452 19641,4157 19662,4220 19685,4220 19706,4136 19728,4157 19750,4157 19772,4304 19795,4199 19816,4199 19837,4283 19859,4094 19882,4157 19904,4094 19925,4094 19948,4283 19969,4536 19990,4725 20012,5104 20035,4809 20056,4830 20079,5062 20100,5020 20122,4936 20143,5104 20165,5483 20187,5819 20209,6030 20231,6366 20253,6514 20275,5798 20296,5904 20319,6282 20341,6009 20363,5777 20384,6009 20406,6430 20428,6556 20449,6198 20472,6072 20493,6219 20515,6661 20537,5314 20559,5041 20581,5483 20603,5693 20625,5630 20646,5378 20668,5630 20691,5925 20713,6198 20734,5840 20755,5167 20778,5125 20799,5251 20821,4978 20843,5083 20865,5335 20887,5714 20909,5672 20931,5062 20953,4641 20976,4494 20996,4746 21018,5062 21041,4620 21061,4410 21085,4515 21105,4410 21127,4473 21149,4767 21171,5083 21193,5062 21215,4515 21236,4410 21258,4389 21280,4515 21302,4410 21324,4578 21346,4852 21368,5083 21390,5420 21412,5335 21433,5146 21456,5420 21477,5251 21499,5146 21521,5399 21544,4978 21564,5188 21586,5378 21609,4746 21630,4620 21653,4641 21674,4515 21695,4683 21717,4494 21740,4157 21761,4304 21783,4368 21805,4389 21827,4620 21848,4830 21870,5209 21892,5420 21915,5357 21937,5146 21958,5314 21980,5693 22001,5420 22023,5357 22046,5167 22067,4999 22089,5251 22111,5525 22133,5104 22155,5209 22178,4873 22199,4978 22220,5083 22242,4515 22264,4494 22286,4767 22307,5188 22330,5293 22352,4515 22373,4662 22395,4410 22417,4599 22439,4641 22462,4136 22482,4157 22504,4220 22526,3968 22548,4094 22571,4178 22592,4431 22614,4683 22635,4978 22657,5251 22679,4915 22701,4999 22723,5209 22746,4999 22768,5062 22789,5357 22811,4915 22832,5188 22854,4852 22876,4725 22899,4704 22921,4873 22942,5020 22963,4620 22985,4304 23008,4368 23029,4115 23052,4304 23073,4283 23094,4347 23116,4241 23139,4431 23160,4052 23183,3989 23205,4031 23227,4052 23248,4304 23271,4494 23291,4704 23313,5041 23335,4725 23358,4852 23379,5104 23400,4746 23423,4494 23445,4704 23466,4662 23489,4662 23510,4894 23533,4894 23554,4746 23575,5041 23598,4704 23619,4662 23641,4515 23664,4683 23685,5062 23708,4873 23728,4788 23751,4304 23772,4199 23795,4262 23816,4515 23838,4852 23860,5167 23881,5293 23903,5651 23925,5609 23948,5420 23969,4873 23991,5146 24014,5420 24034,5314"/>
 <text class="TextShape"><tspan class="TextParagraph" font-family="Liberation Sans, sans-serif" font-size="353px" font-weight="400"><tspan class="TextPosition" x="10823" y="14698"><tspan fill="rgb(0,0,0)" stroke="none">0</tspan></tspan></tspan></text>
 <text class="TextShape"><tspan class="TextParagraph" font-family="Liberation Sans, sans-serif" font-size="353px" font-weight="400"><tspan class="TextPosition" x="12917" y="14698"><tspan fill="rgb(0,0,0)" stroke="none">10</tspan></tspan></tspan></text>
 <text class="TextShape"><tspan class="TextParagraph" font-family="Liberation Sans, sans-serif" font-size="353px" font-weight="400"><tspan class="TextPosition" x="15103" y="14698"><tspan fill="rgb(0,0,0)" stroke="none">20</tspan></tspan></tspan></text>
 <text class="TextShape"><tspan class="TextParagraph" font-family="Liberation Sans, sans-serif" font-size="353px" font-weight="400"><tspan class="TextPosition" x="17289" y="14698"><tspan fill="rgb(0,0,0)" stroke="none">30</tspan></tspan></tspan></text>
 <text class="TextShape"><tspan class="TextParagraph" font-family="Liberation Sans, sans-serif" font-size="353px" font-weight="400"><tspan class="TextPosition" x="19475" y="14698"><tspan fill="rgb(0,0,0)" stroke="none">40</tspan></tspan></tspan></text>
 <text class="TextShape"><tspan class="TextParagraph" font-family="Liberation Sans, sans-serif" font-size="353px" font-weight="400"><tspan class="TextPosition" x="21661" y="14698"><tspan fill="rgb(0,0,0)" stroke="none">50</tspan></tspan></tspan></text>
 <text class="TextShape"><tspan class="TextParagraph" font-family="Liberation Sans, sans-serif" font-size="353px" font-weight="400"><tspan class="TextPosition" x="23847" y="14698"><tspan fill="rgb(0,0,0)" stroke="none">60</tspan></tspan></tspan></text>
 <text class="TextShape"><tspan class="TextParagraph" font-family="Liberation Sans, sans-serif" font-size="353px" font-weight="400"><tspan class="TextPosition" x="26033" y="14698"><tspan fill="rgb(0,0,0)" stroke="none">70</tspan></tspan></tspan></text>
 <text class="TextShape"><tspan class="TextParagraph" font-family="Liberation Sans, sans-serif" font-size="353px" font-weight="400"><tspan class="TextPosition" x="10481" y="14251"><tspan fill="rgb(0,0,0)" stroke="none">0</tspan></tspan></tspan></text>
 <text class="TextShape"><tspan class="TextParagraph" font-family="Liberation Sans, sans-serif" font-size="353px" font-weight="400"><tspan class="TextPosition" x="10296" y="12146"><tspan fill="rgb(0,0,0)" stroke="none">10</tspan></tspan></tspan></text>
 <text class="TextShape"><tspan class="TextParagraph" font-family="Liberation Sans, sans-serif" font-size="353px" font-weight="400"><tspan class="TextPosition" x="10296" y="10042"><tspan fill="rgb(0,0,0)" stroke="none">20</tspan></tspan></tspan></text>
 <text class="TextShape"><tspan class="TextParagraph" font-family="Liberation Sans, sans-serif" font-size="353px" font-weight="400"><tspan class="TextPosition" x="10296" y="7938"><tspan fill="rgb(0,0,0)" stroke="none">30</tspan></tspan></tspan></text>
 <text class="TextShape"><tspan class="TextParagraph" font-family="Liberation Sans, sans-serif" font-size="353px" font-weight="400"><tspan class="TextPosition" x="10296" y="5834"><tspan fill="rgb(0,0,0)" stroke="none">40</tspan></tspan></tspan></text>
 <text class="TextShape"><tspan class="TextParagraph" font-family="Liberation Sans, sans-serif" font-size="353px" font-weight="400"><tspan class="TextPosition" x="10296" y="3730"><tspan fill="rgb(0,0,0)" stroke="none">50</tspan></tspan></tspan></text>
 <text class="TextShape"><tspan class="TextParagraph" font-family="Liberation Sans, sans-serif" font-size="353px" font-weight="400"><tspan class="TextPosition" x="26467" y="14251"><tspan fill="rgb(0,0,0)" stroke="none">20</tspan></tspan></tspan></text>
 <text class="TextShape"><tspan class="TextParagraph" font-family="Liberation Sans, sans-serif" font-size="353px" font-weight="400"><tspan class="TextPosition" x="26467" y="11978"><tspan fill="rgb(0,0,0)" stroke="none">30</tspan></tspan></tspan></text>
 <text class="TextShape"><tspan class="TextParagraph" font-family="Liberation Sans, sans-serif" font-size="353px" font-weight="400"><tspan class="TextPosition" x="26467" y="9706"><tspan fill="rgb(0,0,0)" stroke="none">40</tspan></tspan></tspan></text>
 <text class="TextShape"><tspan class="TextParagraph" font-family="Liberation Sans, sans-serif" font-size="353px" font-weight="400"><tspan class="TextPosition" x="26467" y="7433"><tspan fill="rgb(0,0,0)" stroke="none">50</tspan></tspan></tspan></text>
 <text class="TextShape"><tspan class="TextParagraph" font-family="Liberation Sans, sans-serif" font-size="353px" font-weight="400"><tspan class="TextPosition" x="26467" y="5161"><tspan fill="rgb(0,0,0)" stroke="none">60</tspan></tspan></tspan></text>
 <text class="TextShape"><tspan class="TextParagraph" font-family="Liberation Sans, sans-serif" font-size="353px" font-weight="400"><tspan class="TextPosition" x="26467" y="2888"><tspan fill="rgb(0,0,0)" stroke="none">70</tspan></tspan></tspan></text>
 <text class="TextShape"><tspan class="TextParagraph" font-family="Liberation Sans, sans-serif" font-size="459px" font-weight="400"><tspan class="TextPosition" x="12994" y="1000"><tspan fill="rgb(0,0,0)" stroke="none">L4S: CUBIC(50Mbps) vs CUBIC(40Mbps/ECT1 responsive)</tspan></tspan></tspan></text>
 <text class="TextShape"><tspan class="TextParagraph" font-family="Liberation Sans, sans-serif" font-size="388px" font-weight="400"><tspan class="TextPosition" x="15505" y="2049"><tspan fill="rgb(0,0,0)" stroke="none">qdisc:dualpi2 bandwidth:50Mbit rtt:20ms</tspan></tspan></tspan></text>
 <path fill="rgb(221,221,221)" stroke="none" d="M 4388,9657 L 210,9657 210,6570 8567,6570 8567,9657 4388,9657 Z"/>
 <path fill="none" stroke="rgb(255,66,14)" stroke-width="20" stroke-linejoin="round" d="M 326,7366 L 1126,7366"/>
 <path fill="none" stroke="rgb(0,132,209)" stroke-width="20" stroke-linejoin="round" d="M 326,7864 L 1126,7864"/>
 <path fill="none" stroke="rgb(153,102,153)" stroke-width="20" stroke-linejoin="round" d="M 326,8859 L 1126,8859"/>
 <path fill="none" stroke="rgb(255,149,14)" stroke-width="20" stroke-linejoin="round" d="M 326,9357 L 1126,9357"/>
 <text class="TextShape"><tspan class="TextParagraph" font-family="Liberation Sans, sans-serif" font-size="353px" font-weight="400"><tspan class="TextPosition" x="1226" y="6988"><tspan fill="rgb(0,0,0)" stroke="none">Left axis (Mbps)</tspan></tspan></tspan></text>
 <text class="TextShape"><tspan class="TextParagraph" font-family="Liberation Sans, sans-serif" font-size="353px" font-weight="400"><tspan class="TextPosition" x="1226" y="7486"><tspan fill="rgb(0,0,0)" stroke="none">CUBIC(50Mbps) delivery rate</tspan></tspan></tspan></text>
 <text class="TextShape"><tspan class="TextParagraph" font-family="Liberation Sans, sans-serif" font-size="353px" font-weight="400"><tspan class="TextPosition" x="1226" y="7984"><tspan fill="rgb(0,0,0)" stroke="none">CUBIC(40Mbps/ECT1 responsive) delivery rate</tspan></tspan></tspan></text>
 <text class="TextShape"><tspan class="TextParagraph" font-family="Liberation Sans, sans-serif" font-size="353px" font-weight="400"><tspan class="TextPosition" x="1226" y="8481"><tspan fill="rgb(0,0,0)" stroke="none">Right axis (ms)</tspan></tspan></tspan></text>
 <text class="TextShape"><tspan class="TextParagraph" font-family="Liberation Sans, sans-serif" font-size="353px" font-weight="400"><tspan class="TextPosition" x="1226" y="8979"><tspan fill="rgb(0,0,0)" stroke="none">CUBIC(50Mbps) TCP RTT</tspan></tspan></tspan></text>
 <text class="TextShape"><tspan class="TextParagraph" font-family="Liberation Sans, sans-serif" font-size="353px" font-weight="400"><tspan class="TextPosition" x="1226" y="9477"><tspan fill="rgb(0,0,0)" stroke="none">CUBIC(40Mbps/ECT1 responsive) TCP RTT</tspan></tspan></tspan></text>
 <text class="TextShape"><tspan class="TextParagraph" font-family="Liberation Sans, sans-serif" font-size="423px" font-weight="400"><tspan class="TextPosition" x="17799" y="15600"><tspan fill="rgb(0,0,0)" stroke="none">Time (s)</tspan></tspan></tspan></text>
 <text class="TextShape" transform="rotate(-90 9515 9189)"><tspan class="TextParagraph" font-family="Liberation Sans, sans-serif" font-size="423px" font-weight="400"><tspan class="TextPosition" x="9515" y="9189"><tspan fill="rgb(0,0,0)" stroke="none">Mbps</tspan></tspan></tspan></text>
 <text class="TextShape" transform="rotate(-90 27910 8951)"><tspan class="TextParagraph" font-family="Liberation Sans, sans-serif" font-size="423px" font-weight="400"><tspan class="TextPosition" x="27910" y="8951"><tspan fill="rgb(0,0,0)" stroke="none">ms</tspan></tspan></tspan></text>
</svg>