<?xml version="1.0" encoding="UTF-8"?>
<!DOCTYPE svg PUBLIC "-//W3C//DTD SVG 1.1//EN" "http://www.w3.org/Graphics/SVG/1.1/DTD/svg11.dtd">
<svg width="289mm" height="163mm" viewBox="0 0 28900 16300" version="1.1" xmlns="http://www.w3.org/2000/svg" xmlns:xlink="http://www.w3.org/1999/xlink" stroke-width="28.222" stroke-linejoin="round" xml:space="preserve">
 <path fill="rgb(255,255,255)" stroke="none" d="M 14472,16280 L 0,16280 0,0 28944,0 28944,16280 14472,16280 Z"/>
 <path fill="rgb(221,221,221)" stroke="none" d="M 18449,14322 L 10783,14322 10783,2770 26115,2770 26115,14322 18449,14322 Z"/>
 <path fill="none" stroke="rgb(179,179,179)" stroke-linejoin="round" d="M 18449,14322 L 10783,14322 10783,2770 26115,2770 26115,14322 18449,14322 Z"/>
 <path fill="none" stroke="rgb(179,179,179)" stroke-linejoin="round" d="M 26115,14321 L 10783,14321"/>
 <path fill="none" stroke="rgb(179,179,179)" stroke-linejoin="round" d="M 26115,11432 L 10783,11432"/>
 <path fill="none" stroke="rgb(179,179,179)" stroke-linejoin="round" d="M 26115,8544 L 10783,8544"/>
 <path fill="none" stroke="rgb(179,179,179)" stroke-linejoin="round" d="M 26115,5657 L 10783,5657"/>
 <path fill="none" stroke="rgb(179,179,179)" stroke-linejoin="round" d="M 26115,2769 L 10783,2769"/>
 <path fill="none" stroke="rgb(179,179,179)" stroke-linejoin="round" d="M 10783,14471 L 10783,14321"/>
 <path fill="none" stroke="rgb(179,179,179)" stroke-linejoin="round" d="M 10783,14471 L 10783,14321"/>
 <path fill="none" stroke="rgb(179,179,179)" stroke-linejoin="round" d="M 12973,14471 L 12973,14321"/>
 <path fill="none" stroke="rgb(179,179,179)" stroke-linejoin="round" d="M 12973,14471 L 12973,14321"/>
 <path fill="none" stroke="rgb(179,179,179)" stroke-linejoin="round" d="M 15162,14471 L 15162,14321"/>
 <path fill="none" stroke="rgb(179,179,179)" stroke-linejoin="round" d="M 15162,14471 L 15162,14321"/>
 <path fill="none" stroke="rgb(179,179,179)" stroke-linejoin="round" d="M 17353,14471 L 17353,14321"/>
 <path fill="none" stroke="rgb(179,179,179)" stroke-linejoin="round" d="M 17353,14471 L 17353,14321"/>
 <path fill="none" stroke="rgb(179,179,179)" stroke-linejoin="round" d="M 19543,14471 L 19543,14321"/>
 <path fill="none" stroke="rgb(179,179,179)" stroke-linejoin="round" d="M 19543,14471 L 19543,14321"/>
 <path fill="none" stroke="rgb(179,179,179)" stroke-linejoin="round" d="M 21734,14471 L 21734,14321"/>
 <path fill="none" stroke="rgb(179,179,179)" stroke-linejoin="round" d="M 21734,14471 L 21734,14321"/>
 <path fill="none" stroke="rgb(179,179,179)" stroke-linejoin="round" d="M 23924,14471 L 23924,14321"/>
 <path fill="none" stroke="rgb(179,179,179)" stroke-linejoin="round" d="M 23924,14471 L 23924,14321"/>
 <path fill="none" stroke="rgb(179,179,179)" stroke-linejoin="round" d="M 26115,14471 L 26115,14321"/>
 <path fill="none" stroke="rgb(179,179,179)" stroke-linejoin="round" d="M 26115,14471 L 26115,14321"/>
 <path fill="none" stroke="rgb(179,179,179)" stroke-linejoin="round" d="M 10783,14321 L 26115,14321"/>
 <path fill="none" stroke="rgb(179,179,179)" stroke-linejoin="round" d="M 10633,14321 L 10783,14321"/>
 <path fill="none" stroke="rgb(179,179,179)" stroke-linejoin="round" d="M 10633,14321 L 10783,14321"/>
 <path fill="none" stroke="rgb(179,179,179)" stroke-linejoin="round" d="M 10633,11432 L 10783,11432"/>
 <path fill="none" stroke="rgb(179,179,179)" stroke-linejoin="round" d="M 10633,11432 L 10783,11432"/>
 <path fill="none" stroke="rgb(179,179,179)" stroke-linejoin="round" d="M 10633,8544 L 10783,8544"/>
 <path fill="none" stroke="rgb(179,179,179)" stroke-linejoin="round" d="M 10633,8544 L 10783,8544"/>
 <path fill="none" stroke="rgb(179,179,179)" stroke-linejoin="round" d="M 10633,5657 L 10783,5657"/>
 <path fill="none" stroke="rgb(179,179,179)" stroke-linejoin="round" d="M 10633,5657 L 10783,5657"/>
 <path fill="none" stroke="rgb(179,179,179)" stroke-linejoin="round" d="M 10633,2769 L 10783,2769"/>
 <path fill="none" stroke="rgb(179,179,179)" stroke-linejoin="round" d="M 10633,2769 L 10783,2769"/>
 <path fill="none" stroke="rgb(179,179,179)" stroke-linejoin="round" d="M 10783,14321 L 10783,2769"/>
 <path fill="none" stroke="rgb(255,66,14)" stroke-width="30" stroke-linejoin="round" d="M 10826,14321 L 10848,14321 10870,14321 10892,14321 10914,14321 10936,14321 10958,14321 10980,14321 11002,14321 11023,14321 11045,14187 11067,14321 11089,14321 11111,14321 11133,14321 11155,14321 11177,14321 11199,14321 11221,14321 11242,14321 11264,14321 11286,14321 11308,14321 11330,14321 11352,14321 11374,14321 11396,14321 11418,14321 11440,14321 11462,14321 11483,14321 11505,14321 11527,14321 11549,14187 11571,14321 11593,14321 11615,14321 11637,14321 11659,14321 11681,14321 11702,14321 11724,14321 11746,14321 11768,14321 11790,14321 11812,14321 11834,14321 11856,14321 11878,14321 11900,14321 11922,14321 11943,14321 11965,14321 11987,14321 12009,14321 12031,14321 12053,14321 12075,14321 12097,14321 12119,14321 12141,14321 12162,14321 12184,14321 12206,14321 12228,14321 12250,14321 12272,14321 12294,14321 12316,14321 12338,14188 12360,14321 12382,14321 12403,14321 12425,14321 12447,14321 12469,14321 12491,14321 12513,14321 12535,14321 12557,14321 12579,14321 12601,14321 12622,14321 12644,14321 12666,14321 12688,14321 12710,14321 12732,14321 12754,14187 12776,14321 12798,14321 12820,14321 12842,14321 12863,14321 12885,14321 12907,14321 12929,14321 12951,14321 12973,14321 12995,14321 13017,14321 13039,14321 13061,14321 13082,14321 13104,14321 13126,14321 13148,14321 13170,14321 13192,14321 13214,14321 13236,14321 13258,14321 13280,14321 13301,14321 13323,14321 13345,14179 13367,14321 13389,14321 13411,14321 13433,14321 13455,14321 13477,14321 13499,14321 13521,14321 13542,14321 13564,14321 13586,14321 13608,14321 13630,14321 13652,14321 13674,14321 13696,14321 13718,14321 13740,14321 13761,14321 13783,14321 13805,14321 13827,14321 13849,14321 13871,14321 13893,14321 13915,14321 13937,14321 13959,14321 13981,14321 14002,14321 14024,14321 14046,14182 14068,14183 14090,14321 14112,14321 14134,14321 14156,14321 14178,14321 14200,14321 14221,14321 14243,14321 14265,14321 14287,14321 14309,14321 14331,14321 14353,14321 14375,14166 14397,14321 14419,14321 14441,14321 14462,14321 14483,14321 14505,14321 14527,14321 14549,14321 14571,14321 14593,14321 14615,14321 14637,14321 14659,14321 14680,14321 14702,14321 14724,14321 14746,14321 14768,14321 14790,14321 14812,14321 14834,14321 14856,14321 14878,14321 14900,14321 14921,14321 14943,14321 14965,14321 14987,14321 15009,14321 15031,14321 15053,14321 15075,14321 15097,14321 15119,14170 15140,14321 15162,14321 15184,14321 15206,14321 15228,14321 15250,14321 15272,14321 15294,14321 15316,14154 15338,14321 15359,14321 15381,14321 15403,14321 15425,14321 15447,14321 15469,14321 15491,14321 15513,14158 15535,14321 15557,14321 15579,14321 15600,14321 15622,14321 15644,14321 15666,14321 15688,14321 15710,14321 15732,14321 15754,14321 15776,14321 15798,14321 15819,14321 15841,14321 15863,14321 15885,14321 15907,14321 15929,14321 15951,14321 15973,14321 15995,14321 16017,14321 16039,14321 16060,14321 16082,14321 16104,14321 16126,14321 16148,14321 16170,14321 16192,14321 16214,14321 16236,14321 16258,14321 16279,14321 16301,14321 16323,14321 16345,14321 16367,14321 16389,14321 16411,14321 16433,14321 16455,14321 16477,14321 16499,14321 16520,14321 16542,14321 16564,14321 16586,14321 16608,14321 16630,14183 16652,14321 16674,14321 16696,14321 16718,14321 16739,14321 16761,14321 16783,14321 16805,14321 16827,14321 16849,14321 16871,14321 16893,14321 16915,14321 16937,14321 16959,14321 16980,14321 17002,14321 17024,14321 17046,14175 17068,14321 17090,14321 17112,14321 17134,14321 17156,14321 17178,14321 17199,14321 17221,14321 17243,14321 17265,14321 17287,14321 17309,14321 17331,14321 17353,14321 17375,14321 17397,14321 17418,14321 17440,14321 17462,14321 17484,14321 17506,14321 17528,14321 17550,14321 17572,14321 17594,14174 17616,14321 17638,14321 17659,14321 17681,14321 17703,14321 17725,14321 17747,14321 17769,14321 17791,14321 17813,14321 17835,14321 17857,14321 17878,14321 17900,14321 17922,14321 17944,14321 17966,14321 17988,14321 18010,14321 18032,14321 18054,14321 18076,14321 18098,14321 18119,14321 18141,14321 18163,14321 18185,14321 18207,14321 18229,14321 18251,14321 18273,14321 18295,14321 18317,14321 18338,14180 18360,14321 18382,14321 18404,14321 18426,14321 18448,14321 18470,14321 18492,14321 18514,14321 18536,14321 18558,14321 18579,14321 18601,14321 18623,14321 18645,14321 18667,14321 18689,14321 18711,14321 18733,14321 18755,14321 18777,14321 18798,14321 18820,14321 18842,14321 18864,14321 18886,14180 18908,14321 18930,14321 18952,14321 18974,14321 18996,14321 19018,14321 19039,14321 19061,14321 19083,14321 19105,14321 19127,14321 19149,14321 19171,14321 19193,14321 19215,14321 19237,14321 19258,14321 19280,14321 19302,14321 19324,14321 19346,14321 19368,14321 19390,14321 19412,14321 19434,14321 19456,14321 19478,14321 19499,14321 19521,14321 19543,14321 19565,14321 19587,14321 19609,14321 19631,14321 19653,14321 19675,14321 19697,14321 19718,14321 19740,14321 19762,14321 19784,14181 19806,14321 19828,14321 19850,14321 19872,14321 19894,14321 19916,14172 19937,14321 19959,14321 19981,14321 20003,14321 20025,14321 20047,14321 20069,14321 20091,14321 20113,14321 20135,14321 20157,14321 20178,14321 20200,14321 20222,14150 20244,14321 20266,14321 20288,14321 20310,14321 20332,14321 20354,14321 20376,14321 20397,14321 20419,14321 20441,14321 20463,14321 20485,14321 20507,14321 20529,14321 20551,14321 20573,14321 20595,14321 20617,14321 20638,14321 20660,14321 20682,14321 20704,14321 20726,14321 20748,14321 20770,14321 20792,14321 20814,14321 20836,14321 20857,14321 20879,14321 20901,14321 20923,14321 20945,14321 20967,14321 20989,14321 21011,14321 21033,14321 21055,14321 21077,14321 21098,14321 21120,14321 21142,14321 21164,14321 21186,14177 21208,14321 21230,14321 21252,14321 21274,14321 21296,14321 21317,14321 21339,14321 21361,14321 21383,14321 21405,14321 21427,14321 21449,14321 21471,14321 21493,14321 21515,14321 21537,14321 21558,14321 21580,14321 21602,14321 21624,14321 21646,14321 21668,14178 21690,14321 21712,14321 21734,14321 21756,14321 21777,14321 21799,14321 21821,14321 21843,14321 21865,14321 21887,14321 21909,14321 21931,14321 21953,14321 21975,14321 21996,14321 22018,14321 22040,14321 22062,14321 22084,14321 22106,14321 22128,14321 22150,14321 22172,14321 22194,14321 22216,14321 22237,14321 22259,14321 22281,14321 22303,14321 22325,14321 22347,14321 22369,14321 22391,14321 22413,14321 22435,14182 22456,14321 22478,14321 22500,14321 22522,14321 22544,14321 22566,14321 22588,14321 22610,14321 22632,14321 22654,14321 22676,14321 22697,14321 22719,14321 22741,14321 22763,14321 22785,14321 22807,14321 22829,14321 22851,14321 22873,14321 22895,14321 22916,14321 22938,14321 22960,14321 22982,14321 23004,14321 23026,14321 23048,14321 23070,14183 23092,14321 23114,14321 23136,14321 23157,14321 23179,14321 23201,14321 23223,14321 23245,14321 23267,14321 23289,14321 23311,14321 23333,14321 23355,14321 23376,14321 23398,14321 23420,14321 23442,14321 23464,14321 23486,14321 23508,14321 23530,14321 23552,14321 23574,14321 23596,14321 23617,14321 23639,14321 23661,14321 23683,14179 23705,14321 23727,14321 23749,14321 23771,14321 23793,14321 23815,14321 23836,14321 23858,14321 23880,14321 23902,14321 23924,14321"/>
 <path fill="none" stroke="rgb(0,132,209)" stroke-width="40" stroke-linejoin="round" d="M 12995,3491 L 13017,14321 13039,14321 13061,14321 13082,12977 13104,14321 13126,12670 13148,14321 13170,12800 13192,12515 13214,14321 13236,12622 13258,3819 13280,14321 13301,9507 13323,14321 13345,12010 13367,14321 13389,14321 13411,14321 13433,14321 13455,14321 13477,13418 13499,14321 13521,14321 13542,12257 13564,14321 13586,12427 13608,14321 13630,14321 13652,13495 13674,11695 13696,14321 13718,14321 13740,13037 13761,14321 13783,12839 13805,12622 13827,11914 13849,10923 13871,14321 13893,11695 13915,8819 13937,14321 13959,6620 13981,14321 14002,14321 14024,12181 14046,10923 14068,10194 14090,14321 14112,14321 14134,14321 14156,12945 14178,14321 14200,14321 14221,14321 14243,14321 14265,13404 14287,12977 14309,14321 14331,14321 14353,14321 14375,13389 14397,14321 14419,14321 14441,14321 14462,13693 14483,14321 14505,14321 14527,14321 14549,14321 14571,12977 14593,12858 14615,14321 14637,14321 14659,12961 14680,14321 14702,14321 14724,13458 14746,14321 14768,14321 14790,14321 14812,13540 14834,13445 14856,12716 14878,14321 14900,14321 14921,14321 14943,9069 14965,12622 14987,14321 15009,12329 15031,14321 15053,14321 15075,14321 15097,14321 15119,8544 15140,14321 15162,14321 15184,14321 15206,14321 15228,12716 15250,14321 15272,14321 15294,14321 15316,13671 15338,14321 15359,14321 15381,13607 15403,14321 15425,14321 15447,13325 15469,14321 15491,14321 15513,14321 15535,14321 15557,14321 15579,14321 15600,14321 15622,14321 15644,13471 15666,14321 15688,14321 15710,14321 15732,14321 15754,13289 15776,14321 15798,14321 15819,14321 15841,13307 15863,14321 15885,13827 15907,13458 15929,14321 15951,14321 15973,14321 15995,13598 16017,14321 16039,13418 16060,14321 16082,13325 16104,14321 16126,14321 16148,14321 16170,14321 16192,13719 16214,10855 16236,12457 16258,14321 16279,14321 16301,14321 16323,14321 16345,13270 16367,14321 16389,11111 16411,14321 16433,12800 16455,8345 16477,14321 16499,14321 16520,8730 16542,14321 16564,14321 16586,11280 16608,4275 16630,10469 16652,14321 16674,14321 16696,14321 16718,14321 16739,14321 16761,14321 16783,12596 16805,14321 16827,14321 16849,12646 16871,14321 16893,14321 16915,12800 16937,12395 16959,14321 16980,14321 17002,14321 17024,13270 17046,9637 17068,12257 17090,14321 17112,14321 17134,14321 17156,14321 17178,14321 17199,14321 17221,14321 17243,13037 17265,13418 17287,14321 17309,14321 17331,14321 17353,13657 17375,14321 17397,13540 17418,13188 17440,12876 17462,14321 17484,14321 17506,11862 17528,14321 17550,13251 17572,14321 17594,12876 17616,14321 17638,14321 17659,14321 17681,14321 17703,13404 17725,14321 17747,14321 17769,12570 17791,14321 17813,14321 17835,13270 17857,14321 17878,13418 17900,14321 17922,13325 17944,12945 17966,14321 17988,14321 18010,13188 18032,13065 18054,14321 18076,14321 18098,13358 18119,13307 18141,10290 18163,14321 18185,14321 18207,14321 18229,11358 18251,12670 18273,11570 18295,14321 18317,12515 18338,6444 18360,14321 18382,14321 18404,14321 18426,14321 18448,14321 18470,13404 18492,14321 18514,12912 18536,14321 18558,14321 18579,12362 18601,14321 18623,14321 18645,14321 18667,12487 18689,14321 18711,14321 18733,14321 18755,11862 18777,13065 18798,10710 18820,11914 18842,11111 18864,14321 18886,11695 18908,14321 18930,14321 18952,14321 18974,14321 18996,14321 19018,14321 19039,14321 19061,13518 19083,14321 19105,14321 19127,12912 19149,14321 19171,13580 19193,13251 19215,14321 19237,13251 19258,14321 19280,14321 19302,14321 19324,14321 19346,10710 19368,14321 19390,14321 19412,12181 19434,11280 19456,14321 19478,14321 19499,10594 19521,14321 19543,14321 19565,6787 19587,14321 19609,11570 19631,14321 19653,12099 19675,9069 19697,14321 19718,4006 19740,14321 19762,8544 19784,8240 19806,14321 19828,14321 19850,14321 19872,14321 19894,13341 19916,14321 19937,14321 19959,14321 19981,13251 20003,14321 20025,14321 20047,14321 20069,14321 20091,14321 20113,14321 20135,13839 20157,14321 20178,14321 20200,14321 20222,13719 20244,14321 20266,14321 20288,14321 20310,14321 20332,13770 20354,14321 20376,14321 20397,13847 20419,13495 20441,14321 20463,14321 20485,14321 20507,13607 20529,14321 20551,14321 20573,14321 20595,14321 20617,13022 20638,13432 20660,14321 20682,13458 20704,14321 20726,14321 20748,14321 20770,14321 20792,13641 20814,13307 20836,12839 20857,14321 20879,14321 20901,14321 20923,11358 20945,14321 20967,12670 20989,14321 21011,14321 21033,14321 21055,14321 21077,11333 21098,14321 21120,12515 21142,14321 21164,12670 21186,14321 21208,14321 21230,14321 21252,14321 21274,14321 21296,13471 21317,14321 21339,14321 21361,12622 21383,14321 21405,13518 21427,14321 21449,14321 21471,13495 21493,13037 21515,14321 21537,12876 21558,14321 21580,13008 21602,12570 21624,14321 21646,14321 21668,12395 21690,14321 21712,14321 21734,14321 21756,14321 21777,14321 21799,13471 21821,14321 21843,14321 21865,14321 21887,13518 21909,14321 21931,13374 21953,14321 21975,14321 21996,13570 22018,14321 22040,12515 22062,14321 22084,14321 22106,12362 22128,14321 22150,14321 22172,14321 22194,14321 22216,11772 22237,14321 22259,12912 22281,14321 22303,14321 22325,9988 22347,14321 22369,14321 22391,9297 22413,9507 22435,14321 22456,14321 22478,14321 22500,14321 22522,14321 22544,13418 22566,14321 22588,14321 22610,13432 22632,14321 22654,14321 22676,13507 22697,14321 22719,13418 22741,14321 22763,13037 22785,14321 22807,14321 22829,11170 22851,11432 22873,14321 22895,12329 22916,14321 22938,12099 22960,14321 22982,12257 23004,14321 23026,12570 23048,2769 23070,14321 23092,10194 23114,14321 23136,14321 23157,14321 23179,14321 23201,13307 23223,14321 23245,14321 23267,13341 23289,13065 23311,14321 23333,14321 23355,12945 23376,14321 23398,14321 23420,13142 23442,14321 23464,13270 23486,14321 23508,12945 23530,14321 23552,14321 23574,14321 23596,13165 23617,13117 23639,9877 23661,14321 23683,14321 23705,14321 23727,14321 23749,14321 23771,14321 23793,14321 23815,13598 23836,13518 23858,14321 23880,14321 23902,14321 23924,12759"/>
 <path fill="none" stroke="rgb(87,157,28)" stroke-width="80" stroke-linejoin="round" stroke-dasharray="158,102" d="M 10800,14321 L 10818,14321 10844,14321 10861,14321 10888,14321 10905,14321 10931,14321 10949,14321 10975,14321 10993,14321 11019,14321 11037,14321 11063,14321 11080,14321 11107,14321 11124,14321 11151,14321 11168,14321 11194,14321 11212,14321 11238,14321 11256,14321 11282,14321 11299,14321 11326,14321 11343,14321 11370,14321 11387,14321 11413,14321 11431,14321 11457,14321 11475,14321 11501,14321 11519,14321 11545,14321 11562,14321 11589,14321 11606,14321 11632,14321 11650,14321 11676,14321 11694,14321 11720,14321 11738,14321 11764,14321 11781,14321 11808,14321 11825,14321 11851,14321 11869,14321 11895,14321 11913,14321 11939,14321 11957,14321 11983,14321 12000,14321 12027,14321 12044,14321 12071,14321 12088,14321 12114,14321 12132,14321 12158,14321 12176,14321 12202,14321 12219,14321 12246,14321 12263,14321 12290,14321 12307,14321 12333,14321 12351,14321 12377,14321 12395,14321 12421,14321 12439,14321 12465,14321 12482,14321 12509,14321 12526,14321 12552,14321 12570,14321 12596,14321 12614,14321 12640,14321 12658,14321 12684,14321 12701,14321 12728,14321 12745,14321 12771,14321 12789,14321 12815,14321 12833,14321 12859,14321 12877,14321 12903,14321 12920,14321 12947,14321 12964,14321 12991,14321 13008,14321 13034,14321 13052,14321 13078,14321 13096,14321 13122,14321 13140,14321 13166,14321 13183,14321 13210,14321 13227,14321 13253,14321 13271,14321 13297,14321 13315,14321 13341,14321 13359,14321 13385,14321 13402,14321 13429,14321 13446,14321 13472,14321 13490,14321 13516,14321 13534,14321 13560,14321 13578,14321 13604,14321 13621,14321 13648,14321 13665,14321 13691,14321 13709,14321 13735,14321 13753,14321 13779,14321 13797,14321 13823,14321 13840,14321 13867,14321 13884,14321 13911,14321 13928,14321 13954,14321 13972,14321 13998,14321 14016,14321 14042,14321 14059,14321 14086,14321 14103,14321 14130,14321 14147,14321 14173,14321 14191,14321 14217,14321 14235,14321 14261,14321 14279,14321 14305,14321 14322,14321 14349,14321 14366,14321 14392,14321 14410,14321 14436,14321 14454,14321 14479,14321 14497,14321 14523,14321 14541,14321 14567,14321 14584,14321 14610,14321 14628,14321 14654,14321 14672,14321 14698,14321 14716,14321 14742,14321 14759,14321 14786,14321 14803,14321 14830,14321 14847,14321 14873,14321 14891,14321 14917,14321 14935,14321 14961,14321 14978,14321 15005,14321 15022,14321 15049,14321 15066,14321 15092,14321 15110,14321 15136,14321 15154,14321 15180,14321 15198,14321 15224,14321 15241,14321 15268,14321 15285,14321 15311,14321 15329,14321 15355,14321 15373,14321 15399,14321 15417,14321 15443,14321 15460,14321 15487,14321 15504,14321 15530,14321 15548,14321 15574,14321 15592,14321 15618,14321 15636,14321 15662,14321 15679,14321 15706,14321 15723,14321 15750,14321 15767,14321 15793,14321 15811,14321 15837,14321 15855,14321 15881,14321 15899,14321 15925,14321 15942,14321 15969,14321 15986,14321 16012,14321 16030,14321 16056,14321 16074,14321 16100,14321 16118,14321 16144,14321 16161,14321 16188,14321 16205,14321 16231,14321 16249,14321 16275,14321 16293,14321 16319,14321 16337,14321 16363,14321 16380,14321 16407,14321 16424,14321 16450,14321 16468,14321 16494,14321 16512,14321 16538,14321 16556,14321 16582,14321 16599,14321 16626,14321 16643,14321 16670,14321 16687,14321 16713,14321 16731,14321 16757,14321 16775,14321 16801,14321 16818,14321 16845,14321 16862,14321 16889,14321 16906,14321 16933,14321 16950,14321 16976,14321 16994,14321 17020,14321 17038,14321 17064,14321 17081,14321 17108,14321 17125,14321 17151,14321 17169,14321 17195,14321 17213,14321 17239,14321 17257,14321 17283,14321 17300,14321 17327,14321 17344,14321 17370,14321 17388,14321 17414,14321 17432,14321 17458,14321 17476,14321 17502,14321 17519,14321 17546,14321 17563,14321 17590,14321 17607,14321 17633,14321 17651,14321 17677,14321 17695,14321 17721,14321 17739,14321 17765,14321 17782,14321 17809,14321 17826,14321 17852,14321 17870,14321 17896,14321 17914,14321 17940,14321 17958,14321 17984,14321 18001,14321 18028,14321 18045,14321 18071,14321 18089,14321 18115,14321 18133,14321 18159,14321 18177,14321 18203,14321 18220,14321 18247,14321 18264,14321 18291,14321 18308,14321 18334,14321 18352,14321 18378,14321 18396,14321 18422,14321 18439,14321 18466,14321 18483,14321 18510,14321 18527,14321 18553,14321 18571,14321 18597,14321 18615,14321 18641,14321 18658,14321 18685,14321 18702,14321 18729,14321 18746,14321 18772,14321 18790,14321 18816,14321 18834,14321 18860,14321 18878,14321 18904,14321 18921,14321 18948,14321 18965,14321 18991,14321 19009,14321 19035,14321 19053,14321 19079,14321 19097,14321 19123,14321 19141,14321 19167,14321 19184,14321 19210,14321 19228,14321 19254,14321 19272,14321 19298,14321 19316,14321 19342,14321 19359,14321 19386,14321 19403,14321 19430,14321 19447,14321 19473,14321 19491,14321 19517,14321 19535,14321 19561,14321 19578,14321 19605,14321 19622,14321 19649,14321 19666,14321 19692,14321 19710,14321 19736,14321 19754,14321 19780,14321 19798,14321 19824,14321 19841,14321 19868,14321 19885,14321 19911,14321 19929,14321 19955,14321 19973,14321 19999,14321 20017,14321 20043,14321 20061,14321 20087,14321 20104,14321 20130,14321 20148,14321 20174,14321 20192,14321 20218,14321 20236,14321 20262,14321 20279,14321 20306,14321 20323,14321 20350,14321 20367,14321 20393,14321 20411,14321 20437,14321 20455,14321 20481,14321 20499,14321 20525,14321 20542,14321 20569,14321 20586,14321 20612,14321 20630,14321 20656,14321 20674,14321 20700,14321 20718,14321 20744,14321 20761,14321 20788,14321 20805,14321 20831,14321 20849,14321 20875,14321 20893,14321 20919,14321 20937,14321 20963,14321 20980,14321 21007,14321 21024,14321 21050,14321 21068,14321 21094,14321 21112,14321 21138,14321 21156,14321 21182,14321 21199,14321 21226,14321 21243,14321 21270,14321 21287,14321 21313,14321 21331,14321 21357,14321 21375,14321 21401,14321 21419,14321 21445,14321 21462,14321 21489,14321 21506,14321 21532,14321 21550,14321 21576,14321 21594,14321 21620,14321 21638,14321 21664,14321 21681,14321 21708,14321 21725,14321 21751,14321 21769,14321 21795,14321 21813,14321 21839,14321 21857,14321 21883,14321 21900,14321 21927,14321 21944,14321 21970,14321 21988,14321 22014,14321 22032,14321 22058,14321 22076,14321 22102,14321 22119,14321 22146,14321 22163,14321 22190,14321 22207,14321 22233,14321 22251,14321 22277,14321 22295,14321 22321,14321 22339,14321 22365,14321 22382,14321 22409,14321 22426,14321 22453,14321 22470,14321 22496,14321 22514,14321 22540,14321 22558,14321 22584,14321 22601,14321 22628,14321 22645,14321 22671,14321 22689,14321 22715,14321 22733,14321 22759,14321 22777,14321 22803,14321 22820,14321 22847,14321 22864,14321 22890,14321 22908,14321 22934,14321 22952,14321 22978,14321 22996,14321 23022,14321 23039,14321 23066,14321 23083,14321 23110,14321 23127,14321 23153,14321 23171,14321 23197,14321 23215,14321 23241,14321 23258,14321 23285,14321 23302,14321 23329,14321 23346,14321 23372,14321 23390,14321 23416,14321 23434,14321 23460,14321 23478,14321 23504,14321 23521,14321 23548,14321 23565,14321 23591,14321 23609,14321 23635,14321 23653,14321 23679,14321 23697,14321 23723,14321 23740,14321 23767,14321 23784,14321 23810,14321 23828,14321 23854,14321 23872,14321 23898,14321 23916,14321 23942,14321"/>
 <text class="TextShape"><tspan class="TextParagraph" font-family="Liberation Sans, sans-serif" font-size="353px" font-weight="400"><tspan class="TextPosition" x="10690" y="14889"><tspan fill="rgb(0,0,0)" stroke="none">0</tspan></tspan></tspan></text>
 <text class="TextShape"><tspan class="TextParagraph" font-family="Liberation Sans, sans-serif" font-size="353px" font-weight="400"><tspan class="TextPosition" x="12788" y="14889"><tspan fill="rgb(0,0,0)" stroke="none">10</tspan></tspan></tspan></text>
 <text class="TextShape"><tspan class="TextParagraph" font-family="Liberation Sans, sans-serif" font-size="353px" font-weight="400"><tspan class="TextPosition" x="14978" y="14889"><tspan fill="rgb(0,0,0)" stroke="none">20</tspan></tspan></tspan></text>
 <text class="TextShape"><tspan class="TextParagraph" font-family="Liberation Sans, sans-serif" font-size="353px" font-weight="400"><tspan class="TextPosition" x="17169" y="14889"><tspan fill="rgb(0,0,0)" stroke="none">30</tspan></tspan></tspan></text>
 <text class="TextShape"><tspan class="TextParagraph" font-family="Liberation Sans, sans-serif" font-size="353px" font-weight="400"><tspan class="TextPosition" x="19359" y="14889"><tspan fill="rgb(0,0,0)" stroke="none">40</tspan></tspan></tspan></text>
 <text class="TextShape"><tspan class="TextParagraph" font-family="Liberation Sans, sans-serif" font-size="353px" font-weight="400"><tspan class="TextPosition" x="21550" y="14889"><tspan fill="rgb(0,0,0)" stroke="none">50</tspan></tspan></tspan></text>
 <text class="TextShape"><tspan class="TextParagraph" font-family="Liberation Sans, sans-serif" font-size="353px" font-weight="400"><tspan class="TextPosition" x="23740" y="14889"><tspan fill="rgb(0,0,0)" stroke="none">60</tspan></tspan></tspan></text>
 <text class="TextShape"><tspan class="TextParagraph" font-family="Liberation Sans, sans-serif" font-size="353px" font-weight="400"><tspan class="TextPosition" x="25931" y="14889"><tspan fill="rgb(0,0,0)" stroke="none">70</tspan></tspan></tspan></text>
 <text class="TextShape"><tspan class="TextParagraph" font-family="Liberation Sans, sans-serif" font-size="353px" font-weight="400"><tspan class="TextPosition" x="10348" y="14442"><tspan fill="rgb(0,0,0)" stroke="none">0</tspan></tspan></tspan></text>
 <text class="TextShape"><tspan class="TextParagraph" font-family="Liberation Sans, sans-serif" font-size="353px" font-weight="400"><tspan class="TextPosition" x="10348" y="11553"><tspan fill="rgb(0,0,0)" stroke="none">5</tspan></tspan></tspan></text>
 <text class="TextShape"><tspan class="TextParagraph" font-family="Liberation Sans, sans-serif" font-size="353px" font-weight="400"><tspan class="TextPosition" x="10163" y="8665"><tspan fill="rgb(0,0,0)" stroke="none">10</tspan></tspan></tspan></text>
 <text class="TextShape"><tspan class="TextParagraph" font-family="Liberation Sans, sans-serif" font-size="353px" font-weight="400"><tspan class="TextPosition" x="10163" y="5777"><tspan fill="rgb(0,0,0)" stroke="none">15</tspan></tspan></tspan></text>
 <text class="TextShape"><tspan class="TextParagraph" font-family="Liberation Sans, sans-serif" font-size="353px" font-weight="400"><tspan class="TextPosition" x="10163" y="2889"><tspan fill="rgb(0,0,0)" stroke="none">20</tspan></tspan></tspan></text>
 <text class="TextShape"><tspan class="TextParagraph" font-family="Liberation Sans, sans-serif" font-size="459px" font-weight="400"><tspan class="TextPosition" x="13193" y="1001"><tspan fill="rgb(0,0,0)" stroke="none">L4S: CUBIC(50Mbps) vs CUBIC(40Mbps/ECT1 responsive)</tspan></tspan></tspan></text>
 <text class="TextShape"><tspan class="TextParagraph" font-family="Liberation Sans, sans-serif" font-size="388px" font-weight="400"><tspan class="TextPosition" x="15134" y="2051"><tspan fill="rgb(0,0,0)" stroke="none">qdisc:dualpi2 bandwidth:50Mbit rtt:20ms</tspan></tspan></tspan></text>
 <path fill="rgb(221,221,221)" stroke="none" d="M 3135,8936 L 210,8936 210,7343 6060,7343 6060,8936 3135,8936 Z"/>
 <path fill="none" stroke="rgb(87,157,28)" stroke-width="80" stroke-linejoin="round" stroke-dasharray="158,102" d="M 326,7641 L 1926,7641"/>
 <path fill="none" stroke="rgb(0,132,209)" stroke-width="40" stroke-linejoin="round" d="M 326,8139 L 1926,8139"/>
 <path fill="none" stroke="rgb(255,66,14)" stroke-width="30" stroke-linejoin="round" d="M 326,8636 L 1926,8636"/>
 <text class="TextShape"><tspan class="TextParagraph" font-family="Liberation Sans, sans-serif" font-size="353px" font-weight="400"><tspan class="TextPosition" x="2026" y="7761"><tspan fill="rgb(0,0,0)" stroke="none">CE mark prob (L native)</tspan></tspan></tspan></text>
 <text class="TextShape"><tspan class="TextParagraph" font-family="Liberation Sans, sans-serif" font-size="353px" font-weight="400"><tspan class="TextPosition" x="2026" y="8258"><tspan fill="rgb(0,0,0)" stroke="none">CE mark prob (L coupled)</tspan></tspan></tspan></text>
 <text class="TextShape"><tspan class="TextParagraph" font-family="Liberation Sans, sans-serif" font-size="353px" font-weight="400"><tspan class="TextPosition" x="2026" y="8756"><tspan fill="rgb(0,0,0)" stroke="none">CE mark prob (C)</tspan></tspan></tspan></text>
 <text class="TextShape"><tspan class="TextParagraph" font-family="Liberation Sans, sans-serif" font-size="423px" font-weight="400"><tspan class="TextPosition" x="17464" y="15792"><tspan fill="rgb(0,0,0)" stroke="none">Time (s)</tspan></tspan></tspan></text>
 <text class="TextShape" transform="rotate(-90 9377 9589)"><tspan class="TextParagraph" font-family="Liberation Sans, sans-serif" font-size="423px" font-weight="400"><tspan class="TextPosition" x="9377" y="9589"><tspan fill="rgb(0,0,0)" stroke="none">Prob (%)</tspan></tspan></tspan></text>
</svg>