<?xml version="1.0" encoding="UTF-8"?>
<!DOCTYPE svg PUBLIC "-//W3C//DTD SVG 1.1//EN" "http://www.w3.org/Graphics/SVG/1.1/DTD/svg11.dtd">
<svg width="288mm" height="162mm" viewBox="0 0 28800 16200" version="1.1" xmlns="http://www.w3.org/2000/svg" xmlns:xlink="http://www.w3.org/1999/xlink" stroke-width="28.222" stroke-linejoin="round" xml:space="preserve">
 <path fill="rgb(255,255,255)" stroke="none" d="M 14374,16170 L 0,16170 0,0 28748,0 28748,16170 14374,16170 Z"/>
 <path fill="rgb(221,221,221)" stroke="none" d="M 18674,14075 L 11076,14075 11076,2766 26273,2766 26273,14075 18674,14075 Z"/>
 <path fill="none" stroke="rgb(179,179,179)" stroke-linejoin="round" d="M 18674,14075 L 11076,14075 11076,2766 26273,2766 26273,14075 18674,14075 Z"/>
 <path fill="none" stroke="rgb(179,179,179)" stroke-linejoin="round" d="M 26273,14074 L 11076,14074"/>
 <path fill="none" stroke="rgb(179,179,179)" stroke-linejoin="round" d="M 26273,11979 L 11076,11979"/>
 <path fill="none" stroke="rgb(179,179,179)" stroke-linejoin="round" d="M 26273,9885 L 11076,9885"/>
 <path fill="none" stroke="rgb(179,179,179)" stroke-linejoin="round" d="M 26273,7791 L 11076,7791"/>
 <path fill="none" stroke="rgb(179,179,179)" stroke-linejoin="round" d="M 26273,5697 L 11076,5697"/>
 <path fill="none" stroke="rgb(179,179,179)" stroke-linejoin="round" d="M 26273,3602 L 11076,3602"/>
 <path fill="none" stroke="rgb(179,179,179)" stroke-linejoin="round" d="M 11076,14224 L 11076,14074"/>
 <path fill="none" stroke="rgb(179,179,179)" stroke-linejoin="round" d="M 11076,14224 L 11076,14074"/>
 <path fill="none" stroke="rgb(179,179,179)" stroke-linejoin="round" d="M 13247,14224 L 13247,14074"/>
 <path fill="none" stroke="rgb(179,179,179)" stroke-linejoin="round" d="M 13247,14224 L 13247,14074"/>
 <path fill="none" stroke="rgb(179,179,179)" stroke-linejoin="round" d="M 15417,14224 L 15417,14074"/>
 <path fill="none" stroke="rgb(179,179,179)" stroke-linejoin="round" d="M 15417,14224 L 15417,14074"/>
 <path fill="none" stroke="rgb(179,179,179)" stroke-linejoin="round" d="M 17588,14224 L 17588,14074"/>
 <path fill="none" stroke="rgb(179,179,179)" stroke-linejoin="round" d="M 17588,14224 L 17588,14074"/>
 <path fill="none" stroke="rgb(179,179,179)" stroke-linejoin="round" d="M 19759,14224 L 19759,14074"/>
 <path fill="none" stroke="rgb(179,179,179)" stroke-linejoin="round" d="M 19759,14224 L 19759,14074"/>
 <path fill="none" stroke="rgb(179,179,179)" stroke-linejoin="round" d="M 21930,14224 L 21930,14074"/>
 <path fill="none" stroke="rgb(179,179,179)" stroke-linejoin="round" d="M 21930,14224 L 21930,14074"/>
 <path fill="none" stroke="rgb(179,179,179)" stroke-linejoin="round" d="M 24101,14224 L 24101,14074"/>
 <path fill="none" stroke="rgb(179,179,179)" stroke-linejoin="round" d="M 24101,14224 L 24101,14074"/>
 <path fill="none" stroke="rgb(179,179,179)" stroke-linejoin="round" d="M 26273,14224 L 26273,14074"/>
 <path fill="none" stroke="rgb(179,179,179)" stroke-linejoin="round" d="M 26273,14224 L 26273,14074"/>
 <path fill="none" stroke="rgb(179,179,179)" stroke-linejoin="round" d="M 11076,14074 L 26273,14074"/>
 <path fill="none" stroke="rgb(179,179,179)" stroke-linejoin="round" d="M 10926,14074 L 11076,14074"/>
 <path fill="none" stroke="rgb(179,179,179)" stroke-linejoin="round" d="M 10926,14074 L 11076,14074"/>
 <path fill="none" stroke="rgb(179,179,179)" stroke-linejoin="round" d="M 10926,11979 L 11076,11979"/>
 <path fill="none" stroke="rgb(179,179,179)" stroke-linejoin="round" d="M 10926,11979 L 11076,11979"/>
 <path fill="none" stroke="rgb(179,179,179)" stroke-linejoin="round" d="M 10926,9885 L 11076,9885"/>
 <path fill="none" stroke="rgb(179,179,179)" stroke-linejoin="round" d="M 10926,9885 L 11076,9885"/>
 <path fill="none" stroke="rgb(179,179,179)" stroke-linejoin="round" d="M 10926,7791 L 11076,7791"/>
 <path fill="none" stroke="rgb(179,179,179)" stroke-linejoin="round" d="M 10926,7791 L 11076,7791"/>
 <path fill="none" stroke="rgb(179,179,179)" stroke-linejoin="round" d="M 10926,5697 L 11076,5697"/>
 <path fill="none" stroke="rgb(179,179,179)" stroke-linejoin="round" d="M 10926,5697 L 11076,5697"/>
 <path fill="none" stroke="rgb(179,179,179)" stroke-linejoin="round" d="M 10926,3602 L 11076,3602"/>
 <path fill="none" stroke="rgb(179,179,179)" stroke-linejoin="round" d="M 10926,3602 L 11076,3602"/>
 <path fill="none" stroke="rgb(179,179,179)" stroke-linejoin="round" d="M 11076,14074 L 11076,2765"/>
 <path fill="none" stroke="rgb(179,179,179)" stroke-linejoin="round" d="M 26423,14074 L 26273,14074"/>
 <path fill="none" stroke="rgb(179,179,179)" stroke-linejoin="round" d="M 26423,14074 L 26273,14074"/>
 <path fill="none" stroke="rgb(179,179,179)" stroke-linejoin="round" d="M 26423,11812 L 26273,11812"/>
 <path fill="none" stroke="rgb(179,179,179)" stroke-linejoin="round" d="M 26423,11812 L 26273,11812"/>
 <path fill="none" stroke="rgb(179,179,179)" stroke-linejoin="round" d="M 26423,9550 L 26273,9550"/>
 <path fill="none" stroke="rgb(179,179,179)" stroke-linejoin="round" d="M 26423,9550 L 26273,9550"/>
 <path fill="none" stroke="rgb(179,179,179)" stroke-linejoin="round" d="M 26423,7289 L 26273,7289"/>
 <path fill="none" stroke="rgb(179,179,179)" stroke-linejoin="round" d="M 26423,7289 L 26273,7289"/>
 <path fill="none" stroke="rgb(179,179,179)" stroke-linejoin="round" d="M 26423,5027 L 26273,5027"/>
 <path fill="none" stroke="rgb(179,179,179)" stroke-linejoin="round" d="M 26423,5027 L 26273,5027"/>
 <path fill="none" stroke="rgb(179,179,179)" stroke-linejoin="round" d="M 26423,2765 L 26273,2765"/>
 <path fill="none" stroke="rgb(179,179,179)" stroke-linejoin="round" d="M 26423,2765 L 26273,2765"/>
 <path fill="none" stroke="rgb(179,179,179)" stroke-linejoin="round" d="M 26273,14074 L 26273,2765"/>
 <path fill="none" stroke="rgb(255,149,14)" stroke-width="30" stroke-linejoin="round" d="M 13261,14074 L 13264,11160 13273,10519 13281,10339 13290,10008 13299,9858 13308,9726 13316,9699 13326,9877 13334,11284 13342,11858 13351,11752 13360,11535 13368,11576 13377,11415 13386,11303 13394,11083 13403,11077 13412,10921 13420,10608 13429,10612 13438,10465 13447,10391 13455,10234 13464,9945 13473,9860 13481,9716 13490,9562 13499,10619 13507,10921 13516,10804 13525,10476 13533,10190 13542,10012 13551,9764 13559,9565 13568,9250 13577,9104 13586,8812 13594,9469 13603,9682 13612,9329 13620,8993 13629,8777 13638,8521 13646,8310 13655,8836 13664,8689 13672,8290 13681,8147 13690,7845 13698,7583 13707,7352 13716,7303 13724,7842 13733,8395 13742,9234 13750,9965 13759,10532 13768,11286 13777,12098 13786,12691 13794,13101 13803,13327 13811,13388 13829,13370 13837,13207 13846,13125 13855,12983 13863,12827 13872,12592 13881,12471 13889,12293 13898,12196 13907,12683 13915,12870 13924,13139 13933,13161 13941,13218 13950,13161 13959,13047 13968,12909 13976,12707 13985,12555 13994,12448 14002,12297 14011,12124 14020,11917 14028,11751 14037,11492 14046,11333 14054,11184 14063,10992 14072,10834 14080,10753 14089,10583 14098,10439 14107,10202 14115,10033 14124,10015 14133,9835 14141,9666 14150,9549 14159,9384 14167,9237 14176,9149 14185,9001 14193,8877 14202,9296 14211,9661 14220,10079 14228,10223 14237,10395 14245,10538 14254,10609 14263,10625 14272,10672 14280,10611 14289,10508 14298,10459 14306,10288 14315,10182 14324,10533 14332,10822 14341,11241 14350,11455 14358,11601 14367,11730 14375,11774 14383,11798 14392,11678 14401,11550 14410,11478 14418,11367 14427,11290 14436,11161 14444,10868 14453,10750 14462,10739 14470,10475 14479,10573 14488,11075 14496,11436 14505,11541 14514,11727 14522,11820 14531,11800 14540,11712 14548,11689 14557,11546 14566,11480 14574,11393 14583,11239 14592,11161 14601,10993 14609,10889 14618,10665 14627,10496 14635,10317 14644,10201 14653,10023 14661,9944 14670,9792 14679,9644 14687,9465 14696,9358 14705,9222 14713,9056 14722,8920 14731,8892 14739,9419 14748,9784 14757,10108 14766,10363 14774,10491 14783,10573 14792,10631 14800,10540 14809,10579 14818,10548 14826,10846 14835,11319 14844,11646 14852,11867 14861,11971 14870,12029 14878,11989 14887,11982 14896,11928 14905,11835 14913,11677 14922,11540 14931,11384 14939,11152 14948,11035 14957,10887 14965,10764 14974,10536 14983,10414 14991,10348 15000,10193 15009,10007 15017,9895 15026,9781 15035,9602 15043,9458 15052,9326 15061,9169 15070,9076 15078,8988 15087,8845 15096,8662 15104,8554 15113,8413 15122,8301 15130,8197 15139,8059 15148,7993 15156,7895 15165,7773 15174,8039 15182,8420 15191,8824 15200,9164 15208,9274 15217,9506 15226,9575 15235,9624 15243,9635 15252,9689 15261,9855 15270,10485 15278,10863 15287,11136 15295,11832 15304,12448 15313,12986 15322,13083 15330,13250 15339,13250 15347,13889 15356,13980 15365,14004 15373,13965 15382,13920 15391,13899 15400,13730 15408,13567 15417,13407 15426,13270 15434,13108 15443,12858 15452,12693 15460,12516 15469,12253 15478,12147 15486,11919 15495,11672 15504,11593 15512,11431 15521,11113 15530,11045 15538,10874 15547,10761 15556,10615 15565,10483 15573,10251 15582,10141 15591,9992 15599,9789 15608,9781 15617,9588 15625,9426 15634,9342 15643,9149 15652,9063 15660,8922 15669,9039 15677,9715 15686,9948 15695,10167 15704,10371 15712,10513 15721,10526 15730,10566 15738,10505 15747,10545 15756,10423 15764,10423 15773,11040 15782,11283 15790,11603 15799,12017 15808,12009 15817,12100 15825,12095 15834,12030 15842,11960 15851,11860 15860,11728 15869,11538 15877,11374 15886,11190 15895,11061 15903,10938 15912,10790 15921,10697 15929,10543 15938,10308 15947,10188 15955,10086 15964,9925 15973,9755 15982,9655 15990,10227 15999,10577 16007,10796 16016,10968 16025,11111 16034,11174 16042,11183 16051,11180 16060,11151 16068,11118 16077,11014 16086,10844 16094,10721 16103,10594 16112,10466 16120,10347 16129,10201 16138,10074 16147,9923 16155,9792 16164,9642 16173,9470 16181,9377 16190,9214 16199,9167 16207,9019 16216,8935 16225,8743 16233,8638 16242,8457 16251,8367 16259,8277 16268,8156 16277,8081 16285,7977 16294,7728 16303,7671 16311,8091 16320,8626 16329,9025 16337,9242 16346,10060 16355,10542 16364,11234 16372,12078 16381,12476 16390,13085 16398,13260 16407,13374 16416,13373 16424,13385 16433,13270 16442,13103 16450,12988 16459,12842 16468,12635 16477,12401 16485,12272 16494,11960 16502,11808 16511,11715 16520,11502 16529,11328 16537,11204 16546,11103 16555,10981 16563,10703 16572,10537 16581,10379 16589,10181 16598,10066 16607,9938 16615,9800 16624,9712 16633,9508 16642,9380 16650,9264 16659,9336 16668,9769 16676,10112 16685,10377 16694,10574 16702,10726 16711,10814 16720,10852 16728,10895 16737,10890 16746,10868 16754,10738 16763,10617 16772,10513 16781,10438 16789,10367 16798,10189 16806,10081 16815,9960 16824,10161 16833,10440 16841,11001 16850,11242 16859,11313 16867,11459 16876,11494 16885,11521 16893,11409 16902,11346 16911,11253 16919,11223 16928,11070 16937,10821 16946,10720 16954,10588 16963,10448 16971,10342 16980,10224 16989,10051 16998,9901 17006,9738 17015,9665 17024,9477 17032,9392 17041,9278 17050,9160 17058,9016 17067,8904 17076,8740 17084,8776 17093,9117 17102,9525 17110,9785 17119,9934 17128,10069 17136,10235 17145,10286 17154,10339 17163,10493 17171,11157 17180,11441 17189,11714 17197,11828 17206,11980 17215,11965 17224,11970 17232,11984 17241,11836 17250,11708 17258,11653 17267,11407 17276,11340 17284,11144 17293,10974 17301,10811 17310,10697 17319,10563 17328,10394 17336,10232 17345,10108 17354,9968 17362,9856 17371,9633 17380,9468 17388,9438 17397,9230 17406,9153 17415,9048 17423,8885 17432,8972 17441,9723 17449,10282 17458,11054 17467,11783 17475,12075 17484,12285 17493,12482 17501,12560 17510,12541 17519,12516 17527,12386 17536,12304 17545,12112 17553,11961 17562,11764 17571,11640 17579,11500 17588,11347 17597,11140 17605,11016 17614,10847 17623,10721 17632,10484 17640,10431 17649,10181 17658,10048 17666,9926 17675,9786 17684,9559 17692,9786 17701,10455 17710,10700 17719,10920 17727,11050 17736,11159 17745,11185 17753,11181 17762,11179 17771,11046 17779,10969 17788,10815 17797,10686 17805,10662 17814,10513 17823,10357 17831,10196 17840,10138 17849,9996 17857,9772 17866,9729 17875,9536 17883,9443 17892,9355 17901,9163 17910,9037 17918,8937 17927,8864 17936,9367 17944,9671 17953,9956 17962,10117 17970,10217 17979,10262 17988,10334 17996,10358 18005,10328 18015,10247 18022,10208 18031,10050 18040,10041 18049,9936 18057,9849 18066,9741 18074,9638 18083,9629 18092,10441 18101,10680 18109,11446 18118,11950 18127,12488 18135,12693 18144,12889 18154,12975 18161,12967 18170,12842 18179,12800 18187,12667 18196,12502 18205,12347 18213,12148 18222,11965 18231,11880 18240,11648 18248,11445 18257,11290 18266,11151 18274,11015 18283,10865 18292,10597 18300,10602 18309,10447 18318,10258 18326,10039 18335,9950 18344,9811 18352,9605 18361,9508 18370,9350 18378,9164 18388,9007 18396,8935 18405,8851 18413,8668 18422,8551 18431,8825 18439,9347 18448,10486 18457,10992 18465,11660 18474,12311 18483,13131 18491,13529 18500,13913 18509,13923 18517,13958 18526,13844 18535,13753 18543,13609 18552,13465 18561,13326 18570,12919 18578,12811 18587,12587 18596,12473 18604,12316 18613,11982 18622,11881 18630,11678 18639,11522 18648,11339 18656,11139 18665,11019 18674,10856 18682,10777 18691,10545 18700,10292 18709,10172 18717,10102 18726,9962 18734,9802 18743,9604 18752,9499 18761,9425 18769,9245 18778,9084 18787,8991 18795,8849 18804,8713 18813,8627 18821,8414 18830,8326 18839,8203 18847,8136 18856,8631 18865,8863 18873,10033 18882,10579 18891,11097 18899,11653 18908,11883 18917,12098 18926,12261 18934,12210 18943,12227 18952,12208 18960,12018 18969,11920 18978,11777 18986,11602 18995,11519 19004,11345 19012,11184 19021,11056 19030,10847 19039,10720 19047,10569 19056,10387 19065,10329 19073,10189 19082,9953 19091,9860 19099,9684 19108,9530 19117,9406 19125,9296 19134,9265 19143,9947 19151,10159 19160,10524 19169,11302 19177,11735 19186,12096 19195,12450 19204,12680 19212,12715 19221,12691 19230,12672 19238,12566 19247,12448 19256,12288 19264,12207 19273,12010 19282,11831 19290,11691 19299,11498 19308,11256 19316,11202 19325,11026 19334,10876 19342,10699 19351,10527 19360,10448 19369,10279 19377,10155 19386,9981 19395,9875 19403,9695 19412,9540 19421,9395 19429,9257 19438,9173 19447,8967 19455,8862 19464,8722 19473,8587 19481,8445 19490,8379 19499,8189 19508,8119 19516,7920 19525,7866 19533,7675 19542,7641 19551,7507 19560,7861 19568,8294 19577,8806 19586,9428 19594,10114 19603,10856 19612,11286 19620,11675 19629,11886 19638,11948 19646,12046 19655,12085 19664,11981 19673,11927 19681,11807 19690,11751 19699,11537 19707,11384 19716,11258 19725,11097 19733,10962 19742,10740 19751,10640 19759,11033 19768,11281 19777,11655 19785,11695 19794,11785 19803,11882 19812,11860 19820,11777 19829,11644 19837,11603 19846,11417 19855,11302 19864,11213 19872,11113 19881,10927 19890,10787 19898,10471 19907,10300 19916,10169 19924,10016 19933,9930 19942,9842 19950,9699 19959,9564 19968,10007 19977,10415 19985,10749 19994,10966 20003,11021 20011,11126 20020,11221 20029,11155 20037,11128 20046,11046 20055,10972 20063,10894 20072,10828 20081,10653 20089,10480 20098,10345 20107,10235 20115,10166 20124,9999 20133,10613 20141,10860 20150,11160 20159,11341 20168,11438 20176,11521 20185,11543 20194,11423 20202,11443 20211,11350 20220,11247 20229,11091 20237,10966 20246,10792 20254,10639 20263,10560 20272,10353 20280,10203 20289,10006 20298,9975 20307,9758 20315,9671 20324,9585 20333,9350 20341,9304 20350,9165 20359,9054 20367,8876 20376,8728 20385,8618 20393,8501 20402,8393 20411,8953 20419,9388 20428,9698 20437,9883 20445,10069 20454,10167 20463,10232 20471,10251 20480,10226 20489,10440 20497,11478 20506,12226 20515,12746 20524,13439 20532,13539 20541,13668 20550,13567 20558,13506 20567,13455 20576,13318 20584,13095 20593,13010 20602,12799 20611,12508 20619,12338 20628,12269 20637,11936 20645,11784 20654,11605 20663,11487 20671,11310 20680,11131 20689,11028 20697,10850 20706,10709 20715,10537 20723,10355 20732,10277 20741,10086 20749,9887 20758,9728 20767,9657 20776,9535 20784,9351 20793,9219 20801,9420 20810,9829 20819,10290 20828,10505 20836,10688 20845,10745 20854,10818 20862,10906 20871,10858 20888,10765 20897,10749 20906,10656 20914,10575 20923,10367 20932,10231 20941,10144 20949,9999 20958,9922 20967,9769 20975,9537 20984,9527 20993,9363 21001,9192 21010,9129 21019,8968 21027,8776 21036,8711 21045,8717 21054,9187 21062,9654 21071,9952 21080,10065 21088,10184 21097,10241 21106,10328 21114,10318 21123,10267 21132,10414 21140,10957 21149,11349 21158,11626 21166,11786 21175,12005 21184,12029 21192,12397 21201,12876 21210,13217 21219,13338 21227,13478 21236,13367 21245,13293 21253,13198 21262,13122 21270,12877 21279,12732 21288,12516 21297,12382 21305,12165 21314,11961 21323,11847 21331,11688 21340,11367 21349,11281 21357,11103 21366,10924 21375,10783 21383,10590 21392,10452 21401,10308 21409,10210 21418,10067 21427,9857 21435,9709 21444,9529 21453,9436 21462,9337 21470,9253 21479,8992 21488,8857 21496,8839 21505,8654 21514,8546 21522,8441 21531,8270 21540,8155 21548,8037 21557,7944 21566,7848 21575,7676 21583,7737 21592,8283 21600,8703 21609,9062 21618,9638 21627,10683 21635,11285 21644,12539 21653,12917 21661,13471 21670,13980 21679,13995 21687,13990 21696,13961 21705,13971 21722,13941 21731,13981 21739,13945 21748,13835 21757,13572 21766,13481 21774,13211 21783,13084 21792,12983 21800,12738 21809,12566 21818,12347 21826,12165 21835,11944 21844,11765 21852,11616 21861,11424 21870,11168 21878,11047 21887,10900 21896,10762 21904,10610 21913,10453 21922,10324 21930,10157 21939,10063 21948,9813 21957,9669 21965,9525 21974,9395 21983,9294 21991,9057 22000,9005 22009,8871 22017,8806 22026,9217 22035,9558 22043,9816 22052,10502 22061,11086 22069,11551 22078,11959 22087,12183 22096,12342 22104,12350 22113,12404 22122,12020 22130,11891 22139,11850 22148,11834 22156,11719 22165,11639 22174,11515 22182,11285 22191,11219 22200,10973 22208,10943 22217,10729 22227,10595 22234,10489 22243,10346 22252,10220 22261,10012 22269,9952 22278,9671 22287,9592 22295,9467 22304,9376 22313,9179 22321,9034 22330,8926 22339,8799 22347,8647 22356,8506 22365,8424 22373,8337 22382,8458 22391,8860 22400,9606 22408,10449 22417,11005 22426,11416 22434,11747 22443,12123 22452,12249 22460,12335 22469,12273 22478,12319 22486,12133 22495,11997 22504,11908 22512,11735 22521,11670 22530,11467 22538,11314 22547,11108 22556,11011 22564,10772 22573,10630 22582,10511 22591,10350 22599,10202 22608,10085 22617,9977 22625,9769 22634,9666 22643,9462 22651,9420 22660,9898 22669,10345 22677,10739 22686,10869 22695,11001 22704,11048 22712,11144 22721,11147 22730,11071 22738,11018 22747,10991 22756,10827 22764,10680 22773,10583 22782,10468 22790,10405 22799,10293 22808,10153 22816,10038 22825,9780 22834,9726 22842,9630 22851,9447 22860,9305 22868,9120 22877,8986 22886,8909 22894,8784 22903,9327 22912,9665 22921,9881 22929,10162 22938,10237 22947,10381 22955,10361 22964,10385 22973,10373 22981,10341 22990,10241 22999,10246 23007,10160 23016,9964 23025,9837 23033,9747 23042,9989 23051,10757 23060,11469 23068,12314 23077,12672 23086,12901 23094,13061 23103,13157 23112,13087 23120,13002 23129,13003 23138,12786 23146,12576 23155,12423 23164,12291 23173,12066 23181,11912 23190,11807 23199,11523 23207,11456 23216,11217 23225,10991 23233,10814 23242,10753 23251,10549 23259,10452 23268,10344 23277,10121 23285,9979 23294,9836 23303,9704 23311,9566 23320,9407 23329,9273 23337,9115 23346,8941 23355,9349 23363,9849 23372,10082 23381,10324 23390,10574 23398,10593 23407,10643 23416,10679 23424,10634 23433,10661 23442,10540 23450,10413 23459,10374 23468,10232 23477,10344 23485,10635 23494,11115 23502,11427 23511,11566 23520,11738 23528,11742 23537,11672 23546,11669 23555,11580 23563,11458 23572,11293 23581,11203 23589,11193 23598,10956 23607,10865 23616,10712 23624,10571 23633,10408 23641,10267 23650,10105 23659,10029 23667,9785 23676,9719 23685,9602 23694,9473 23702,9279 23711,9182 23720,8968 23728,8862 23737,8742 23746,8612 23754,8480 23763,8396 23772,8260 23780,8117 23789,8064 23798,7931 23806,7831 23815,7715 23824,8063 23832,8502 23841,9005 23850,9143 23859,9364 23867,9481 23876,9602 23885,9581 23893,9659 23902,9659 23911,9754 23919,10241 23928,10716 23937,11530 23945,12383 23954,12674 23963,12977 23972,13144 23980,13231 23989,13140 23998,13149 24006,12918 24015,12796 24024,12652 24032,12538 24041,12337 24050,12167 24058,11955 24067,11757 24076,11574 24084,11346 24093,11289 24102,11047"/>
 <path fill="none" stroke="rgb(153,102,153)" stroke-width="20" stroke-linejoin="round" d="M 11096,14032 L 11102,13930 11110,13912 11119,13891 11128,13835 11136,13908 11145,13970 11154,13980 11162,13976 11171,13977 11180,13968 11188,13866 11197,13945 11206,13953 11215,13964 11223,13982 11232,13976 11241,13844 11249,13803 11258,13526 11267,13089 11275,12724 11284,12111 11293,11726 11301,11301 11310,10825 11319,10449 11327,10118 11336,9605 11345,9288 11353,8845 11362,10404 11371,11624 11379,11609 11388,13734 11397,13701 11406,13654 11414,13655 11423,13591 11432,13483 11440,13484 11449,13445 11458,13393 11466,13326 11475,13238 11484,13289 11493,13223 11501,13238 11510,13084 11519,13033 11527,13031 11536,12974 11544,12963 11553,12976 11562,12873 11571,12872 11579,12729 11588,12671 11597,12714 11605,12717 11614,12612 11623,12560 11631,12508 11640,12508 11649,12484 11657,12403 11666,12390 11675,12321 11683,12242 11692,12196 11701,12233 11710,12196 11718,12198 11727,12091 11736,12018 11744,12043 11753,11987 11762,11889 11771,11832 11788,11883 11796,11777 11805,11771 11814,11661 11822,11705 11831,11660 11840,11660 11848,11517 11857,11570 11866,11551 11875,11417 11883,11417 11901,11348 11909,11400 11918,11303 11927,11207 11935,11259 11944,11153 11953,11205 11961,11101 11970,11140 11979,11044 11988,11102 11996,10996 12013,10893 12022,10944 12031,10841 12040,10841 12048,10738 12057,10842 12066,10723 12074,10685 12083,10633 12092,10672 12100,10579 12118,10568 12126,10583 12135,10531 12144,10527 12152,10410 12161,10424 12170,10373 12179,10306 12187,10322 12196,10254 12205,10267 12213,10216 12222,10170 12231,10114 12239,10166 12248,10061 12257,11601 12265,12643 12274,12615 12291,12507 12300,12358 12309,12403 12318,12256 12326,12193 12335,12195 12344,12090 12361,11975 12370,11963 12378,11889 12387,11832 12396,11883 12404,11830 12413,11831 12422,11705 12430,11631 12439,11629 12448,11555 12457,11468 12474,11453 12482,11361 12491,11309 12500,11309 12509,11206 12517,11242 12526,11159 12535,11205 12543,11156 12561,11054 12578,10997 12587,10994 12595,10945 12604,10856 12613,10949 12622,10829 12630,10842 12648,10789 12656,10688 12665,10686 12674,10687 12682,10700 12691,10610 12700,10673 12708,10633 12717,10581 12726,10529 12734,10577 12743,10479 12752,10581 12760,10476 12778,10477 12786,10410 12795,10373 12804,10373 12821,10410 12830,10374 12847,10358 12856,10373 12865,10357 12873,10373 12882,10217 12891,10269 12908,10319 12917,10218 12925,10150 12934,10113 12943,10164 12952,10062 12960,10007 12969,10059 12978,9958 12986,10008 12995,9890 13004,9890 13012,9906 13021,9801 13030,12425 13038,12414 13047,12337 13056,12299 13064,12199 13073,12181 13082,12091 13091,12091 13099,12039 13108,11974 13116,11934 13125,11788 13134,11724 13143,11674 13151,11674 13160,11712 13169,11674 13177,11569 13186,11464 13195,11468 13203,11400 13212,11414 13221,11308 13238,11313 13247,11204 13256,10992 13264,10570 13273,10409 13282,10197 13290,10085 13299,10044 13308,9959 13316,9884 13325,9780 13334,12130 13342,11955 13351,11789 13360,11720 13368,11545 13377,11420 13386,11350 13394,11283 13403,11156 13412,10951 13421,10776 13429,10631 13438,10467 13446,10324 13455,10237 13464,10095 13473,9823 13481,9742 13490,9570 13499,10969 13507,10997 13516,10752 13525,10500 13533,10394 13542,10003 13551,9826 13559,9575 13568,9284 13577,9005 13585,8757 13594,9275 13603,9586 13611,9298 13620,9121 13629,8699 13638,8483 13646,8312 13655,8715 13664,8454 13672,8323 13681,8022 13690,7752 13699,7535 13707,7302 13716,7183 13724,7563 13733,8252 13742,8871 13751,9599 13759,10497 13768,10744 13777,11472 13785,12206 13794,12778 13803,13211 13811,13296 13820,13308 13829,13293 13837,13191 13846,13148 13855,12968 13863,12721 13872,12528 13881,12404 13889,12274 13898,12006 13907,12525 13916,12802 13924,12988 13933,13106 13941,13128 13950,13029 13959,12952 13968,12817 13976,12739 13985,12477 13994,12345 14002,12232 14011,12004 14020,11861 14028,11669 14037,11470 14046,11343 14054,11169 14063,10933 14072,10796 14081,10668 14089,10471 14098,10372 14107,10144 14115,10082 14124,9806 14133,9742 14141,9629 14150,9526 14159,9398 14167,9207 14176,9095 14185,8937 14193,8883 14202,9012 14211,9483 14220,9870 14228,10013 14237,10234 14245,10336 14254,10425 14263,10482 14272,10458 14280,10479 14289,10376 14298,10392 14306,10272 14315,10101 14324,10078 14332,10742 14341,11085 14350,11289 14359,11471 14367,11567 14375,11712 14384,11657 14392,11635 14401,11619 14409,11404 14418,11333 14427,11167 14436,11039 14444,10922 14453,10803 14462,10651 14470,10519 14479,10449 14488,10746 14496,11241 14505,11394 14514,11607 14522,11726 14531,11766 14540,11655 14557,11549 14566,11348 14575,11379 14583,11138 14592,11008 14601,10964 14609,10775 14618,10623 14627,10417 14635,10302 14644,10208 14653,10029 14661,9894 14670,9705 14679,9645 14688,9447 14696,9331 14705,9217 14714,9014 14722,8939 14731,8760 14739,9043 14748,9672 14757,9870 14766,10166 14774,10244 14783,10383 14792,10475 14800,10502 14809,10462 14818,10495 14826,10901 14835,11159 14844,11452 14852,11753 14861,11881 14870,11954 14879,11958 14887,11860 14896,11764 14904,11819 14913,11600 14922,11504 14931,11238 14939,11201 14948,10969 14957,10856 14965,10740 14974,10583 14983,10432 14991,10183 15000,10110 15009,9955 15017,9805 15026,9662 15035,9600 15043,9444 15052,9246 15061,9111 15070,9069 15078,8873 15087,8745 15096,8613 15104,8431 15113,8396 15122,8325 15130,8140 15139,8041 15148,7879 15156,7835 15165,7663 15174,7806 15183,8296 15191,8623 15200,8888 15209,9151 15217,9304 15226,9416 15235,9512 15243,9492 15252,9554 15261,9765 15269,10129 15278,10645 15287,10906 15296,11678 15304,12279 15313,12626 15321,12979 15330,13140 15339,13251 15347,13509 15356,13832 15365,13794 15373,13762 15382,13759 15391,13838 15400,13735 15408,13583 15417,13365 15426,13172 15434,12966 15443,12770 15452,12641 15460,12358 15469,12170 15478,11999 15486,11799 15495,11669 15504,11561 15513,11241 15521,11175 15530,10977 15538,10801 15547,10643 15556,10533 15565,10370 15573,10221 15582,10112 15591,9929 15599,9791 15608,9645 15617,9517 15625,9374 15634,9241 15643,9142 15652,8998 15660,8840 15669,9013 15677,9339 15686,9751 15695,10028 15704,10252 15712,10395 15721,10493 15730,10511 15739,10474 15747,10395 15756,10434 15764,10269 15773,10427 15782,11079 15790,11410 15799,11655 15808,11869 15816,11989 15825,12018 15834,11937 15843,11856 15851,11794 15860,11669 15869,11423 15877,11371 15886,11131 15895,10969 15903,10932 15912,10718 15921,10615 15929,10486 15938,10368 15947,10223 15955,9956 15964,9872 15973,9786 15981,9588 15990,9804 15999,10283 16008,10601 16016,10886 16025,11020 16034,11064 16042,11113 16051,11062 16060,11072 16068,10956 16077,11033 16086,10785 16094,10634 16103,10539 16112,10367 16120,10358 16129,10203 16138,9996 16147,9883 16155,9674 16164,9659 16172,9448 16181,9237 16190,9195 16199,9025 16207,8945 16216,8810 16225,8682 16233,8562 16242,8454 16251,8269 16259,8253 16268,8052 16277,7945 16285,7830 16294,7731 16303,7620 16311,8059 16320,8375 16329,8781 16338,9025 16346,9686 16355,10483 16364,10847 16372,11668 16381,12492 16390,12800 16398,13115 16407,13254 16416,13300 16424,13265 16433,13153 16442,13086 16450,12889 16459,12799 16468,12495 16477,12349 16485,12215 16494,11951 16502,11782 16511,11610 16520,11491 16529,11293 16537,11145 16546,11004 16555,10794 16563,10642 16572,10453 16581,10307 16589,10239 16598,9970 16607,9860 16616,9732 16624,9617 16633,9464 16642,9396 16650,9204 16659,9054 16668,9418 16676,9934 16685,10217 16694,10514 16702,10618 16711,10734 16720,10749 16728,10799 16737,10769 16746,10727 16754,10703 16763,10581 16772,10466 16781,10392 16789,10279 16798,10180 16807,10003 16815,9892 16824,9883 16833,10287 16841,10746 16850,10939 16859,11192 16867,11298 16876,11311 16885,11405 16893,11330 16902,11272 16911,11203 16919,11085 16928,10878 16937,10757 16946,10626 16954,10520 16963,10380 16971,10235 16980,10107 16989,9912 16998,9779 17007,9581 17015,9587 17024,9366 17032,9319 17041,9119 17050,8995 17058,8958 17067,8786 17076,8620 17084,8656 17093,8973 17102,9456 17111,9716 17119,9848 17128,10013 17137,10140 17145,10162 17154,10214 17163,10451 17171,10861 17180,11289 17189,11527 17197,11737 17206,11883 17215,11799 17223,11915 17232,11794 17241,11753 17250,11626 17258,11546 17267,11368 17275,11207 17284,11016 17293,10977 17301,10768 17310,10580 17319,10530 17328,10347 17336,10204 17345,9996 17354,9902 17362,9759 17371,9609 17380,9514 17388,9395 17397,9233 17406,9060 17414,8949 17423,8869 17432,8876 17441,9167 17449,10010 17458,10941 17467,11417 17475,11838 17484,12198 17493,12428 17501,12520 17510,12480 17519,12385 17527,12360 17536,12162 17545,12096 17553,11905 17562,11753 17571,11633 17579,11375 17588,11324 17597,11111 17605,10941 17614,10818 17623,10662 17632,10413 17640,10270 17649,10107 17658,10063 17666,9888 17675,9742 17684,9617 17692,9650 17701,10088 17710,10390 17718,10635 17727,10935 17736,11003 17744,11078 17753,11077 17762,11050 17771,10988 17779,10923 17788,10823 17797,10791 17805,10581 17814,10399 17823,10271 17831,10156 17840,10013 17849,9951 17857,9826 17866,9617 17875,9425 17883,9364 17892,9191 17901,9146 17909,8960 17918,8843 17927,8731 17935,9202 17944,9519 17953,9773 17962,10035 17970,10205 17979,10205 17988,10319 17996,10241 18005,10308 18014,10263 18022,10141 18031,10017 18040,9861 18048,9840 18057,9744 18066,9707 18075,9578 18083,9552 18092,10159 18101,10563 18109,10951 18118,11972 18127,12342 18135,12712 18144,12803 18153,12852 18161,12776 18170,12728 18179,12777 18187,12510 18196,12337 18205,12281 18214,12110 18222,11914 18231,11749 18240,11549 18248,11340 18257,11225 18266,11071 18274,10933 18283,10764 18292,10675 18300,10523 18309,10360 18318,10236 18326,9972 18335,9906 18344,9754 18353,9619 18361,9480 18370,9202 18379,9156 18387,8991 18396,8852 18405,8699 18413,8639 18422,8442 18431,8673 18439,9322 18448,9884 18457,10707 18465,11218 18474,11933 18483,12796 18491,13308 18500,13694 18509,13905 18517,13826 18526,13744 18535,13690 18544,13546 18552,13407 18561,13245 18569,12963 18578,12750 18587,12536 18596,12318 18604,12218 18613,11938 18622,11750 18630,11672 18639,11430 18648,11336 18656,11131 18665,10990 18674,10710 18682,10622 18691,10528 18700,10211 18709,10186 18717,10029 18726,9851 18735,9723 18743,9535 18752,9452 18761,9303 18769,9172 18778,9033 18787,8975 18795,8810 18804,8574 18813,8614 18821,8420 18830,8261 18839,8113 18847,8044 18856,8334 18865,8729 18873,9369 18882,10525 18891,10944 18900,11428 18908,11832 18917,11999 18926,12151 18934,12187 18943,12104 18952,12023 18960,11949 18969,11800 18978,11729 18986,11584 18995,11443 19004,11177 19013,11050 19021,10958 19030,10794 19039,10580 19047,10575 19056,10307 19065,10235 19073,10128 19082,9933 19091,9830 19099,9612 19108,9514 19117,9334 19125,9271 19134,9191 19143,9593 19151,9997 19160,10397 19169,10904 19178,11349 19186,11927 19195,12343 19204,12515 19212,12682 19221,12596 19230,12626 19238,12506 19247,12392 19256,12261 19264,12112 19273,11871 19282,11789 19290,11613 19299,11365 19308,11279 19316,11119 19325,10982 19334,10784 19343,10616 19351,10499 19360,10385 19368,10198 19377,10134 19386,9995 19395,9818 19403,9681 19412,9556 19421,9344 19429,9170 19438,9040 19447,8925 19455,8805 19464,8695 19473,8563 19482,8299 19490,8281 19499,8154 19507,7997 19516,7830 19525,7804 19534,7664 19542,7586 19551,7444 19560,7572 19568,8203 19577,8576 19586,9001 19594,10148 19603,10487 19612,11011 19620,11343 19629,11786 19638,11861 19647,11951 19655,11976 19664,11915 19672,11814 19681,11743 19690,11595 19699,11534 19707,11311 19716,11184 19725,11053 19733,10941 19742,10758 19751,10575 19759,10965 19768,11190 19777,11485 19785,11640 19794,11695 19803,11787 19811,11807 19820,11712 19829,11601 19838,11461 19846,11370 19855,11192 19864,11118 19872,10923 19881,10772 19890,10712 19898,10524 19907,10428 19916,10207 19924,9968 19933,9851 19942,9793 19950,9642 19959,9504 19968,9926 19976,10085 19985,10549 19994,10713 20002,10963 20011,11044 20020,11110 20029,11072 20038,11012 20046,10937 20055,10867 20063,10825 20072,10808 20081,10579 20089,10417 20098,10332 20107,10250 20115,10096 20124,9989 20133,10247 20141,10691 20150,11056 20159,11163 20167,11308 20176,11374 20185,11441 20194,11375 20202,11325 20211,11186 20220,11194 20228,10962 20237,10882 20246,10707 20255,10560 20263,10505 20272,10350 20280,10141 20289,9971 20298,9823 20306,9705 20315,9632 20324,9419 20332,9401 20341,9150 20350,9056 20359,8983 20367,8785 20376,8774 20385,8647 20393,8441 20402,8335 20411,8778 20419,9242 20428,9589 20437,9792 20445,10008 20454,10068 20463,10148 20471,10161 20480,10198 20489,10279 20498,10850 20506,12003 20515,12700 20524,13094 20532,13441 20541,13570 20550,13593 20558,13469 20567,13334 20576,13259 20584,13033 20593,12926 20602,12760 20610,12538 20619,12359 20628,12117 20636,11902 20645,11714 20654,11540 20663,11416 20671,11248 20680,11131 20689,10973 20697,10738 20706,10602 20715,10508 20723,10302 20732,10156 20741,9888 20749,9814 20758,9640 20767,9589 20776,9415 20784,9310 20793,9166 20801,9194 20810,9592 20819,10084 20828,10391 20836,10604 20845,10645 20854,10774 20862,10786 20871,10844 20880,10762 20888,10672 20897,10607 20906,10548 20914,10483 20923,10294 20932,10218 20940,10086 20949,9982 20958,9782 20966,9643 20975,9548 20984,9426 20993,9239 21001,9157 21010,8998 21019,8897 21027,8731 21036,8638 21045,8662 21053,9093 21062,9402 21071,9739 21079,9928 21088,10051 21097,10131 21105,10170 21114,10191 21123,10186 21132,10345 21140,10945 21149,11295 21158,11574 21166,11669 21175,11835 21184,11980 21192,12246 21201,12501 21210,12990 21218,13305 21228,13339 21236,13413 21244,13195 21253,13105 21262,12956 21271,12840 21279,12721 21288,12536 21297,12224 21305,12148 21314,11940 21323,11782 21331,11612 21340,11406 21349,11220 21357,10982 21366,10806 21375,10624 21383,10517 21392,10385 21401,10236 21410,10127 21418,9954 21427,9804 21436,9648 21444,9547 21453,9399 21462,9238 21470,9079 21479,8989 21488,8915 21496,8762 21505,8599 21514,8452 21522,8312 21531,8183 21540,8123 21548,8018 21557,7863 21566,7780 21574,7616 21583,7637 21592,8127 21601,8478 21609,8881 21618,9329 21627,9956 21635,11214 21644,11684 21653,12443 21661,13194 21670,13749 21679,13886 21687,13888 21705,13925 21713,13914 21722,13867 21731,13821 21740,13771 21748,13753 21757,13668 21765,13416 21774,13192 21783,13105 21792,12820 21800,12606 21809,12493 21818,12301 21826,12075 21835,11830 21844,11773 21852,11546 21861,11337 21870,11141 21878,11016 21887,10803 21896,10641 21905,10541 21913,10400 21922,10176 21931,10098 21939,9903 21948,9758 21957,9682 21965,9500 21974,9328 21983,9197 21991,9055 22000,8962 22009,8818 22017,8689 22026,8944 22035,9413 22043,9729 22052,10100 22061,10842 22069,11378 22078,11750 22087,12096 22095,12271 22104,12265 22113,12239 22122,11800 22130,11879 22139,11830 22148,11803 22156,11626 22165,11565 22174,11367 22182,11311 22191,11149 22200,11008 22208,10923 22217,10736 22226,10558 22234,10368 22243,10227 22252,10031 22260,9960 22269,9748 22278,9722 22287,9589 22295,9380 22304,9243 22313,9195 22321,9058 22330,8884 22339,8733 22347,8574 22356,8477 22365,8402 22373,8252 22382,8127 22391,8622 22399,9012 22408,9754 22417,10516 22426,11330 22434,11774 22443,11958 22452,12103 22460,12227 22469,12169 22478,12113 22486,12085 22495,11954 22504,11793 22512,11662 22521,11541 22530,11367 22538,11134 22547,11053 22556,10863 22565,10650 22573,10625 22582,10462 22591,10346 22599,10120 22608,9939 22617,9835 22625,9751 22634,9578 22643,9377 22651,9331 22660,9839 22669,10145 22677,10480 22686,10678 22695,10827 22703,10940 22712,10951 22721,11041 22729,10969 22738,10883 22747,10846 22756,10715 22764,10674 22773,10543 22782,10385 22790,10295 22799,10141 22808,10018 22816,9923 22825,9799 22834,9600 22842,9505 22851,9394 22860,9317 22868,9131 22877,9013 22886,8860 22895,8754 22903,9082 22912,9451 22921,9704 22929,9950 22938,10017 22947,10246 22955,10225 22964,10320 22973,10236 22981,10245 22990,10113 22999,10056 23007,9962 23016,9916 23025,9823 23033,9617 23042,9811 23051,10247 23060,11259 23068,11804 23077,12426 23086,12859 23094,12952 23103,12953 23112,13026 23120,12940 23129,12843 23138,12785 23146,12519 23155,12388 23164,12205 23172,12073 23181,11862 23190,11744 23198,11558 23207,11327 23216,11177 23225,10989 23233,10812 23242,10619 23251,10507 23259,10372 23268,10211 23277,10084 23285,9958 23294,9782 23303,9668 23311,9482 23321,9373 23329,9230 23337,9132 23346,8942 23355,9278 23364,9602 23372,9979 23381,10119 23390,10293 23398,10411 23407,10433 23416,10554 23424,10629 23433,10468 23442,10397 23450,10420 23459,10333 23468,10111 23476,10029 23485,10560 23494,11053 23503,11188 23511,11438 23520,11456 23529,11681 23537,11712 23546,11633 23555,11582 23563,11486 23572,11338 23581,11212 23589,11073 23598,10841 23607,10820 23615,10615 23624,10572 23633,10378 23641,10210 23650,10149 23659,9965 23668,9856 23676,9723 23685,9566 23693,9412 23702,9249 23711,9136 23720,8967 23728,8794 23737,8646 23746,8548 23754,8477 23763,8339 23772,8203 23780,8085 23789,8002 23798,7861 23806,7833 23815,7639 23824,7926 23832,8250 23841,8771 23850,9011 23858,9214 23867,9387 23876,9497 23885,9554 23893,9548 23902,9578 23911,9548 23919,10046 23928,10440 23937,11396 23945,11890 23954,12361 23963,12884 23971,13052 23980,13091 23989,13142 23997,13001 24006,12931 24015,12752 24024,12625 24032,12501 24041,12296 24050,12001 24058,11968 24067,11725 24076,11555 24084,11353 24093,11120"/>
 <path fill="none" stroke="rgb(0,132,209)" stroke-width="20" stroke-linejoin="round" d="M 13277,13449 L 13298,12970 13319,12995 13341,12586 13365,12130 13384,11832 13406,11728 13428,11414 13451,11204 13473,10848 13493,10639 13514,9801 13536,9089 13558,8921 13580,8670 13601,8001 13623,7205 13646,7016 13667,6158 13688,5990 13710,5927 13732,5529 13754,4985 13775,5131 13797,5131 13819,5550 13840,5655 13862,5864 13884,5843 13905,5801 13927,5383 13949,5655 13970,5801 13994,5843 14014,5843 14036,5906 14057,5864 14079,5822 14101,5822 14123,5864 14144,5801 14166,5822 14188,5822 14209,5550 14231,5404 14253,5592 14274,5676 14296,5760 14318,5760 14340,5424 14362,5466 14383,5655 14404,5760 14426,5801 14447,5822 14469,5801 14491,5634 14512,5466 14534,5592 14557,5739 14577,5801 14600,5864 14621,5801 14643,5822 14665,5843 14686,5781 14708,5843 14730,5822 14752,5445 14773,5404 14795,5634 14817,5718 14838,5424 14860,5445 14882,5634 14903,5801 14925,5801 14947,5822 14968,5864 14990,5843 15012,5781 15034,5843 15055,5843 15077,5801 15098,5843 15120,5822 15142,5801 15164,5781 15185,5529 15207,5383 15229,5529 15251,5697 15272,5445 15294,5320 15316,5173 15339,5508 15359,5445 15381,5697 15402,5760 15425,5843 15446,5864 15468,5885 15489,5885 15512,5843 15533,5843 15555,5822 15576,5843 15598,5843 15620,5843 15641,5843 15663,5801 15690,5383 15709,5487 15728,5634 15750,5655 15771,5760 15793,5278 15815,5571 15837,5655 15858,5843 15880,5822 15902,5801 15923,5864 15947,5801 15967,5864 15989,5739 16010,5341 16032,5550 16054,5655 16075,5781 16097,5781 16119,5801 16141,5864 16163,5822 16184,5822 16207,5822 16227,5781 16249,5843 16271,5781 16293,5781 16314,5676 16336,5341 16358,5194 16379,5047 16401,5278 16423,5655 16447,5739 16466,5906 16488,5864 16510,5822 16531,5864 16555,5864 16575,5843 16597,5822 16618,5864 16640,5801 16662,5843 16684,5320 16707,5487 16727,5655 16749,5676 16772,5801 16794,5801 16814,5843 16835,5487 16857,5424 16879,5634 16901,5718 16922,5739 16944,5843 16966,5843 16987,5801 17009,5843 17031,5864 17054,5739 17074,5801 17097,5634 17118,5424 17139,5529 17161,5676 17183,5299 17204,5550 17226,5592 17248,5781 17270,5822 17291,5864 17313,5822 17335,5864 17357,5822 17378,5801 17401,5822 17422,5822 17443,5550 17465,4964 17487,5341 17510,5613 17530,5739 17553,5781 17574,5864 17597,5864 17617,5801 17639,5906 17660,5822 17682,5822 17704,5508 17726,5487 17747,5613 17769,5676 17791,5781 17813,5822 17834,5843 17856,5801 17878,5843 17900,5843 17921,5760 17943,5529 17965,5508 17987,5571 18008,5676 18036,5781 18051,5801 18073,5718 18095,5550 18118,5152 18139,5299 18160,5613 18181,5739 18203,5843 18225,5822 18249,5885 18271,5864 18292,5801 18313,5822 18333,5864 18355,5843 18378,5822 18399,5822 18421,5843 18442,5508 18464,4943 18485,5047 18507,5320 18529,5718 18551,5801 18573,5864 18594,5885 18616,5864 18637,5864 18659,5906 18681,5843 18703,5781 18724,5864 18748,5864 18768,5781 18790,5843 18812,5801 18833,5843 18857,5781 18876,5110 18899,5110 18920,5466 18942,5613 18963,5718 18986,5843 19007,5843 19029,5843 19050,5864 19073,5843 19093,5781 19116,5864 19137,5801 19159,5320 19181,5194 19204,5362 19224,5613 19247,5781 19267,5843 19289,5822 19311,5885 19332,5801 19354,5843 19376,5843 19398,5843 19419,5781 19443,5864 19463,5801 19484,5822 19506,5822 19528,5822 19550,5822 19571,5424 19593,5194 19616,5089 19638,5466 19659,5634 19680,5801 19702,5739 19726,5843 19745,5864 19767,5571 19789,5466 19811,5655 19832,5781 19855,5781 19875,5822 19897,5927 19918,5801 19941,5760 19962,5864 19984,5383 20006,5508 20029,5613 20049,5760 20070,5760 20093,5801 20114,5801 20136,5676 20157,5383 20179,5571 20201,5697 20222,5739 20246,5843 20266,5843 20288,5843 20310,5864 20331,5739 20353,5822 20376,5843 20397,5781 20419,5529 20440,5404 20463,5613 20485,5634 20505,5215 20526,5068 20548,5550 20570,5718 20591,5843 20613,5864 20635,5885 20657,5843 20680,5843 20700,5864 20723,5822 20744,5864 20765,5801 20788,5843 20809,5634 20830,5383 20852,5529 20874,5697 20896,5718 20917,5781 20939,5843 20961,5760 20983,5822 21004,5822 21026,5822 21048,5801 21069,5341 21091,5529 21113,5592 21134,5697 21156,5299 21178,5529 21199,5466 21221,5383 21243,5676 21265,5801 21287,5843 21308,5864 21330,5864 21351,5864 21373,5864 21395,5822 21417,5822 21438,5843 21460,5843 21482,5739 21503,5906 21525,5822 21547,5822 21568,5739 21590,5697 21613,5320 21634,5026 21655,4964 21677,5236 21699,5697 21721,5655 21742,5718 21764,5864 21786,5822 21807,5885 21830,5885 21851,5801 21872,5885 21895,5864 21916,5843 21939,5843 21960,5801 21984,5864 22003,5801 22024,5781 22046,5383 22068,5152 22090,5320 22113,5613 22133,5906 22156,5718 22176,5822 22199,5760 22220,5864 22242,5843 22263,5801 22285,5843 22307,5781 22329,5885 22351,5822 22372,5801 22393,5529 22416,5110 22437,5194 22459,5487 22480,5739 22504,5781 22524,5822 22546,5822 22567,5843 22589,5801 22612,5927 22632,5781 22654,5822 22676,5362 22698,5487 22720,5634 22741,5697 22763,5801 22784,5822 22806,5801 22828,5801 22849,5864 22871,5781 22893,5864 22915,5362 22936,5550 22958,5592 22980,5676 23001,5801 23023,5801 23047,5676 23068,5068 23090,5257 23110,5613 23132,5760 23154,5822 23175,5864 23199,5822 23219,5864 23241,5843 23262,5864 23284,5822 23306,5843 23327,5801 23349,5864 23371,5341 23393,5529 23415,5613 23436,5718 23457,5739 23481,5781 23501,5341 23523,5529 23544,5655 23567,5801 23588,5801 23610,5822 23631,5822 23653,5843 23674,5822 23696,5822 23718,5822 23740,5801 23761,5843 23784,5801 23805,5843 23826,5634 23849,5320 23870,5508 23892,5655 23914,5697 23935,5173 23957,5152 23979,5466 24000,5697 24022,5843 24044,5843 24065,5843 24087,5864 24109,5843"/>
 <path fill="none" stroke="rgb(255,66,14)" stroke-width="20" stroke-linejoin="round" d="M 11101,12612 L 11124,11749 11145,11120 11166,10304 11189,9340 11210,8042 11232,6472 11253,4817 11275,3644 11298,3644 11318,3665 11340,3665 11363,3623 11383,3665 11405,3665 11427,3644 11449,3665 11470,3665 11492,3665 11514,3644 11535,3665 11557,3665 11579,3644 11601,3665 11623,3665 11644,3665 11666,3644 11687,3665 11709,3665 11731,3644 11753,3644 11774,3665 11796,3665 11818,3623 11839,3665 11861,3665 11884,3665 11905,3623 11927,3665 11948,3665 11970,3644 11991,3665 12014,3665 12035,3665 12057,3644 12078,3665 12100,3665 12122,3644 12143,3665 12166,3665 12187,3665 12209,3644 12230,3665 12253,3665 12274,3665 12296,3623 12318,3665 12339,3665 12361,3644 12382,3665 12404,3665 12426,3665 12447,3623 12469,3665 12491,3665 12512,3644 12534,3665 12556,3665 12578,3665 12599,3686 12621,3665 12643,3665 12664,3665 12687,3644 12708,3665 12730,3665 12751,3665 12773,3644 12795,3665 12817,3665 12838,3644 12860,3665 12882,3665 12903,3644 12925,3644 12947,3665 12968,3665 12990,3644 13012,3665 13034,3665 13056,3665 13078,3623 13099,3665 13121,3665 13142,3644 13164,3665 13185,3665 13208,3665 13229,3644 13251,3665 13272,4231 13294,4545 13316,4859 13338,4985 13360,5571 13381,5822 13403,5990 13424,6346 13446,6472 13468,6786 13490,7016 13511,7833 13536,8460 13555,8775 13576,9152 13598,9445 13620,10576 13642,10597 13664,11435 13685,11728 13707,11812 13728,12107 13750,12706 13772,12561 13794,12658 13815,12274 13838,12036 13859,11874 13880,11916 13902,11874 13924,12323 13945,12130 13967,11937 13989,11937 14011,11832 14032,11874 14054,11874 14076,11874 14097,11916 14119,11895 14141,11874 14163,11895 14184,11937 14206,12107 14228,12346 14249,12201 14272,12036 14293,12057 14315,11895 14336,12249 14358,12297 14379,12082 14400,12010 14422,11937 14444,11916 14465,11832 14488,12155 14509,12274 14531,12107 14552,11985 14574,11937 14596,11937 14618,11895 14639,11832 14662,11916 14683,11916 14705,11916 14726,11895 14748,12226 14769,12346 14791,12105 14813,12059 14835,12226 14856,12297 14879,12130 14900,11985 14921,11895 14943,11832 14966,11958 14987,11895 15008,11895 15030,11874 15052,11916 15073,11937 15095,11895 15117,11895 15139,11985 15161,11895 15182,12130 15204,12371 15225,12201 15247,12082 15269,12226 15292,12371 15313,12561 15335,12297 15357,12297 15378,12323 15399,12034 15421,11895 15442,11874 15464,11895 15486,11791 15508,11874 15529,11895 15552,11895 15573,11895 15595,11895 15616,11916 15638,11895 15661,11916 15681,12274 15703,12226 15725,12178 15747,12059 15768,11958 15790,12394 15812,12274 15833,12034 15855,11958 15877,11895 15898,11895 15920,11895 15943,11937 15964,11895 15986,11895 16007,12346 16029,12226 16051,12082 16072,11958 16094,11937 16116,11937 16137,11895 16159,11874 16181,11937 16204,11916 16225,11895 16246,11937 16268,11916 16290,11937 16311,12010 16333,12419 16355,12490 16376,12681 16398,12467 16419,12130 16441,11958 16463,11895 16485,11874 16506,11812 16529,11916 16550,11895 16572,11874 16593,11874 16615,11895 16637,11937 16658,11895 16680,12371 16703,12224 16723,12107 16746,12059 16767,11916 16789,11958 16811,11895 16832,12155 16854,12297 16876,12180 16897,12034 16919,11937 16941,11937 16963,11874 16984,11916 17006,11874 17028,11937 17049,11937 17071,11895 17093,12010 17114,12394 17136,12226 17158,12008 17180,12371 17201,12274 17223,12107 17244,11937 17266,11916 17288,11916 17313,11916 17331,11874 17354,11895 17375,11916 17397,11895 17420,11916 17440,12107 17462,12706 17484,12442 17505,12178 17528,11987 17548,11916 17571,11916 17592,11832 17614,11937 17635,11832 17658,11895 17679,11916 17701,12130 17722,12346 17745,12130 17766,12034 17788,11895 17809,11985 17831,11916 17853,11874 17875,11937 17896,11895 17918,11916 17939,12153 17961,12274 17983,12155 18004,12034 18027,11985 18048,11958 18070,11937 18091,12153 18113,12490 18136,12490 18157,12178 18178,11958 18200,11916 18222,11895 18243,11832 18266,11916 18287,11895 18308,11895 18330,11895 18352,11895 18374,11895 18395,11916 18417,11916 18440,12130 18461,12729 18482,12706 18504,12490 18525,12107 18548,11916 18569,11874 18591,11874 18613,11791 18635,11895 18656,11895 18677,11874 18699,11874 18721,11895 18743,11937 18764,11895 18786,11916 18808,11895 18830,11958 18851,11874 18873,12490 18895,12706 18917,12371 18938,12107 18960,11987 18981,11895 19003,11916 19025,11895 19047,11895 19068,11895 19090,11895 19112,11895 19133,11937 19155,12346 19177,12465 19199,12419 19220,12178 19242,11958 19265,11916 19287,11916 19307,11874 19329,11832 19351,11958 19372,11832 19394,11916 19416,11874 19438,11916 19459,11916 19481,11916 19502,11895 19525,11937 19546,11916 19568,12226 19589,12490 19611,12635 19633,12320 19655,12130 19676,12010 19698,11874 19720,11916 19741,11895 19763,12059 19785,12274 19806,12130 19828,11958 19850,11916 19872,11958 19893,11874 19915,11916 19937,11832 19959,11937 19980,12297 20002,12274 20024,12105 20046,11987 20067,11985 20090,11916 20110,11895 20132,11985 20154,12394 20176,12178 20197,11985 20219,11985 20241,11937 20262,11832 20285,11937 20307,11895 20328,11937 20349,11895 20371,11895 20393,11937 20415,12155 20436,12346 20459,12155 20480,12082 20501,12394 20523,12658 20545,12297 20567,11985 20588,11895 20610,11874 20632,11874 20653,11832 20675,11832 20697,11937 20719,11874 20740,11895 20762,11895 20783,11895 20807,12010 20828,12394 20849,12201 20870,12082 20892,11985 20914,11937 20935,11958 20958,11874 20979,11937 21001,11895 21023,11916 21044,11916 21066,12373 21088,12224 21110,12107 21131,12034 21153,12419 21174,12226 21196,12153 21218,12419 21240,12082 21261,11937 21283,11895 21305,11874 21326,11874 21348,11812 21370,11895 21391,11895 21413,11916 21435,11895 21457,11895 21478,11916 21500,11937 21522,11895 21543,11937 21565,11895 21587,11958 21608,12442 21630,12609 21654,12825 21674,12561 21696,12635 21717,12419 21739,12153 21761,11958 21782,11832 21804,11832 21827,11895 21848,11812 21869,11874 21891,11874 21915,11937 21934,11895 21956,11874 21978,11895 22000,11895 22021,11937 22043,12371 22064,12513 22087,12442 22109,12107 22130,12107 22151,11985 22173,11916 22195,11916 22217,11895 22238,11874 22260,11874 22282,11958 22304,11874 22326,11937 22347,11895 22368,11937 22390,12036 22412,12658 22434,12561 22455,12274 22477,12010 22500,11937 22521,11937 22543,11916 22564,11832 22586,11895 22609,11916 22629,11895 22652,11895 22672,12394 22695,12203 22717,12130 22737,11985 22759,11958 22781,11937 22803,11937 22824,11895 22846,11895 22869,11916 22889,11937 22911,12178 22933,12297 22955,12107 22976,12059 22999,11958 23020,11958 23041,11916 23064,12706 23085,12467 23107,12201 23129,11985 23150,11895 23173,11895 23193,11895 23216,11812 23237,11832 23259,11958 23281,11874 23302,11895 23324,11916 23346,11895 23367,12297 23389,12249 23411,12155 23433,12010 23454,11985 23476,11916 23498,12346 23520,12251 23541,12082 23563,11985 23585,11895 23606,11916 23629,11916 23649,11874 23671,11937 23693,11895 23715,11874 23736,11916 23758,11916 23780,11937 23801,11937 23823,11937 23845,12419 23867,12274 23888,12107 23911,11985 23933,12465 23953,12635 23975,12346 23997,12034 24018,11874 24041,11937 24062,11812 24084,11895 24105,11874"/>
 <text class="TextShape"><tspan class="TextParagraph" font-family="Liberation Sans, sans-serif" font-size="353px" font-weight="400"><tspan class="TextPosition" x="10983" y="14642"><tspan fill="rgb(0,0,0)" stroke="none">0</tspan></tspan></tspan></text>
 <text class="TextShape"><tspan class="TextParagraph" font-family="Liberation Sans, sans-serif" font-size="353px" font-weight="400"><tspan class="TextPosition" x="13062" y="14642"><tspan fill="rgb(0,0,0)" stroke="none">10</tspan></tspan></tspan></text>
 <text class="TextShape"><tspan class="TextParagraph" font-family="Liberation Sans, sans-serif" font-size="353px" font-weight="400"><tspan class="TextPosition" x="15233" y="14642"><tspan fill="rgb(0,0,0)" stroke="none">20</tspan></tspan></tspan></text>
 <text class="TextShape"><tspan class="TextParagraph" font-family="Liberation Sans, sans-serif" font-size="353px" font-weight="400"><tspan class="TextPosition" x="17404" y="14642"><tspan fill="rgb(0,0,0)" stroke="none">30</tspan></tspan></tspan></text>
 <text class="TextShape"><tspan class="TextParagraph" font-family="Liberation Sans, sans-serif" font-size="353px" font-weight="400"><tspan class="TextPosition" x="19575" y="14642"><tspan fill="rgb(0,0,0)" stroke="none">40</tspan></tspan></tspan></text>
 <text class="TextShape"><tspan class="TextParagraph" font-family="Liberation Sans, sans-serif" font-size="353px" font-weight="400"><tspan class="TextPosition" x="21746" y="14642"><tspan fill="rgb(0,0,0)" stroke="none">50</tspan></tspan></tspan></text>
 <text class="TextShape"><tspan class="TextParagraph" font-family="Liberation Sans, sans-serif" font-size="353px" font-weight="400"><tspan class="TextPosition" x="23917" y="14642"><tspan fill="rgb(0,0,0)" stroke="none">60</tspan></tspan></tspan></text>
 <text class="TextShape"><tspan class="TextParagraph" font-family="Liberation Sans, sans-serif" font-size="353px" font-weight="400"><tspan class="TextPosition" x="26089" y="14642"><tspan fill="rgb(0,0,0)" stroke="none">70</tspan></tspan></tspan></text>
 <text class="TextShape"><tspan class="TextParagraph" font-family="Liberation Sans, sans-serif" font-size="353px" font-weight="400"><tspan class="TextPosition" x="10641" y="14195"><tspan fill="rgb(0,0,0)" stroke="none">0</tspan></tspan></tspan></text>
 <text class="TextShape"><tspan class="TextParagraph" font-family="Liberation Sans, sans-serif" font-size="353px" font-weight="400"><tspan class="TextPosition" x="10456" y="12100"><tspan fill="rgb(0,0,0)" stroke="none">10</tspan></tspan></tspan></text>
 <text class="TextShape"><tspan class="TextParagraph" font-family="Liberation Sans, sans-serif" font-size="353px" font-weight="400"><tspan class="TextPosition" x="10456" y="10006"><tspan fill="rgb(0,0,0)" stroke="none">20</tspan></tspan></tspan></text>
 <text class="TextShape"><tspan class="TextParagraph" font-family="Liberation Sans, sans-serif" font-size="353px" font-weight="400"><tspan class="TextPosition" x="10456" y="7911"><tspan fill="rgb(0,0,0)" stroke="none">30</tspan></tspan></tspan></text>
 <text class="TextShape"><tspan class="TextParagraph" font-family="Liberation Sans, sans-serif" font-size="353px" font-weight="400"><tspan class="TextPosition" x="10456" y="5817"><tspan fill="rgb(0,0,0)" stroke="none">40</tspan></tspan></tspan></text>
 <text class="TextShape"><tspan class="TextParagraph" font-family="Liberation Sans, sans-serif" font-size="353px" font-weight="400"><tspan class="TextPosition" x="10456" y="3722"><tspan fill="rgb(0,0,0)" stroke="none">50</tspan></tspan></tspan></text>
 <text class="TextShape"><tspan class="TextParagraph" font-family="Liberation Sans, sans-serif" font-size="353px" font-weight="400"><tspan class="TextPosition" x="26523" y="14195"><tspan fill="rgb(0,0,0)" stroke="none">20</tspan></tspan></tspan></text>
 <text class="TextShape"><tspan class="TextParagraph" font-family="Liberation Sans, sans-serif" font-size="353px" font-weight="400"><tspan class="TextPosition" x="26523" y="11933"><tspan fill="rgb(0,0,0)" stroke="none">30</tspan></tspan></tspan></text>
 <text class="TextShape"><tspan class="TextParagraph" font-family="Liberation Sans, sans-serif" font-size="353px" font-weight="400"><tspan class="TextPosition" x="26523" y="9671"><tspan fill="rgb(0,0,0)" stroke="none">40</tspan></tspan></tspan></text>
 <text class="TextShape"><tspan class="TextParagraph" font-family="Liberation Sans, sans-serif" font-size="353px" font-weight="400"><tspan class="TextPosition" x="26523" y="7409"><tspan fill="rgb(0,0,0)" stroke="none">50</tspan></tspan></tspan></text>
 <text class="TextShape"><tspan class="TextParagraph" font-family="Liberation Sans, sans-serif" font-size="353px" font-weight="400"><tspan class="TextPosition" x="26523" y="5147"><tspan fill="rgb(0,0,0)" stroke="none">60</tspan></tspan></tspan></text>
 <text class="TextShape"><tspan class="TextParagraph" font-family="Liberation Sans, sans-serif" font-size="353px" font-weight="400"><tspan class="TextPosition" x="26523" y="2885"><tspan fill="rgb(0,0,0)" stroke="none">70</tspan></tspan></tspan></text>
 <text class="TextShape"><tspan class="TextParagraph" font-family="Liberation Sans, sans-serif" font-size="459px" font-weight="400"><tspan class="TextPosition" x="12721" y="968"><tspan fill="rgb(0,0,0)" stroke="none">L4S: CUBIC(50Mbps) vs CUBIC(40Mbps/ECT0 unrespns&apos;ve)</tspan></tspan></tspan></text>
 <text class="TextShape"><tspan class="TextParagraph" font-family="Liberation Sans, sans-serif" font-size="388px" font-weight="400"><tspan class="TextPosition" x="15487" y="2019"><tspan fill="rgb(0,0,0)" stroke="none">qdisc:dualpi2 bandwidth:50Mbit rtt:20ms</tspan></tspan></tspan></text>
 <path fill="rgb(221,221,221)" stroke="none" d="M 4468,9628 L 210,9628 210,6541 8726,6541 8726,9628 4468,9628 Z"/>
 <path fill="none" stroke="rgb(255,66,14)" stroke-width="20" stroke-linejoin="round" d="M 326,7337 L 1126,7337"/>
 <path fill="none" stroke="rgb(0,132,209)" stroke-width="20" stroke-linejoin="round" d="M 326,7835 L 1126,7835"/>
 <path fill="none" stroke="rgb(153,102,153)" stroke-width="20" stroke-linejoin="round" d="M 326,8830 L 1126,8830"/>
 <path fill="none" stroke="rgb(255,149,14)" stroke-width="30" stroke-linejoin="round" d="M 326,9328 L 1126,9328"/>
 <text class="TextShape"><tspan class="TextParagraph" font-family="Liberation Sans, sans-serif" font-size="353px" font-weight="400"><tspan class="TextPosition" x="1226" y="6959"><tspan fill="rgb(0,0,0)" stroke="none">Left axis (Mbps)</tspan></tspan></tspan></text>
 <text class="TextShape"><tspan class="TextParagraph" font-family="Liberation Sans, sans-serif" font-size="353px" font-weight="400"><tspan class="TextPosition" x="1226" y="7457"><tspan fill="rgb(0,0,0)" stroke="none">CUBIC(50Mbps) delivery rate</tspan></tspan></tspan></text>
 <text class="TextShape"><tspan class="TextParagraph" font-family="Liberation Sans, sans-serif" font-size="353px" font-weight="400"><tspan class="TextPosition" x="1226" y="7955"><tspan fill="rgb(0,0,0)" stroke="none">CUBIC(40Mbps/ECT0 unrespns&apos;ve) delivery rate</tspan></tspan></tspan></text>
 <text class="TextShape"><tspan class="TextParagraph" font-family="Liberation Sans, sans-serif" font-size="353px" font-weight="400"><tspan class="TextPosition" x="1226" y="8452"><tspan fill="rgb(0,0,0)" stroke="none">Right axis (ms)</tspan></tspan></tspan></text>
 <text class="TextShape"><tspan class="TextParagraph" font-family="Liberation Sans, sans-serif" font-size="353px" font-weight="400"><tspan class="TextPosition" x="1226" y="8950"><tspan fill="rgb(0,0,0)" stroke="none">CUBIC(50Mbps) TCP RTT</tspan></tspan></tspan></text>
 <text class="TextShape"><tspan class="TextParagraph" font-family="Liberation Sans, sans-serif" font-size="353px" font-weight="400"><tspan class="TextPosition" x="1226" y="9448"><tspan fill="rgb(0,0,0)" stroke="none">CUBIC(40Mbps/ECT0 unrespns&apos;ve) TCP RTT</tspan></tspan></tspan></text>
 <text class="TextShape"><tspan class="TextParagraph" font-family="Liberation Sans, sans-serif" font-size="423px" font-weight="400"><tspan class="TextPosition" x="17735" y="15543"><tspan fill="rgb(0,0,0)" stroke="none">Time (ms)</tspan></tspan></tspan></text>
 <text class="TextShape" transform="rotate(-90 9674 9160)"><tspan class="TextParagraph" font-family="Liberation Sans, sans-serif" font-size="423px" font-weight="400"><tspan class="TextPosition" x="9674" y="9160"><tspan fill="rgb(0,0,0)" stroke="none">Mbps</tspan></tspan></tspan></text>
 <text class="TextShape" transform="rotate(-90 27967 8922)"><tspan class="TextParagraph" font-family="Liberation Sans, sans-serif" font-size="423px" font-weight="400"><tspan class="TextPosition" x="27967" y="8922"><tspan fill="rgb(0,0,0)" stroke="none">ms</tspan></tspan></tspan></text>
</svg>