<?xml version="1.0" encoding="UTF-8"?>
<!DOCTYPE svg PUBLIC "-//W3C//DTD SVG 1.1//EN" "http://www.w3.org/Graphics/SVG/1.1/DTD/svg11.dtd">
<svg width="288mm" height="162mm" viewBox="0 0 28800 16200" version="1.1" xmlns="http://www.w3.org/2000/svg" xmlns:xlink="http://www.w3.org/1999/xlink" stroke-width="28.222" stroke-linejoin="round" xml:space="preserve">
 <path fill="rgb(255,255,255)" stroke="none" d="M 14374,16170 L 0,16170 0,0 28748,0 28748,16170 14374,16170 Z"/>
 <path fill="rgb(221,221,221)" stroke="none" d="M 18683,14240 L 11043,14240 11043,2790 26323,2790 26323,14240 18683,14240 Z"/>
 <path fill="none" stroke="rgb(179,179,179)" stroke-linejoin="round" d="M 18683,14240 L 11043,14240 11043,2790 26323,2790 26323,14240 18683,14240 Z"/>
 <path fill="none" stroke="rgb(179,179,179)" stroke-linejoin="round" d="M 26323,14239 L 11043,14239"/>
 <path fill="none" stroke="rgb(179,179,179)" stroke-linejoin="round" d="M 26323,12603 L 11043,12603"/>
 <path fill="none" stroke="rgb(179,179,179)" stroke-linejoin="round" d="M 26323,10967 L 11043,10967"/>
 <path fill="none" stroke="rgb(179,179,179)" stroke-linejoin="round" d="M 26323,9331 L 11043,9331"/>
 <path fill="none" stroke="rgb(179,179,179)" stroke-linejoin="round" d="M 26323,7696 L 11043,7696"/>
 <path fill="none" stroke="rgb(179,179,179)" stroke-linejoin="round" d="M 26323,6060 L 11043,6060"/>
 <path fill="none" stroke="rgb(179,179,179)" stroke-linejoin="round" d="M 26323,4424 L 11043,4424"/>
 <path fill="none" stroke="rgb(179,179,179)" stroke-linejoin="round" d="M 26323,2789 L 11043,2789"/>
 <path fill="none" stroke="rgb(179,179,179)" stroke-linejoin="round" d="M 11043,14389 L 11043,14239"/>
 <path fill="none" stroke="rgb(179,179,179)" stroke-linejoin="round" d="M 11043,14389 L 11043,14239"/>
 <path fill="none" stroke="rgb(179,179,179)" stroke-linejoin="round" d="M 13226,14389 L 13226,14239"/>
 <path fill="none" stroke="rgb(179,179,179)" stroke-linejoin="round" d="M 13226,14389 L 13226,14239"/>
 <path fill="none" stroke="rgb(179,179,179)" stroke-linejoin="round" d="M 15408,14389 L 15408,14239"/>
 <path fill="none" stroke="rgb(179,179,179)" stroke-linejoin="round" d="M 15408,14389 L 15408,14239"/>
 <path fill="none" stroke="rgb(179,179,179)" stroke-linejoin="round" d="M 17591,14389 L 17591,14239"/>
 <path fill="none" stroke="rgb(179,179,179)" stroke-linejoin="round" d="M 17591,14389 L 17591,14239"/>
 <path fill="none" stroke="rgb(179,179,179)" stroke-linejoin="round" d="M 19774,14389 L 19774,14239"/>
 <path fill="none" stroke="rgb(179,179,179)" stroke-linejoin="round" d="M 19774,14389 L 19774,14239"/>
 <path fill="none" stroke="rgb(179,179,179)" stroke-linejoin="round" d="M 21957,14389 L 21957,14239"/>
 <path fill="none" stroke="rgb(179,179,179)" stroke-linejoin="round" d="M 21957,14389 L 21957,14239"/>
 <path fill="none" stroke="rgb(179,179,179)" stroke-linejoin="round" d="M 24140,14389 L 24140,14239"/>
 <path fill="none" stroke="rgb(179,179,179)" stroke-linejoin="round" d="M 24140,14389 L 24140,14239"/>
 <path fill="none" stroke="rgb(179,179,179)" stroke-linejoin="round" d="M 26323,14389 L 26323,14239"/>
 <path fill="none" stroke="rgb(179,179,179)" stroke-linejoin="round" d="M 26323,14389 L 26323,14239"/>
 <path fill="none" stroke="rgb(179,179,179)" stroke-linejoin="round" d="M 11043,14239 L 26323,14239"/>
 <path fill="none" stroke="rgb(179,179,179)" stroke-linejoin="round" d="M 10893,14239 L 11043,14239"/>
 <path fill="none" stroke="rgb(179,179,179)" stroke-linejoin="round" d="M 10893,14239 L 11043,14239"/>
 <path fill="none" stroke="rgb(179,179,179)" stroke-linejoin="round" d="M 10893,12603 L 11043,12603"/>
 <path fill="none" stroke="rgb(179,179,179)" stroke-linejoin="round" d="M 10893,12603 L 11043,12603"/>
 <path fill="none" stroke="rgb(179,179,179)" stroke-linejoin="round" d="M 10893,10967 L 11043,10967"/>
 <path fill="none" stroke="rgb(179,179,179)" stroke-linejoin="round" d="M 10893,10967 L 11043,10967"/>
 <path fill="none" stroke="rgb(179,179,179)" stroke-linejoin="round" d="M 10893,9331 L 11043,9331"/>
 <path fill="none" stroke="rgb(179,179,179)" stroke-linejoin="round" d="M 10893,9331 L 11043,9331"/>
 <path fill="none" stroke="rgb(179,179,179)" stroke-linejoin="round" d="M 10893,7696 L 11043,7696"/>
 <path fill="none" stroke="rgb(179,179,179)" stroke-linejoin="round" d="M 10893,7696 L 11043,7696"/>
 <path fill="none" stroke="rgb(179,179,179)" stroke-linejoin="round" d="M 10893,6060 L 11043,6060"/>
 <path fill="none" stroke="rgb(179,179,179)" stroke-linejoin="round" d="M 10893,6060 L 11043,6060"/>
 <path fill="none" stroke="rgb(179,179,179)" stroke-linejoin="round" d="M 10893,4424 L 11043,4424"/>
 <path fill="none" stroke="rgb(179,179,179)" stroke-linejoin="round" d="M 10893,4424 L 11043,4424"/>
 <path fill="none" stroke="rgb(179,179,179)" stroke-linejoin="round" d="M 10893,2789 L 11043,2789"/>
 <path fill="none" stroke="rgb(179,179,179)" stroke-linejoin="round" d="M 10893,2789 L 11043,2789"/>
 <path fill="none" stroke="rgb(179,179,179)" stroke-linejoin="round" d="M 11043,14239 L 11043,2789"/>
 <path fill="none" stroke="rgb(255,66,14)" stroke-width="30" stroke-linejoin="round" d="M 11086,14239 L 11108,14239 11130,14239 11152,14239 11173,14239 11195,14239 11217,14239 11239,14239 11261,14239 11283,14239 11304,14163 11326,14086 11348,14239 11370,14239 11392,14239 11414,14239 11435,14239 11457,14239 11479,14239 11501,14239 11523,14239 11545,14239 11566,14239 11588,14239 11610,14239 11632,14239 11654,14239 11676,14239 11697,14239 11719,14239 11741,14239 11763,14239 11785,14239 11807,14239 11828,14239 11850,14239 11872,14239 11894,14239 11916,14239 11938,14239 11959,14239 11981,14239 12003,14239 12025,14239 12047,14239 12069,14239 12090,14239 12112,14239 12134,14239 12156,14239 12178,14163 12199,14239 12221,14239 12243,14239 12265,14239 12287,14239 12309,14239 12330,14239 12352,14239 12374,14239 12396,14239 12418,14239 12440,14239 12461,14239 12483,14239 12505,14239 12527,14239 12549,14239 12571,14239 12592,14239 12614,14239 12636,14239 12658,14239 12680,14239 12702,14239 12723,14239 12745,14239 12767,14239 12789,14163 12811,14239 12833,14239 12854,14239 12876,14239 12898,14239 12920,14239 12942,14239 12964,14239 12985,14239 13007,14239 13029,14239 13051,14239 13073,14239 13095,14239 13116,14239 13138,14239 13160,14239 13182,14239 13204,14239 13226,14239 13247,14239 13269,14239 13291,14239 13313,14239 13335,13855 13356,13603 13378,13814 13400,13267 13422,13084 13444,13854 13466,14239 13487,14239 13509,14239 13531,14239 13553,14239 13575,14239 13597,14239 13618,14239 13640,14239 13662,13854 13684,14239 13706,14239 13728,14239 13749,14239 13771,14239 13793,14239 13815,14239 13837,14239 13859,14239 13880,13469 13902,14239 13924,14239 13946,14239 13968,14239 13990,14239 14011,14239 14033,14239 14055,14239 14077,13854 14099,13854 14121,14239 14142,14239 14164,13858 14186,14239 14208,14239 14230,14239 14252,14239 14273,14239 14295,14239 14317,14239 14339,14239 14361,14239 14381,14239 14403,14239 14425,13854 14447,14239 14469,14239 14491,13854 14512,14239 14534,14239 14556,14239 14578,14239 14600,14239 14622,14239 14643,14239 14665,14239 14687,14239 14709,14239 14731,13854 14753,14239 14774,14239 14796,14239 14818,14239 14840,14239 14862,14239 14884,14239 14905,14239 14927,14239 14949,14239 14971,13854 14993,14239 15015,14239 15036,13854 15058,14239 15080,14239 15102,14239 15124,14239 15146,14239 15167,14239 15189,14239 15211,14239 15233,14239 15255,14239 15277,14239 15298,13854 15320,13858 15342,14239 15364,14239 15386,14239 15408,14239 15429,14239 15451,14239 15473,14239 15495,14239 15517,14239 15538,14239 15560,13854 15582,14239 15604,14239 15626,14239 15648,14239 15669,14239 15691,14239 15713,14239 15735,14239 15757,13858 15779,14239 15800,14239 15822,14239 15844,14239 15866,14239 15888,14239 15910,14239 15931,14239 15953,13854 15975,14239 15997,14239 16019,14239 16041,14239 16062,13854 16084,14239 16106,14239 16128,14239 16150,14239 16172,14239 16193,14239 16215,14239 16237,14239 16259,14239 16281,13858 16303,14239 16324,14239 16346,14239 16368,14239 16390,14239 16412,13854 16434,14239 16455,14239 16477,14239 16499,14239 16521,14239 16543,14239 16564,13854 16586,14239 16608,14239 16630,14239 16652,14239 16674,14239 16695,14239 16717,14239 16739,14239 16761,14239 16783,14239 16805,13858 16826,14239 16848,14239 16870,14239 16892,14239 16914,14239 16936,14239 16957,13849 16979,14239 17001,14239 17023,14239 17045,14239 17067,14239 17088,14239 17110,14239 17132,14239 17154,14239 17176,14239 17198,14239 17219,14239 17241,14239 17263,14239 17285,13854 17307,14239 17329,14239 17350,13854 17372,14239 17394,14239 17416,14239 17438,14239 17460,14239 17481,14239 17503,14239 17525,14239 17547,13478 17569,14239 17591,14239 17612,14239 17634,14239 17656,14239 17678,14239 17700,14239 17721,14239 17743,14239 17765,14239 17787,13858 17809,14239 17831,14239 17852,14239 17874,14239 17896,14239 17918,14239 17940,14239 17962,14239 17983,14239 18005,14239 18027,14239 18049,14239 18071,13854 18093,14239 18114,14239 18136,14239 18158,13854 18180,13835 18202,14239 18224,14239 18245,14239 18267,14239 18289,14239 18311,14239 18333,14239 18355,14239 18376,14239 18398,14239 18420,14239 18442,14239 18464,14239 18486,14239 18507,14239 18529,13854 18551,14239 18573,13431 18595,14239 18617,14239 18638,14239 18660,14239 18682,14239 18704,14239 18726,14239 18747,14239 18769,14239 18791,14239 18813,14239 18835,14239 18857,14239 18878,14239 18900,14239 18922,13854 18944,14239 18966,14239 18988,14239 19009,14239 19031,14239 19053,13858 19075,14239 19097,14239 19119,14239 19140,14239 19162,14239 19184,14239 19206,14239 19228,13854 19250,14239 19271,14239 19293,14239 19315,14239 19337,14239 19359,14239 19381,14239 19402,14239 19424,14239 19446,13854 19468,14239 19490,14239 19512,14239 19533,14239 19555,14239 19577,14239 19599,14239 19621,14239 19643,14239 19664,14239 19686,14239 19708,14239 19730,13849 19752,14239 19774,13469 19795,14239 19817,14239 19839,14239 19861,14239 19883,14239 19904,14239 19926,14239 19948,14239 19970,14239 19992,14239 20014,14239 20035,14239 20057,14239 20079,14239 20101,13854 20123,14239 20145,14239 20166,14239 20188,14239 20210,14239 20232,13469 20254,14239 20276,14239 20297,14239 20319,14239 20341,14239 20363,14239 20385,14239 20407,14239 20428,14239 20450,14239 20472,14239 20494,14239 20516,13849 20538,14239 20559,13854 20581,14239 20603,14239 20625,14239 20647,14239 20669,14239 20690,14239 20712,14239 20734,14239 20756,14239 20778,14239 20800,14239 20821,14239 20843,14239 20865,14239 20887,13858 20909,13084 20930,14239 20952,14239 20974,14239 20996,14239 21018,14239 21040,13849 21061,14239 21083,14239 21105,14239 21127,14239 21149,14239 21171,14239 21192,14239 21214,14239 21236,14239 21258,13450 21280,14239 21302,14239 21323,14239 21345,14239 21367,14239 21389,14239 21411,14239 21433,14239 21454,14239 21476,14239 21498,14239 21520,14239 21542,14239 21564,14239 21585,14239 21607,13858 21629,13854 21651,13814 21673,14239 21695,14239 21716,14239 21738,14239 21760,14239 21782,14239 21804,14239 21826,14239 21847,14239 21869,14239 21891,13858 21913,14239 21935,14239 21957,14239 21978,14239 22000,14239 22022,14239 22044,14239 22066,14239 22087,14239 22109,14239 22131,13854 22153,14239 22175,14239 22197,14239 22218,14239 22240,14239 22262,14239 22284,14239 22306,14239 22328,14239 22349,13478 22371,14239 22393,14239 22415,14239 22437,14239 22459,14239 22480,13854 22502,14239 22524,14239 22546,14239 22568,14239 22590,14239 22611,14239 22633,14239 22655,13858 22677,14239 22699,14239 22721,14239 22742,14239 22764,14239 22786,14239 22808,14239 22830,14239 22852,14239 22873,14239 22895,13469 22917,14239 22939,14239 22961,14239 22983,14239 23004,14239 23026,14239 23048,14239 23070,14239 23092,14239 23113,14239 23135,14239 23157,14239 23179,14239 23201,14239 23223,14239 23244,13854 23266,14239 23288,14239 23310,13858 23332,13819 23354,14239 23375,14239 23397,14239 23419,14239 23441,14239 23463,14239 23485,13858 23506,14239 23528,14239 23550,14239 23572,14239 23594,14239 23616,14239 23637,14239 23659,14239 23681,14239 23703,14239 23725,14239 23747,14239 23768,13854 23790,14239 23812,14239 23834,14239 23856,14239 23878,14239 23899,14239 23921,14239 23943,13854 23965,14239 23987,14239 24009,14239 24030,14239 24052,14239 24074,14239 24096,14239 24118,14239 24140,14239"/>
 <path fill="none" stroke="rgb(0,132,209)" stroke-width="40" stroke-linejoin="round" d="M 13247,10758 L 13269,14239 13291,11343 13313,10091 13335,6197 13356,4195 13378,6528 13400,3727 13422,3022 13444,7677 13466,10770 13487,10582 13509,10301 13531,10770 13553,9284 13575,10301 13597,10301 13618,10854 13640,8723 13662,10312 13684,12358 13706,12082 13728,12082 13749,12369 13771,10582 13793,11426 13815,10967 13837,10102 13859,8349 13880,10395 13902,11614 13924,11989 13946,12170 13968,10976 13990,10395 14011,9832 14033,10196 14055,8910 14077,8801 14099,9457 14121,10686 14142,10582 14164,10196 14186,12930 14208,13023 14230,13676 14252,13580 14273,13397 14295,13114 14317,12551 14339,11239 14361,12270 14381,11051 14403,9939 14425,9739 14447,11801 14469,12176 14491,12270 14512,13865 14534,13676 14556,13957 14578,13862 14600,13771 14622,13210 14643,13204 14665,13023 14687,12645 14709,11614 14731,10770 14753,13958 14774,13956 14796,13957 14818,13865 14840,13304 14862,13298 14884,12926 14905,11989 14927,10780 14949,9551 14971,9176 14993,10582 15015,11051 15036,10207 15058,13678 15080,13957 15102,14239 15124,14050 15146,14052 15167,13491 15189,12926 15211,12457 15233,12264 15255,11528 15277,10676 15298,10499 15320,10478 15342,13958 15364,14239 15386,13956 15408,14145 15429,13957 15451,13771 15473,13298 15495,13114 15517,13117 15538,12457 15560,12645 15582,14145 15604,14145 15626,13771 15648,13489 15669,13020 15691,12645 15713,12457 15735,11247 15757,12082 15779,14145 15800,13956 15822,13958 15844,13397 15866,12926 15888,13392 15910,12369 15931,11145 15953,11239 15975,12364 15997,12836 16019,12452 16041,12275 16062,12739 16084,14145 16106,13956 16128,13298 16150,13679 16172,13957 16193,13395 16215,12734 16237,12089 16259,10686 16281,11230 16303,13210 16324,13676 16346,13768 16368,13304 16390,13117 16412,12645 16434,13862 16455,14239 16477,14048 16499,13298 16521,11715 16543,13023 16564,11332 16586,13768 16608,13678 16630,13771 16652,13580 16674,13582 16695,13023 16717,13110 16739,12369 16761,11989 16783,10686 16805,11230 16826,13114 16848,13213 16870,13392 16892,12551 16914,12546 16936,11621 16957,10780 16979,13207 17001,13957 17023,14051 17045,13864 17067,13114 17088,12649 17110,13301 17132,11230 17154,11621 17176,12089 17198,10676 17219,8786 17241,8333 17263,7042 17285,5896 17307,8614 17329,7209 17350,8333 17372,9845 17394,10676 17416,10770 17438,11051 17460,10760 17481,10603 17503,9645 17525,9832 17547,10114 17569,12836 17591,13392 17612,13770 17634,13958 17656,13770 17678,14145 17700,13770 17721,13770 17743,13865 17765,11239 17787,11895 17809,12739 17831,14145 17852,14051 17874,13865 17896,13486 17918,13023 17940,12832 17962,12176 17983,11801 18005,11332 18027,10032 18049,8895 18071,8520 18093,9364 18114,10395 18136,10032 18158,10770 18180,13491 18202,14239 18224,14239 18245,14239 18267,14145 18289,13674 18311,13678 18333,13957 18355,13301 18376,12739 18398,12369 18420,11512 18442,11614 18464,9658 18486,9364 18507,7209 18529,7490 18551,10489 18573,11069 18595,14144 18617,14239 18638,14144 18660,13959 18682,13956 18704,13491 18726,13674 18747,13770 18769,13679 18791,13110 18813,12551 18835,11989 18857,11614 18878,11154 18900,9364 18922,9004 18944,12170 18966,11895 18988,11341 19009,10864 19031,10020 19053,10196 19075,12275 19097,13023 19119,12457 19140,12546 19162,12275 19184,12457 19206,10770 19228,10582 19250,11715 19271,12546 19293,12930 19315,12836 19337,12364 19359,11512 19381,11136 19402,10696 19424,9457 19446,10207 19468,12739 19490,12551 19512,12275 19533,11982 19555,11715 19577,11801 19599,11324 19621,9112 19643,10020 19664,8895 19686,7282 19708,6761 19730,4985 19752,9632 19774,7584 19795,13397 19817,13957 19839,13771 19861,14050 19883,13676 19904,14145 19926,13862 19948,14051 19970,13865 19992,13117 20014,13110 20035,11707 20057,10957 20079,10593 20101,9645 20123,12176 20145,12645 20166,12645 20188,12462 20210,12457 20232,11989 20254,14145 20276,13862 20297,14052 20319,13676 20341,13301 20363,12832 20385,12734 20407,12467 20428,11982 20450,9471 20472,10384 20494,8614 20516,8180 20538,10760 20559,10864 20581,13395 20603,13489 20625,13678 20647,13582 20669,13207 20690,13582 20712,12926 20734,12182 20756,11989 20778,10676 20800,10760 20821,9939 20843,9752 20865,6834 20887,7376 20909,7042 20930,10957 20952,11989 20974,11989 20996,11434 21018,11794 21040,12182 21061,13584 21083,13957 21105,14050 21127,13956 21149,13866 21171,13582 21192,13770 21214,12739 21236,12082 21258,13023 21280,14239 21302,14239 21323,13957 21345,14051 21367,13958 21389,13956 21411,13676 21433,13491 21454,13301 21476,12551 21498,12645 21520,11520 21542,10406 21564,9739 21585,10020 21607,7959 21629,9739 21651,12649 21673,14239 21695,14239 21716,14239 21738,14051 21760,13958 21782,13956 21804,13678 21826,13486 21847,13210 21869,13210 21891,12452 21913,13395 21935,14239 21957,13771 21978,13770 22000,13864 22022,13491 22044,12734 22066,13020 22087,11154 22109,10770 22131,10864 22153,14050 22175,13491 22197,13584 22218,13582 22240,13110 22262,12743 22284,11520 22306,10957 22328,10125 22349,10478 22371,12369 22393,12926 22415,12176 22437,11801 22459,11332 22480,11801 22502,13771 22524,13770 22546,13957 22568,13674 22590,13491 22611,13023 22633,13489 22655,12828 22677,13958 22699,13864 22721,14051 22742,14051 22764,13210 22786,13016 22808,12275 22830,13020 22852,11426 22873,11239 22895,10114 22917,14145 22939,14239 22961,13957 22983,14050 23004,13958 23026,14145 23048,13771 23070,13395 23092,13020 23113,12645 23135,12551 23157,11808 23179,11520 23201,9820 23223,9284 23244,7302 23266,8989 23288,10301 23310,10020 23332,13771 23354,14239 23375,14051 23397,14051 23419,14051 23441,14239 23463,13864 23485,13114 23506,13674 23528,13865 23550,13678 23572,13770 23594,13392 23616,13770 23637,12836 23659,12645 23681,12364 23703,11145 23725,10676 23747,11434 23768,8989 23790,12836 23812,12358 23834,11418 23856,12001 23878,10489 23899,10207 23921,10196 23943,10593 23965,11715 23987,12170 24009,12551 24030,12556 24052,11982 24074,11154 24096,11341 24118,9176 24140,9985"/>
 <path fill="none" stroke="rgb(87,157,28)" stroke-width="80" stroke-linejoin="round" stroke-dasharray="158,102" d="M 11060,14239 L 11077,14239 11104,14239 11121,14239 11147,14239 11165,14239 11191,14239 11209,14239 11235,14239 11252,14239 11278,14239 11296,14239 11322,14239 11339,14239 11366,14239 11383,14239 11409,14239 11427,14239 11453,14239 11470,14239 11497,14239 11514,14239 11540,14239 11558,14239 11584,14239 11601,14239 11628,14239 11645,14239 11671,14239 11689,14239 11715,14239 11732,14239 11759,14239 11776,14239 11802,14239 11820,14239 11846,14239 11863,14239 11890,14239 11907,14239 11933,14239 11951,14239 11977,14239 11994,14239 12021,14239 12038,14239 12064,14239 12082,14239 12108,14239 12125,14239 12152,14239 12169,14239 12195,14239 12213,14239 12239,14239 12256,14239 12282,14239 12300,14239 12326,14239 12344,14239 12370,14239 12387,14239 12413,14239 12431,14239 12457,14239 12475,14239 12501,14239 12518,14239 12544,14239 12562,14239 12588,14239 12606,14239 12632,14239 12649,14239 12675,14239 12693,14239 12719,14239 12737,14239 12763,14239 12780,14239 12807,14239 12824,14239 12850,14239 12868,14239 12894,14239 12911,14239 12938,14239 12955,14239 12981,14239 12999,14239 13025,14239 13042,14239 13068,14239 13086,14239 13112,14239 13130,14239 13156,14239 13173,14239 13199,14239 13217,14239 13243,14239 13261,14239 13287,14239 13304,14239 13330,14239 13348,14239 13374,14239 13391,14239 13418,14239 13435,14239 13461,14239 13479,14239 13505,14239 13522,14239 13549,14239 13566,14239 13592,14239 13610,14239 13636,14239 13654,14239 13680,14239 13697,14239 13723,14239 13741,14239 13767,14239 13784,14239 13811,14239 13828,14239 13854,14239 13872,14239 13898,14239 13915,14239 13942,14239 13959,14239 13985,14239 14003,14239 14029,14239 14046,14239 14073,14239 14090,14239 14116,14239 14134,14239 14160,14239 14177,14239 14204,14239 14221,14239 14247,14239 14265,14239 14291,14239 14308,14239 14335,14239 14352,14239 14377,14239 14395,14239 14421,14239 14438,14239 14465,14239 14482,14239 14508,14239 14526,14239 14552,14239 14569,14239 14596,14239 14613,14239 14639,14239 14657,14239 14683,14239 14700,14239 14727,14239 14744,14239 14770,14239 14788,14239 14814,14239 14831,14239 14857,14239 14875,14239 14901,14239 14919,14239 14945,14239 14962,14239 14989,14239 15006,14239 15032,14239 15050,14239 15076,14239 15093,14239 15119,14239 15137,14239 15163,14239 15181,14239 15207,14239 15224,14239 15251,14239 15268,14239 15294,14239 15312,14239 15338,14239 15355,14239 15382,14239 15399,14239 15425,14239 15443,14239 15469,14239 15486,14239 15512,14239 15530,14239 15556,14239 15574,14239 15600,14239 15617,14239 15643,14239 15661,14239 15687,14239 15705,14239 15731,14239 15748,14239 15774,14239 15792,14239 15818,14239 15835,14239 15862,14239 15879,14239 15905,14239 15923,14239 15949,14239 15966,14239 15993,14239 16010,14239 16036,14239 16054,14239 16080,14239 16097,14239 16124,14239 16141,14239 16167,14239 16185,14239 16211,14239 16228,14239 16255,14239 16272,14239 16298,14239 16316,14239 16342,14239 16359,14239 16386,14239 16403,14239 16429,14239 16447,14239 16473,14239 16490,14239 16517,14239 16534,14239 16560,14239 16578,14239 16604,14239 16622,14239 16648,14239 16665,14239 16691,14239 16709,14239 16735,14239 16752,14239 16779,14239 16796,14239 16822,14239 16840,14239 16866,14239 16883,14239 16910,14239 16927,14239 16953,14239 16971,14239 16997,14239 17014,14239 17041,14239 17058,14239 17084,14239 17102,14239 17128,14239 17145,14239 17172,14239 17189,14239 17215,14239 17233,14239 17259,14239 17276,14239 17303,14239 17320,14239 17346,14239 17364,14239 17390,14239 17407,14239 17433,14239 17451,14239 17477,14239 17495,14239 17521,14239 17538,14239 17564,14239 17582,14239 17608,14239 17626,14239 17652,14239 17669,14239 17695,14239 17713,14239 17739,14239 17757,14239 17783,14239 17800,14239 17826,14239 17844,14239 17870,14239 17888,14239 17914,14239 17931,14239 17957,14239 17975,14239 18001,14239 18019,14239 18045,14239 18062,14239 18088,14239 18106,14239 18132,14239 18150,14239 18176,14239 18193,14239 18219,14239 18237,14239 18263,14239 18281,14239 18307,14239 18324,14239 18350,14239 18368,14239 18394,14239 18411,14239 18438,14239 18455,14239 18481,14239 18499,14239 18525,14239 18542,14239 18569,14239 18586,14239 18612,14239 18630,14239 18656,14239 18673,14239 18700,14239 18717,14239 18743,14239 18761,14239 18787,14239 18804,14239 18831,14239 18848,14239 18874,14239 18892,14239 18918,14239 18935,14239 18962,14239 18979,14239 19005,14239 19023,14239 19049,14239 19066,14239 19093,14239 19110,14239 19136,14239 19154,14239 19180,14239 19197,14239 19224,14239 19241,14239 19267,14239 19285,14239 19311,14239 19328,14239 19355,14239 19372,14239 19398,14239 19416,14239 19442,14239 19459,14239 19486,14239 19503,14239 19529,14239 19547,14239 19573,14239 19590,14239 19617,14239 19634,14239 19660,14239 19678,14239 19704,14239 19721,14239 19748,14239 19765,14239 19791,14239 19809,14239 19835,14239 19852,14239 19879,14239 19896,14239 19922,14239 19940,14239 19966,14239 19983,14239 20009,14239 20027,14239 20053,14239 20071,14239 20097,14239 20114,14239 20140,14239 20158,14239 20184,14239 20202,14239 20228,14239 20245,14239 20271,14239 20289,14239 20315,14239 20333,14239 20359,14239 20376,14239 20402,14239 20420,14239 20446,14239 20464,14239 20490,14239 20507,14239 20533,14239 20551,14239 20577,14239 20595,14239 20621,14239 20638,14239 20665,14239 20682,14239 20708,14239 20726,14239 20752,14239 20769,14239 20795,14239 20813,14239 20839,14239 20857,14239 20883,14239 20900,14239 20926,14239 20944,14239 20970,14239 20987,14239 21014,14239 21031,14239 21057,14239 21075,14239 21101,14239 21119,14239 21145,14239 21162,14239 21188,14239 21206,14239 21232,14239 21249,14239 21276,14239 21293,14239 21319,14239 21337,14239 21363,14239 21380,14239 21407,14239 21424,14239 21450,14239 21468,14239 21494,14239 21511,14239 21538,14239 21555,14239 21581,14239 21599,14239 21625,14239 21642,14239 21669,14239 21686,14239 21712,14239 21730,14239 21756,14239 21773,14239 21800,14239 21817,14239 21843,14239 21861,14239 21887,14239 21904,14239 21931,14239 21948,14239 21974,14239 21992,14239 22018,14239 22035,14239 22062,14239 22079,14239 22105,14239 22123,14239 22149,14239 22166,14239 22193,14239 22210,14239 22236,14239 22254,14239 22280,14239 22297,14239 22324,14239 22341,14239 22367,14239 22385,14239 22411,14239 22428,14239 22455,14239 22472,14239 22498,14239 22516,14239 22542,14239 22559,14239 22585,14239 22603,14239 22629,14239 22647,14239 22673,14239 22690,14239 22717,14239 22734,14239 22760,14239 22778,14239 22804,14239 22821,14239 22848,14239 22865,14239 22891,14239 22909,14239 22935,14239 22952,14239 22978,14239 22996,14239 23022,14239 23040,14239 23066,14239 23083,14239 23109,14239 23127,14239 23153,14239 23171,14239 23197,14239 23214,14239 23240,14239 23258,14239 23284,14239 23302,14239 23328,14239 23345,14239 23371,14239 23389,14239 23415,14239 23433,14239 23459,14239 23476,14239 23502,14239 23520,14239 23546,14239 23563,14239 23590,14239 23607,14239 23633,14239 23651,14239 23677,14239 23694,14239 23721,14239 23738,14239 23764,14239 23782,14239 23808,14239 23825,14239 23852,14239 23869,14239 23895,14239 23913,14239 23939,14239 23956,14239 23983,14239 24000,14239 24026,14239 24044,14239 24070,14239 24087,14239 24114,14239 24131,14239 24157,14239"/>
 <text class="TextShape"><tspan class="TextParagraph" font-family="Liberation Sans, sans-serif" font-size="353px" font-weight="400"><tspan class="TextPosition" x="10950" y="14807"><tspan fill="rgb(0,0,0)" stroke="none">0</tspan></tspan></tspan></text>
 <text class="TextShape"><tspan class="TextParagraph" font-family="Liberation Sans, sans-serif" font-size="353px" font-weight="400"><tspan class="TextPosition" x="13041" y="14807"><tspan fill="rgb(0,0,0)" stroke="none">10</tspan></tspan></tspan></text>
 <text class="TextShape"><tspan class="TextParagraph" font-family="Liberation Sans, sans-serif" font-size="353px" font-weight="400"><tspan class="TextPosition" x="15224" y="14807"><tspan fill="rgb(0,0,0)" stroke="none">20</tspan></tspan></tspan></text>
 <text class="TextShape"><tspan class="TextParagraph" font-family="Liberation Sans, sans-serif" font-size="353px" font-weight="400"><tspan class="TextPosition" x="17407" y="14807"><tspan fill="rgb(0,0,0)" stroke="none">30</tspan></tspan></tspan></text>
 <text class="TextShape"><tspan class="TextParagraph" font-family="Liberation Sans, sans-serif" font-size="353px" font-weight="400"><tspan class="TextPosition" x="19590" y="14807"><tspan fill="rgb(0,0,0)" stroke="none">40</tspan></tspan></tspan></text>
 <text class="TextShape"><tspan class="TextParagraph" font-family="Liberation Sans, sans-serif" font-size="353px" font-weight="400"><tspan class="TextPosition" x="21773" y="14807"><tspan fill="rgb(0,0,0)" stroke="none">50</tspan></tspan></tspan></text>
 <text class="TextShape"><tspan class="TextParagraph" font-family="Liberation Sans, sans-serif" font-size="353px" font-weight="400"><tspan class="TextPosition" x="23956" y="14807"><tspan fill="rgb(0,0,0)" stroke="none">60</tspan></tspan></tspan></text>
 <text class="TextShape"><tspan class="TextParagraph" font-family="Liberation Sans, sans-serif" font-size="353px" font-weight="400"><tspan class="TextPosition" x="26139" y="14807"><tspan fill="rgb(0,0,0)" stroke="none">70</tspan></tspan></tspan></text>
 <text class="TextShape"><tspan class="TextParagraph" font-family="Liberation Sans, sans-serif" font-size="353px" font-weight="400"><tspan class="TextPosition" x="10608" y="14360"><tspan fill="rgb(0,0,0)" stroke="none">0</tspan></tspan></tspan></text>
 <text class="TextShape"><tspan class="TextParagraph" font-family="Liberation Sans, sans-serif" font-size="353px" font-weight="400"><tspan class="TextPosition" x="10608" y="12724"><tspan fill="rgb(0,0,0)" stroke="none">5</tspan></tspan></tspan></text>
 <text class="TextShape"><tspan class="TextParagraph" font-family="Liberation Sans, sans-serif" font-size="353px" font-weight="400"><tspan class="TextPosition" x="10423" y="11088"><tspan fill="rgb(0,0,0)" stroke="none">10</tspan></tspan></tspan></text>
 <text class="TextShape"><tspan class="TextParagraph" font-family="Liberation Sans, sans-serif" font-size="353px" font-weight="400"><tspan class="TextPosition" x="10423" y="9452"><tspan fill="rgb(0,0,0)" stroke="none">15</tspan></tspan></tspan></text>
 <text class="TextShape"><tspan class="TextParagraph" font-family="Liberation Sans, sans-serif" font-size="353px" font-weight="400"><tspan class="TextPosition" x="10423" y="7816"><tspan fill="rgb(0,0,0)" stroke="none">20</tspan></tspan></tspan></text>
 <text class="TextShape"><tspan class="TextParagraph" font-family="Liberation Sans, sans-serif" font-size="353px" font-weight="400"><tspan class="TextPosition" x="10423" y="6180"><tspan fill="rgb(0,0,0)" stroke="none">25</tspan></tspan></tspan></text>
 <text class="TextShape"><tspan class="TextParagraph" font-family="Liberation Sans, sans-serif" font-size="353px" font-weight="400"><tspan class="TextPosition" x="10423" y="4544"><tspan fill="rgb(0,0,0)" stroke="none">30</tspan></tspan></tspan></text>
 <text class="TextShape"><tspan class="TextParagraph" font-family="Liberation Sans, sans-serif" font-size="353px" font-weight="400"><tspan class="TextPosition" x="10423" y="2909"><tspan fill="rgb(0,0,0)" stroke="none">35</tspan></tspan></tspan></text>
 <text class="TextShape"><tspan class="TextParagraph" font-family="Liberation Sans, sans-serif" font-size="459px" font-weight="400"><tspan class="TextPosition" x="12480" y="1024"><tspan fill="rgb(0,0,0)" stroke="none">L4S: CUBIC(50Mbps) vs CUBIC(40Mbps/ECT0 unrespns&apos;ve)</tspan></tspan></tspan></text>
 <text class="TextShape"><tspan class="TextParagraph" font-family="Liberation Sans, sans-serif" font-size="388px" font-weight="400"><tspan class="TextPosition" x="15349" y="2047"><tspan fill="rgb(0,0,0)" stroke="none">qdisc:dualpi2 bandwidth:50Mbit rtt:20ms</tspan></tspan></tspan></text>
 <path fill="rgb(221,221,221)" stroke="none" d="M 3135,8881 L 210,8881 210,7288 6060,7288 6060,8881 3135,8881 Z"/>
 <path fill="none" stroke="rgb(87,157,28)" stroke-width="80" stroke-linejoin="round" stroke-dasharray="158,102" d="M 326,7586 L 1926,7586"/>
 <path fill="none" stroke="rgb(0,132,209)" stroke-width="40" stroke-linejoin="round" d="M 326,8084 L 1926,8084"/>
 <path fill="none" stroke="rgb(255,66,14)" stroke-width="30" stroke-linejoin="round" d="M 326,8581 L 1926,8581"/>
 <text class="TextShape"><tspan class="TextParagraph" font-family="Liberation Sans, sans-serif" font-size="353px" font-weight="400"><tspan class="TextPosition" x="2026" y="7706"><tspan fill="rgb(0,0,0)" stroke="none">CE mark prob (L native)</tspan></tspan></tspan></text>
 <text class="TextShape"><tspan class="TextParagraph" font-family="Liberation Sans, sans-serif" font-size="353px" font-weight="400"><tspan class="TextPosition" x="2026" y="8203"><tspan fill="rgb(0,0,0)" stroke="none">CE mark prob (L coupled)</tspan></tspan></tspan></text>
 <text class="TextShape"><tspan class="TextParagraph" font-family="Liberation Sans, sans-serif" font-size="353px" font-weight="400"><tspan class="TextPosition" x="2026" y="8701"><tspan fill="rgb(0,0,0)" stroke="none">CE mark prob (C)</tspan></tspan></tspan></text>
 <text class="TextShape"><tspan class="TextParagraph" font-family="Liberation Sans, sans-serif" font-size="423px" font-weight="400"><tspan class="TextPosition" x="17698" y="15708"><tspan fill="rgb(0,0,0)" stroke="none">Time (s)</tspan></tspan></tspan></text>
 <text class="TextShape" transform="rotate(-90 9641 9558)"><tspan class="TextParagraph" font-family="Liberation Sans, sans-serif" font-size="423px" font-weight="400"><tspan class="TextPosition" x="9641" y="9558"><tspan fill="rgb(0,0,0)" stroke="none">Prob (%)</tspan></tspan></tspan></text>
</svg>