<?xml version="1.0" encoding="UTF-8"?>
<!DOCTYPE svg PUBLIC "-//W3C//DTD SVG 1.1//EN" "http://www.w3.org/Graphics/SVG/1.1/DTD/svg11.dtd">
<svg width="288mm" height="162mm" viewBox="0 0 28800 16200" version="1.1" xmlns="http://www.w3.org/2000/svg" xmlns:xlink="http://www.w3.org/1999/xlink" stroke-width="28.222" stroke-linejoin="round" xml:space="preserve">
 <path fill="rgb(255,255,255)" stroke="none" d="M 14424,16226 L 0,16226 0,0 28848,0 28848,16226 14424,16226 Z"/>
 <path fill="rgb(221,221,221)" stroke="none" d="M 18723,14130 L 11078,14130 11078,2769 26369,2769 26369,14130 18723,14130 Z"/>
 <path fill="none" stroke="rgb(179,179,179)" stroke-linejoin="round" d="M 18723,14130 L 11078,14130 11078,2769 26369,2769 26369,14130 18723,14130 Z"/>
 <path fill="none" stroke="rgb(179,179,179)" stroke-linejoin="round" d="M 26369,14129 L 11078,14129"/>
 <path fill="none" stroke="rgb(179,179,179)" stroke-linejoin="round" d="M 26369,12024 L 11078,12024"/>
 <path fill="none" stroke="rgb(179,179,179)" stroke-linejoin="round" d="M 26369,9920 L 11078,9920"/>
 <path fill="none" stroke="rgb(179,179,179)" stroke-linejoin="round" d="M 26369,7817 L 11078,7817"/>
 <path fill="none" stroke="rgb(179,179,179)" stroke-linejoin="round" d="M 26369,5713 L 11078,5713"/>
 <path fill="none" stroke="rgb(179,179,179)" stroke-linejoin="round" d="M 26369,3609 L 11078,3609"/>
 <path fill="none" stroke="rgb(179,179,179)" stroke-linejoin="round" d="M 11078,14279 L 11078,14129"/>
 <path fill="none" stroke="rgb(179,179,179)" stroke-linejoin="round" d="M 11078,14279 L 11078,14129"/>
 <path fill="none" stroke="rgb(179,179,179)" stroke-linejoin="round" d="M 13262,14279 L 13262,14129"/>
 <path fill="none" stroke="rgb(179,179,179)" stroke-linejoin="round" d="M 13262,14279 L 13262,14129"/>
 <path fill="none" stroke="rgb(179,179,179)" stroke-linejoin="round" d="M 15446,14279 L 15446,14129"/>
 <path fill="none" stroke="rgb(179,179,179)" stroke-linejoin="round" d="M 15446,14279 L 15446,14129"/>
 <path fill="none" stroke="rgb(179,179,179)" stroke-linejoin="round" d="M 17630,14279 L 17630,14129"/>
 <path fill="none" stroke="rgb(179,179,179)" stroke-linejoin="round" d="M 17630,14279 L 17630,14129"/>
 <path fill="none" stroke="rgb(179,179,179)" stroke-linejoin="round" d="M 19815,14279 L 19815,14129"/>
 <path fill="none" stroke="rgb(179,179,179)" stroke-linejoin="round" d="M 19815,14279 L 19815,14129"/>
 <path fill="none" stroke="rgb(179,179,179)" stroke-linejoin="round" d="M 21999,14279 L 21999,14129"/>
 <path fill="none" stroke="rgb(179,179,179)" stroke-linejoin="round" d="M 21999,14279 L 21999,14129"/>
 <path fill="none" stroke="rgb(179,179,179)" stroke-linejoin="round" d="M 24184,14279 L 24184,14129"/>
 <path fill="none" stroke="rgb(179,179,179)" stroke-linejoin="round" d="M 24184,14279 L 24184,14129"/>
 <path fill="none" stroke="rgb(179,179,179)" stroke-linejoin="round" d="M 26369,14279 L 26369,14129"/>
 <path fill="none" stroke="rgb(179,179,179)" stroke-linejoin="round" d="M 26369,14279 L 26369,14129"/>
 <path fill="none" stroke="rgb(179,179,179)" stroke-linejoin="round" d="M 11078,14129 L 26369,14129"/>
 <path fill="none" stroke="rgb(179,179,179)" stroke-linejoin="round" d="M 10928,14129 L 11078,14129"/>
 <path fill="none" stroke="rgb(179,179,179)" stroke-linejoin="round" d="M 10928,14129 L 11078,14129"/>
 <path fill="none" stroke="rgb(179,179,179)" stroke-linejoin="round" d="M 10928,12024 L 11078,12024"/>
 <path fill="none" stroke="rgb(179,179,179)" stroke-linejoin="round" d="M 10928,12024 L 11078,12024"/>
 <path fill="none" stroke="rgb(179,179,179)" stroke-linejoin="round" d="M 10928,9920 L 11078,9920"/>
 <path fill="none" stroke="rgb(179,179,179)" stroke-linejoin="round" d="M 10928,9920 L 11078,9920"/>
 <path fill="none" stroke="rgb(179,179,179)" stroke-linejoin="round" d="M 10928,7817 L 11078,7817"/>
 <path fill="none" stroke="rgb(179,179,179)" stroke-linejoin="round" d="M 10928,7817 L 11078,7817"/>
 <path fill="none" stroke="rgb(179,179,179)" stroke-linejoin="round" d="M 10928,5713 L 11078,5713"/>
 <path fill="none" stroke="rgb(179,179,179)" stroke-linejoin="round" d="M 10928,5713 L 11078,5713"/>
 <path fill="none" stroke="rgb(179,179,179)" stroke-linejoin="round" d="M 10928,3609 L 11078,3609"/>
 <path fill="none" stroke="rgb(179,179,179)" stroke-linejoin="round" d="M 10928,3609 L 11078,3609"/>
 <path fill="none" stroke="rgb(179,179,179)" stroke-linejoin="round" d="M 11078,14129 L 11078,2768"/>
 <path fill="none" stroke="rgb(179,179,179)" stroke-linejoin="round" d="M 26519,14129 L 26369,14129"/>
 <path fill="none" stroke="rgb(179,179,179)" stroke-linejoin="round" d="M 26519,14129 L 26369,14129"/>
 <path fill="none" stroke="rgb(179,179,179)" stroke-linejoin="round" d="M 26519,11856 L 26369,11856"/>
 <path fill="none" stroke="rgb(179,179,179)" stroke-linejoin="round" d="M 26519,11856 L 26369,11856"/>
 <path fill="none" stroke="rgb(179,179,179)" stroke-linejoin="round" d="M 26519,9584 L 26369,9584"/>
 <path fill="none" stroke="rgb(179,179,179)" stroke-linejoin="round" d="M 26519,9584 L 26369,9584"/>
 <path fill="none" stroke="rgb(179,179,179)" stroke-linejoin="round" d="M 26519,7312 L 26369,7312"/>
 <path fill="none" stroke="rgb(179,179,179)" stroke-linejoin="round" d="M 26519,7312 L 26369,7312"/>
 <path fill="none" stroke="rgb(179,179,179)" stroke-linejoin="round" d="M 26519,5040 L 26369,5040"/>
 <path fill="none" stroke="rgb(179,179,179)" stroke-linejoin="round" d="M 26519,5040 L 26369,5040"/>
 <path fill="none" stroke="rgb(179,179,179)" stroke-linejoin="round" d="M 26519,2767 L 26369,2767"/>
 <path fill="none" stroke="rgb(179,179,179)" stroke-linejoin="round" d="M 26519,2767 L 26369,2767"/>
 <path fill="none" stroke="rgb(179,179,179)" stroke-linejoin="round" d="M 26369,14129 L 26369,2767"/>
 <path fill="none" stroke="rgb(255,149,14)" stroke-width="20" stroke-linejoin="round" d="M 13279,14129 L 13280,14106 13288,13975 13297,13967 13306,13912 13315,13993 13323,13934 13332,14033 13341,13979 13350,13936 13358,14015 13367,13997 13376,14013 13384,14025 13393,13966 13402,14001 13411,14033 13419,13980 13428,13966 13437,13970 13446,13986 13456,13991 13463,14019 13472,13973 13481,13979 13490,13993 13498,14004 13507,13998 13516,13985 13524,14007 13533,13997 13551,13971 13559,13987 13568,13960 13577,13984 13585,13973 13594,13989 13603,13964 13612,14002 13621,13978 13629,13974 13638,13964 13647,14000 13655,13978 13664,13989 13673,13968 13682,13960 13690,13977 13699,14018 13708,13995 13717,14008 13725,13965 13734,14008 13743,13972 13751,13999 13760,13976 13769,14016 13778,14017 13787,13972 13795,14007 13804,14016 13813,13985 13821,14018 13830,13964 13839,14025 13848,13998 13856,13979 13865,13967 13874,14001 13883,14011 13891,14008 13900,13966 13909,13961 13918,14010 13926,13996 13935,13998 13944,14010 13953,14003 13970,14002 13979,14005 13988,13974 13996,13982 14005,13968 14014,13974 14022,13985 14031,13967 14040,13965 14049,13998 14057,14009 14066,14012 14075,14006 14084,14027 14092,14002 14101,13966 14110,14018 14119,14003 14127,14025 14136,14012 14153,14008 14162,14020 14171,13969 14180,13961 14189,13980 14197,14026 14215,13982 14223,13979 14232,14004 14241,14019 14250,13991 14258,13988 14267,13955 14276,14022 14285,14018 14293,13995 14302,14005 14311,13991 14320,13985 14328,13990 14337,14021 14346,13965 14354,13998 14363,14009 14372,13999 14381,14028 14389,14010 14398,13975 14407,13968 14416,13981 14424,14017 14432,13993 14441,14028 14450,13962 14458,13995 14467,13988 14485,13980 14493,13967 14502,14019 14511,13973 14528,13986 14537,14002 14546,13976 14555,14012 14563,14007 14572,14014 14581,13970 14590,13976 14598,13986 14607,13974 14616,13960 14624,13981 14633,13995 14642,14009 14651,13980 14659,13965 14668,13978 14677,13976 14686,14016 14694,13985 14703,14020 14712,13996 14720,13993 14729,14011 14738,14015 14747,14010 14755,13957 14764,13993 14773,14017 14790,14003 14799,13987 14808,14023 14817,14016 14825,14001 14834,13977 14843,14001 14852,13976 14860,14010 14869,13958 14878,13980 14887,13967 14895,14000 14904,13988 14913,13965 14921,13970 14930,14009 14939,14019 14948,13964 14956,14022 14965,13949 14974,13973 14983,13999 14991,14007 15000,13983 15009,14020 15018,14015 15026,13965 15035,14002 15044,13982 15053,14008 15061,13994 15070,14021 15079,13978 15088,13978 15096,13961 15105,13972 15114,13991 15122,13985 15131,13959 15140,14009 15149,13968 15157,14010 15166,13961 15175,13996 15184,14024 15192,13995 15210,14009 15219,13965 15227,14000 15236,14007 15245,14024 15254,13971 15262,13981 15271,14005 15280,13969 15288,14013 15297,13971 15306,13976 15315,13988 15323,13986 15332,13976 15341,14012 15350,13989 15358,14017 15367,13977 15376,13961 15385,14001 15393,13999 15402,13976 15411,13964 15420,13959 15428,14009 15437,14004 15446,13983 15455,13980 15463,13967 15472,14004 15481,13981 15490,14014 15498,13973 15507,13971 15524,13971 15533,13999 15542,13981 15551,13952 15559,13991 15568,13972 15577,14002 15586,13991 15594,13995 15612,13975 15629,13975 15638,13972 15647,13986 15656,13991 15664,14005 15682,13994 15690,14007 15699,13976 15708,13971 15717,13978 15726,14007 15743,13993 15752,13952 15760,13994 15769,13982 15778,13964 15787,13981 15795,14014 15804,13988 15813,14001 15822,13959 15830,13972 15839,13997 15848,13985 15857,13968 15865,13987 15874,14002 15883,13969 15892,13985 15900,13976 15909,14014 15918,13969 15926,13999 15935,14013 15944,14008 15953,13962 15961,13977 15970,13962 15979,13974 15988,13986 15996,13973 16005,13974 16014,13991 16022,13990 16031,13998 16040,13976 16049,13971 16057,13979 16066,13984 16075,13961 16084,13969 16092,13981 16101,13973 16110,13960 16119,14012 16127,13964 16136,13998 16145,13988 16154,13980 16162,14006 16171,13971 16180,14013 16189,13970 16197,14014 16206,14013 16215,14006 16223,13997 16232,13985 16241,13975 16250,14004 16258,13978 16267,14011 16276,13973 16285,14008 16294,14019 16302,13978 16311,13994 16320,13995 16329,13980 16337,13998 16346,13998 16355,14014 16364,14002 16372,13989 16381,13971 16390,14013 16398,14004 16407,13973 16416,14012 16425,13963 16433,13992 16442,13976 16451,13999 16459,14006 16468,13974 16477,14005 16486,13981 16494,13953 16503,14005 16521,13956 16529,13961 16538,13961 16547,13983 16556,14001 16564,13999 16573,13993 16591,13986 16599,13956 16608,13985 16617,13996 16625,13957 16634,13993 16643,14007 16652,13988 16661,13998 16669,13960 16678,14000 16687,14007 16695,13987 16704,13970 16713,14003 16722,14012 16730,13983 16739,13975 16748,13991 16757,13972 16765,14015 16774,14010 16783,13988 16791,13981 16800,13990 16809,13964 16818,13994 16826,13990 16835,13967 16844,14006 16853,14013 16862,14012 16870,13972 16879,13993 16888,14004 16896,13973 16905,14008 16914,13974 16923,13978 16931,13985 16940,14002 16949,13979 16958,13995 16966,13976 16984,13991 16992,13960 17001,13974 17010,13994 17019,14000 17027,13981 17036,13971 17045,13960 17054,13982 17062,14002 17071,13998 17080,14009 17089,13987 17097,14016 17106,13982 17115,13977 17124,14004 17132,13957 17141,13964 17150,13973 17159,14000 17167,14013 17176,13961 17185,13979 17194,13978 17202,13986 17211,14007 17220,13999 17228,13979 17237,14010 17246,13979 17255,13984 17263,14007 17272,13979 17281,13985 17290,14016 17298,13963 17307,13975 17317,13991 17325,13979 17333,14007 17342,13971 17360,14007 17368,14005 17377,13965 17386,13983 17395,13971 17403,14012 17412,14005 17421,13965 17430,13975 17438,13973 17447,13965 17456,13971 17464,13990 17473,13995 17482,14004 17491,13967 17499,14003 17508,14008 17517,13958 17526,13956 17534,14012 17543,13974 17552,13953 17561,13962 17569,13969 17578,13962 17587,13976 17595,13996 17604,14021 17613,13959 17622,13994 17631,14009 17639,13990 17648,13980 17657,13997 17665,13987 17674,13983 17683,13969 17692,14007 17700,13989 17709,14027 17718,14020 17727,14014 17735,14014 17744,13979 17753,14017 17762,13988 17770,13968 17779,13974 17788,13978 17797,13998 17805,14012 17814,14018 17823,13989 17831,14007 17840,13986 17849,13979 17858,13999 17866,14017 17875,13992 17884,14018 17893,13979 17902,13990 17910,14011 17919,14013 17928,13969 17936,14010 17945,13989 17963,13976 17971,13985 17980,13967 17989,13979 17998,13965 18006,14006 18015,14015 18024,13975 18032,13996 18041,14009 18050,14019 18059,13976 18067,13992 18076,14003 18094,14021 18102,13998 18111,13989 18120,13991 18137,13991 18146,13979 18155,13992 18163,14002 18172,14007 18181,14003 18190,14004 18199,14009 18207,14015 18216,14034 18225,14041 18233,14040 18242,14010 18251,14015 18260,14025 18269,13989 18277,13999 18286,14009 18295,13995 18303,14011 18312,14023 18321,13979 18330,13986 18338,14017 18347,13993 18356,14021 18365,14008 18373,13978 18382,13995 18391,13977 18399,13987 18408,13990 18417,13965 18426,13975 18434,14011 18443,13996 18452,13984 18461,14022 18469,14012 18478,14012 18487,14016 18496,13968 18504,13986 18513,13969 18522,13987 18531,14012 18539,14001 18548,13967 18557,13970 18566,13965 18574,14004 18583,13989 18592,13994 18600,13995 18609,14014 18618,14021 18627,14006 18635,13984 18644,14026 18653,14034 18662,14026 18670,13983 18679,13964 18688,13997 18696,13980 18705,13984 18714,13968 18723,13992 18731,13984 18740,13980 18749,13985 18758,14015 18767,13979 18775,13993 18784,13979 18801,13973 18810,13952 18819,13979 18828,13991 18836,13961 18845,13974 18854,13975 18863,13965 18871,14014 18880,13976 18889,14010 18898,13968 18915,13975 18924,13965 18933,14004 18941,14013 18959,13939 18967,13991 18976,13997 18985,14005 19002,13961 19011,13995 19020,13983 19029,13979 19037,14018 19046,13965 19055,13979 19063,13964 19072,13992 19081,13970 19090,13984 19098,13976 19107,14007 19116,14015 19125,14004 19133,13983 19142,13964 19151,14004 19160,13954 19168,14004 19177,13969 19186,14006 19195,14012 19203,13968 19212,13988 19221,13961 19230,14010 19238,14001 19247,13983 19256,13996 19264,13997 19273,13999 19282,13984 19291,13995 19299,13981 19308,13977 19317,13970 19326,14003 19334,13976 19343,14000 19361,13963 19369,14007 19378,13981 19387,13977 19396,13991 19404,13978 19413,13964 19422,13970 19431,14005 19439,13998 19448,14013 19466,13984 19474,13985 19483,13968 19492,13975 19500,13970 19509,13997 19518,13998 19527,13965 19535,13994 19553,13953 19562,13963 19570,14003 19579,14003 19588,13944 19597,13987 19605,13979 19614,14002 19623,13976 19631,13996 19640,13973 19649,13996 19658,13961 19667,13954 19675,13991 19684,14004 19693,13972 19702,13992 19710,14012 19719,13980 19728,13985 19736,13999 19745,13983 19754,14006 19763,13949 19771,13968 19780,13962 19798,14010 19806,14004 19815,13994 19824,14028 19833,14069 19841,13990 19850,14047 19859,13987 19868,14001 19876,13973 19885,14004 19894,13995 19911,13960 19920,14010 19929,13971 19937,13975 19946,13986 19955,13996 19964,14014 19972,14002 19981,13992 19990,13960 19999,14010 20007,14009 20016,13974 20025,13963 20033,13969 20042,13969 20051,13977 20060,13996 20069,13969 20077,13984 20086,13956 20095,13984 20103,14011 20112,13988 20121,13996 20130,14000 20138,13993 20147,14019 20156,13963 20165,13976 20173,13986 20182,14002 20191,13998 20200,13996 20208,13983 20217,13964 20226,14002 20234,13974 20243,13974 20252,13992 20261,13977 20269,13954 20278,13974 20287,13964 20296,13966 20304,13987 20313,13982 20322,13997 20331,13954 20339,13981 20348,13992 20357,13981 20366,13986 20374,13989 20383,14004 20392,14011 20401,13961 20409,14009 20418,13985 20427,13980 20435,13963 20445,13960 20462,13999 20471,13978 20479,13953 20488,14004 20497,13972 20505,13965 20514,13996 20523,14000 20532,13982 20540,14002 20549,13987 20558,13981 20567,13968 20575,14009 20584,13972 20593,13953 20601,13993 20610,14002 20619,13999 20628,13972 20637,14004 20646,13954 20663,13985 20671,13978 20680,13969 20689,14016 20698,14006 20706,13972 20715,14011 20724,13970 20733,13976 20741,13973 20750,13963 20759,13996 20768,13965 20776,13999 20785,14011 20796,13960 20802,13979 20811,13985 20820,13983 20829,13997 20838,14014 20846,13981 20855,13986 20864,13981 20872,13962 20881,14006 20890,13977 20899,14018 20907,13975 20916,13999 20925,13968 20934,13981 20942,14013 20951,13978 20960,13977 20968,14017 20977,13982 20986,13970 20995,13998 21004,13998 21021,13976 21030,13966 21039,13995 21047,13994 21056,14000 21065,13981 21073,13986 21082,13982 21091,13998 21100,13987 21108,14007 21117,13993 21126,14001 21135,14009 21143,13973 21152,14000 21161,13969 21169,13949 21178,14010 21187,13995 21196,13981 21205,13946 21213,13999 21222,13995 21231,13958 21239,13973 21248,13951 21257,13975 21266,14014 21274,13989 21283,14009 21292,13976 21301,14010 21309,14043 21318,13995 21327,13997 21336,14023 21344,13982 21353,13999 21370,14000 21379,13993 21388,13962 21397,13984 21406,13991 21414,14016 21423,13994 21432,14001 21440,14004 21449,14011 21458,13992 21467,13956 21475,13989 21485,13965 21493,13979 21502,14005 21510,13997 21519,14003 21528,13972 21536,13974 21545,13982 21554,13974 21571,13989 21580,14005 21589,13996 21598,13971 21606,14014 21615,13984 21624,13971 21633,13963 21641,13979 21650,13984 21659,14015 21668,13996 21676,13977 21685,14051 21694,14019 21703,14041 21711,14022 21720,14036 21729,14030 21738,13963 21746,14001 21755,14013 21764,13998 21773,14003 21781,13969 21790,13951 21799,14012 21816,13965 21825,13984 21834,13996 21842,13973 21851,14000 21860,13979 21869,14019 21877,13978 21886,14013 21895,13997 21904,14006 21912,14013 21921,13986 21930,13960 21939,13993 21947,13972 21956,13984 21965,14019 21974,14020 21982,13966 21991,13972 22000,14020 22008,13996 22017,13962 22026,14010 22035,13984 22043,13991 22061,14009 22070,13995 22078,13977 22087,13980 22104,13969 22113,13983 22131,13974 22139,13962 22148,13978 22157,14021 22166,14004 22174,13980 22183,13994 22192,13984 22201,14016 22209,13977 22218,14021 22227,13997 22236,14011 22244,14014 22253,13989 22262,13999 22271,13993 22279,13966 22288,13980 22297,14003 22305,14009 22314,13955 22323,13967 22332,13994 22340,14023 22349,14010 22358,14012 22377,14005 22385,14022 22393,13996 22402,13998 22419,13982 22437,14003 22445,14003 22463,14010 22472,13991 22480,14006 22489,13974 22498,14016 22507,13971 22515,13985 22524,14017 22533,14017 22542,13967 22550,13975 22559,14007 22568,13970 22576,13981 22585,13991 22594,14009 22603,13964 22611,13994 22620,13965 22629,13992 22638,14013 22646,13973 22655,13981 22664,13986 22673,13964 22681,14003 22690,14020 22699,13999 22708,14004 22716,13966 22725,13977 22734,14017 22743,13971 22751,13996 22760,13973 22769,14015 22777,14024 22786,13963 22795,13967 22804,14007 22813,14002 22821,13981 22830,13987 22839,14003 22847,13984 22856,13975 22865,13981 22873,14018 22882,13994 22891,13986 22900,14014 22908,14004 22917,14015 22926,13985 22935,13996 22944,13986 22952,13972 22961,13986 22970,14001 22978,13992 22987,13986 22996,13999 23005,14010 23013,14012 23022,13972 23031,14005 23040,14000 23048,14012 23057,13979 23066,14020 23074,13980 23083,14001 23092,13989 23101,14008 23109,13994 23118,13976 23127,14002 23136,13987 23144,14009 23153,13990 23171,14003 23179,14011 23188,13991 23197,14000 23206,13987 23214,14026 23223,13996 23232,14029 23241,14018 23249,13997 23258,13989 23267,14008 23276,13991 23284,13981 23293,14000 23302,13979 23310,14010 23319,13992 23328,14005 23337,14010 23345,13998 23354,14011 23363,14033 23372,14023 23380,14004 23389,14028 23398,13990 23407,14029 23415,14013 23424,13970 23433,13999 23441,13987 23450,13966 23459,13995 23468,13981 23477,14001 23485,14010 23494,13969 23503,13956 23511,13970 23520,13946 23529,13983 23538,14000 23546,13962 23555,13982 23564,13978 23573,13978 23581,13999 23590,13966 23599,13962 23608,13946 23616,14013 23625,13962 23634,13977 23642,13983 23660,13983 23669,13975 23678,14009 23686,13970 23704,13977 23712,13992 23721,13991 23730,13975 23739,14005 23747,13977 23765,13971 23774,13994 23782,13967 23791,13998 23800,13964 23809,13960 23817,13955 23826,13999 23835,13962 23844,14013 23852,13964 23861,13988 23870,14015 23878,13971 23887,13976 23896,14015 23905,13984 23913,13999 23922,13972 23931,13975 23940,13974 23948,13987 23966,13961 23975,14011 23983,13987 23992,14000 24009,14003 24018,14011 24027,13995 24036,13957 24045,13949 24053,13989 24062,13979 24071,13994 24079,13978 24088,13991 24097,13991 24106,13959 24114,13990 24123,13975 24132,13989 24141,13979 24149,14016 24158,13969 24167,13976 24184,13974"/>
 <path fill="none" stroke="rgb(153,102,153)" stroke-width="20" stroke-linejoin="round" d="M 11095,14077 L 11104,13765 11113,13937 11121,14060 11130,13987 11139,14061 11148,13980 11156,14021 11165,13922 11174,14048 11182,13916 11191,14052 11200,14051 11209,13960 11217,14001 11226,13892 11235,13868 11244,13969 11252,13925 11261,13602 11270,13075 11279,12665 11287,12134 11296,11730 11305,11305 11314,11007 11322,10533 11331,10062 11340,9688 11349,11409 11357,14028 11366,13988 11375,14037 11383,13969 11392,13988 11401,13987 11410,14015 11418,13969 11427,13968 11436,13824 11445,13811 11453,13757 11462,13726 11471,13657 11480,13603 11488,13544 11497,13549 11506,13444 11514,13482 11523,13393 11532,13290 11541,13290 11550,13236 11558,13183 11567,13145 11576,13087 11584,13025 11593,12945 11602,12921 11619,12920 11628,12800 11637,12774 11646,12761 11654,12766 11663,12652 11672,12566 11681,12554 11689,12542 11698,12518 11707,12476 11716,12386 11724,12450 11733,12398 11742,12228 11750,12241 11759,12179 11768,12231 11777,12089 11785,12036 11794,12082 11803,12027 11820,11926 11829,11874 11847,11927 11855,11873 11864,11718 11873,11719 11890,11653 11899,11620 11908,11616 11917,11600 11925,11549 11934,11449 11943,11405 11951,11352 11960,11351 11969,11430 11978,11255 11986,11286 11995,11234 12004,11199 12013,11187 12022,11090 12030,11090 12039,11167 12047,11039 12056,10998 12065,10970 12074,10934 12083,10881 12091,10920 12100,10831 12109,10867 12118,10776 12135,10673 12144,10725 12152,10672 12161,10658 12170,10671 12179,10514 12187,10553 12196,10514 12205,10425 12214,10411 12222,11654 12231,12859 12240,12766 12249,12690 12257,12662 12266,12547 12275,12514 12283,12558 12292,12505 12301,12398 12310,12398 12318,12279 12327,12294 12336,12242 12345,12152 12353,12137 12362,12138 12371,11981 12380,12012 12388,11980 12397,11873 12406,11809 12415,11760 12423,11770 12432,11695 12441,11613 12450,11614 12458,11595 12467,11613 12476,11475 12484,11443 12493,11508 12502,11457 12511,11456 12519,11351 12528,11352 12537,11339 12546,11248 12554,11247 12563,11196 12572,11129 12581,11143 12589,11135 12598,11090 12607,11091 12616,11025 12624,11090 12633,10992 12642,10986 12651,10934 12659,10882 12668,10833 12685,10882 12694,10783 12703,10828 12712,10829 12721,10776 12729,10815 12738,10815 12747,10724 12755,10725 12773,10657 12782,10620 12790,10671 12799,10567 12817,10567 12825,10686 12834,12942 12843,13000 12852,12923 12860,12907 12869,12920 12878,12822 12886,12817 12895,12765 12904,12790 12913,12669 12921,12643 12930,12659 12939,12616 12948,12555 12956,12580 12965,12452 12974,12399 12983,12399 12991,12344 13000,12294 13009,12242 13017,12242 13026,12240 13035,12206 13044,12099 13053,12032 13061,12031 13070,12032 13079,11925 13087,11856 13097,11927 13105,11859 13114,11817 13122,11874 13131,11745 13140,11719 13149,11666 13157,11614 13166,11663 13175,11642 13184,11598 13192,11510 13201,11461 13210,11443 13219,11457 13227,11457 13236,11298 13245,11302 13253,11248 13262,11247 13271,10736 13280,10057 13288,9379 13297,9199 13306,8876 13315,8678 13323,8182 13332,7835 13341,7193 13350,6832 13358,6182 13367,5213 13376,4010 13384,5277 13393,7108 13402,9022 13411,7932 13419,5678 13428,4616 13437,5033 13446,5017 13454,8769 13463,11926 13472,11790 13481,12513 13489,13756 13498,13684 13507,13529 13516,13372 13524,13198 13533,12907 13542,12582 13551,12547 13559,12338 13568,12071 13577,11897 13586,11619 13594,11589 13603,11294 13612,11126 13620,11063 13629,10742 13638,10709 13647,10585 13655,10461 13664,10321 13673,10154 13682,10047 13690,12049 13699,12439 13708,12384 13717,12354 13725,12095 13734,11781 13743,11708 13752,11567 13760,11264 13769,11256 13778,11009 13786,10782 13795,10685 13804,10507 13813,10230 13821,10168 13830,10003 13839,9929 13848,9740 13856,9665 13865,9418 13874,9433 13883,9156 13891,9088 13900,8806 13909,11340 13918,11927 13926,11778 13935,11646 13944,11527 13952,11516 13961,11270 13970,11243 13979,10877 13988,10750 13996,10542 14005,10478 14014,10247 14022,10229 14031,9866 14040,9938 14049,9766 14057,9647 14066,9370 14075,9422 14084,9120 14092,8820 14101,8827 14110,8784 14119,10417 14127,11644 14136,11523 14145,11497 14153,11259 14171,11137 14180,11074 14188,10801 14197,10841 14206,12984 14215,12909 14223,12919 14232,12693 14241,12282 14250,12401 14258,11905 14267,11803 14276,11648 14285,11597 14293,11287 14302,11125 14311,10980 14319,10780 14328,10539 14337,10517 14346,10256 14355,10139 14363,9979 14372,9919 14381,9639 14390,9618 14398,9412 14407,9373 14416,9246 14424,9020 14432,8810 14441,8888 14450,8695 14458,8661 14467,11508 14476,11631 14485,11593 14493,11208 14502,11308 14511,11153 14519,11015 14528,11449 14537,13135 14546,13190 14554,13064 14563,12909 14572,12551 14581,12292 14589,12282 14598,12081 14607,11768 14616,11597 14624,11560 14633,11216 14642,11095 14651,11009 14659,10879 14668,10444 14677,10488 14686,10255 14694,10112 14703,10078 14712,9921 14720,9722 14729,9675 14738,9455 14747,9326 14756,9289 14764,9667 14773,11798 14782,11801 14790,11772 14799,11500 14808,11479 14817,11245 14826,11310 14834,10996 14843,10780 14852,10623 14860,10488 14869,10310 14878,10112 14886,10147 14895,9899 14904,9946 14913,9658 14922,9353 14930,9425 14939,9181 14948,9110 14956,8793 14965,8869 14974,8643 14983,8577 14991,8308 15000,8345 15009,8398 15018,10447 15026,11041 15035,11008 15044,10732 15053,10676 15061,10747 15070,10473 15079,12418 15088,12859 15096,12894 15105,12633 15114,12495 15122,12304 15131,12178 15140,11846 15149,11768 15158,11605 15166,11488 15175,11218 15184,10976 15192,10820 15201,10726 15210,10546 15219,10388 15227,10212 15236,9968 15245,10009 15254,9713 15262,9591 15271,9689 15280,9405 15289,9317 15297,9167 15306,8934 15315,8844 15323,8934 15332,8591 15342,8345 15350,10092 15359,11602 15367,13685 15376,13664 15385,13430 15393,13489 15402,13172 15411,12739 15420,12648 15428,12477 15437,12276 15446,12040 15454,11819 15463,11602 15472,11553 15481,11255 15489,11153 15498,11104 15507,10824 15516,10662 15525,10532 15533,10475 15542,10218 15551,10119 15559,9947 15568,9767 15577,9718 15586,9446 15594,11024 15603,12156 15612,12075 15621,11814 15629,11878 15638,11693 15647,11506 15655,11259 15664,11071 15673,11023 15682,10705 15690,10676 15699,10495 15708,10267 15717,10173 15725,10022 15734,10011 15743,9722 15752,9636 15760,9421 15769,9394 15778,9176 15787,10934 15795,11816 15804,11759 15813,11611 15822,11600 15830,11490 15839,11208 15848,11148 15856,11044 15865,10686 15874,10565 15883,10452 15891,10290 15900,10194 15909,9959 15918,9987 15926,9833 15935,9642 15944,9433 15953,9373 15962,9171 15970,8972 15979,8875 15988,8904 15996,9005 16005,11367 16014,11672 16023,11566 16031,11306 16040,11304 16049,11088 16058,11086 16066,10771 16075,10748 16084,10506 16092,10429 16101,12500 16110,12528 16119,12553 16127,12350 16136,12143 16145,12032 16154,11734 16162,11808 16171,11609 16180,11279 16189,11085 16197,11000 16206,10720 16215,10625 16223,10536 16232,10498 16241,10232 16250,10054 16258,9948 16267,9763 16276,9595 16285,9478 16293,9297 16302,9229 16311,9093 16320,11578 16328,11864 16337,11835 16346,11595 16355,11521 16363,11328 16372,11296 16381,11027 16390,10978 16398,10616 16407,10432 16416,10350 16424,10127 16433,10129 16442,9920 16451,12195 16460,12331 16468,12419 16477,12249 16486,12093 16495,11900 16503,11704 16512,12087 16521,11274 16529,11293 16538,11044 16547,10790 16556,10665 16564,10500 16573,10279 16582,10168 16591,9969 16599,9760 16608,10759 16617,12461 16626,12438 16634,12173 16643,12004 16652,12057 16660,11670 16669,11548 16678,11269 16695,11132 16704,11082 16713,10724 16722,10482 16730,10342 16739,10223 16748,10168 16757,10028 16766,9837 16774,9708 16783,9420 16792,9373 16800,9164 16809,9102 16818,8851 16827,8913 16835,10227 16844,11932 16853,11784 16862,11656 16870,11505 16879,11560 16888,11261 16896,11111 16905,11023 16914,10774 16923,10534 16931,10548 16940,10226 16949,10235 16958,10075 16966,9956 16975,9761 16984,9652 16993,9435 17001,10455 17010,12244 17019,12016 17027,12109 17036,11826 17045,11778 17054,11299 17062,11288 17071,11091 17080,11060 17089,10767 17097,10539 17106,10556 17115,10257 17124,10155 17132,9940 17141,10022 17150,9760 17159,9598 17167,9396 17176,9466 17185,9231 17193,9257 17202,8847 17211,8711 17220,8626 17228,8658 17237,8361 17246,8280 17255,8133 17272,7994 17281,7826 17290,7823 17298,7574 17307,7335 17317,7264 17325,9829 17333,10664 17342,10514 17351,10407 17360,10222 17368,10168 17377,10000 17387,11863 17394,12329 17403,12349 17412,12396 17421,12106 17429,12063 17438,11667 17447,11555 17456,11190 17464,11244 17473,11142 17482,10911 17491,10760 17499,10563 17508,10260 17517,10190 17526,10218 17534,9929 17543,9815 17552,9737 17560,9539 17569,9420 17578,9831 17587,11900 17595,13035 17604,13719 17613,13640 17622,13431 17630,13325 17639,13112 17648,12688 17657,12595 17665,12367 17674,12145 17683,12024 17692,11820 17700,11805 17709,11475 17718,11232 17727,11047 17735,10974 17744,10705 17753,10731 17761,10509 17770,10360 17779,10217 17788,9955 17796,9992 17805,9610 17814,9672 17823,9369 17831,10169 17840,12023 17849,11799 17858,11690 17866,11597 17875,11529 17884,11259 17893,11259 17901,11028 17910,10926 17919,10701 17928,10509 17936,10476 17945,10223 17954,10126 17962,9888 17971,9764 17980,9632 17989,9368 17997,9419 18006,9118 18015,9104 18024,8827 18032,8840 18041,8666 18050,8610 18059,8305 18067,8298 18076,8198 18085,8161 18094,8045 18102,7805 18111,8811 18120,11118 18128,10987 18137,10914 18146,10681 18155,10758 18163,10533 18172,10369 18181,10132 18190,10069 18198,10902 18207,12929 18216,13934 18225,13899 18233,13794 18242,13651 18251,13670 18260,13359 18268,12835 18277,12914 18286,12610 18295,12362 18303,12119 18312,12063 18321,11859 18329,11743 18338,11340 18347,11369 18356,11060 18365,11067 18373,10753 18382,10657 18391,10456 18399,10272 18408,10174 18417,9863 18426,9843 18434,9749 18443,9556 18452,9380 18461,9461 18470,9156 18478,9103 18487,8810 18495,8675 18504,8614 18513,8678 18522,8284 18530,8238 18539,8125 18548,8097 18557,7863 18566,9509 18574,11141 18583,11008 18592,10953 18600,11091 18609,12851 18618,13704 18627,13829 18635,13869 18644,13835 18653,13814 18670,13639 18679,13403 18688,13046 18697,12910 18705,12711 18714,12451 18723,12357 18732,12164 18740,11860 18749,11885 18758,11623 18767,11526 18775,11126 18784,11107 18793,10722 18801,10735 18810,10574 18819,10456 18828,10213 18836,10080 18845,9945 18854,9708 18863,9646 18871,9450 18880,9430 18889,9296 18897,9104 18906,8912 18915,8870 18924,8966 18932,8662 18941,8375 18950,8354 18959,8347 18967,10651 18976,11151 18985,11113 18994,10881 19002,10747 19011,10773 19020,10512 19029,10408 19037,10245 19046,10093 19055,10001 19064,10037 19072,9746 19081,9645 19090,11377 19099,12185 19107,12044 19116,12093 19125,11818 19134,11769 19142,11505 19151,11185 19160,11204 19168,11023 19177,10779 19186,10763 19195,10553 19203,10458 19212,10214 19221,10117 19230,9892 19239,9732 19247,9606 19256,9408 19264,9480 19273,9217 19282,11253 19291,11835 19299,11700 19308,11652 19317,11538 19326,11472 19334,11285 19343,11158 19352,11021 19361,10750 19369,10525 19378,10558 19387,10220 19404,9977 19413,9877 19422,9765 19431,9568 19439,9386 19448,9189 19457,9062 19466,8933 19474,8978 19483,10097 19492,11871 19501,11740 19509,11566 19518,11568 19527,11548 19535,11312 19544,11112 19553,11007 19562,10767 19570,10530 19579,10498 19588,10225 19597,10142 19605,10041 19614,9977 19623,9745 19631,9648 19640,9458 19649,9265 19658,9132 19667,8874 19675,8830 19684,8971 19693,8603 19702,8503 19710,8367 19719,8334 19728,8185 19737,7916 19745,7757 19754,7786 19763,7709 19771,10385 19781,10787 19789,10699 19798,10600 19806,10494 19815,12464 19824,13774 19833,13886 19841,13881 19850,13832 19859,13765 19867,13840 19876,13708 19885,13481 19894,13124 19903,13004 19911,12692 19920,12471 19929,12313 19938,12075 19946,12055 19955,11650 19964,11633 19972,11386 19981,11335 19990,11043 19999,11037 20007,10729 20016,10548 20025,10268 20034,10147 20042,10182 20051,9980 20060,9879 20068,9761 20077,9548 20086,9468 20095,9268 20103,9172 20112,8905 20121,8879 20130,8798 20138,8577 20147,10704 20156,11637 20165,11509 20173,11370 20182,11251 20191,11199 20200,11048 20208,10804 20217,10691 20226,10574 20235,10453 20243,10224 20252,10122 20261,9899 20270,11591 20278,12353 20287,12396 20296,12430 20304,12120 20313,11834 20322,11777 20331,11604 20339,11215 20348,11312 20357,10971 20366,10664 20374,10664 20383,10479 20392,10214 20400,10206 20409,10118 20418,10033 20427,9920 20435,9697 20444,9470 20453,9495 20462,9292 20470,9053 20479,8817 20488,8888 20497,8677 20505,8612 20514,8315 20523,8335 20532,8223 20540,8069 20549,8215 20558,10924 20567,11073 20575,11070 20584,10717 20593,10760 20601,12637 20610,12941 20619,12945 20628,12808 20637,12654 20645,12286 20654,12124 20663,11828 20671,11792 20680,11676 20689,11451 20698,11158 20706,11034 20715,10709 20724,10701 20733,10540 20741,10560 20750,10229 20759,10152 20768,9918 20776,9797 20785,9625 20794,9538 20803,9342 20811,9316 20820,9105 20829,8889 20837,8808 20846,8973 20855,8547 20864,8356 20872,8334 20881,8325 20890,8197 20899,8091 20907,7759 20916,7740 20925,7632 20934,7643 20942,10268 20951,13132 20960,13114 20969,13055 20977,13115 20986,12797 20995,12589 21004,12335 21012,12158 21021,12029 21030,11862 21039,11639 21047,11473 21056,11273 21065,11111 21073,11120 21082,11019 21091,12977 21100,12868 21108,12953 21117,12659 21126,12349 21135,12386 21143,12196 21152,11802 21161,11878 21169,11530 21178,11391 21187,11076 21196,11045 21205,10739 21213,10730 21222,10528 21231,10330 21239,10265 21248,9959 21257,9980 21266,9795 21274,9661 21283,9672 21292,11299 21301,13443 21309,13886 21318,13849 21327,13755 21336,13758 21344,13493 21353,13222 21362,12882 21371,12652 21379,12584 21388,12401 21397,12295 21405,11888 21414,11798 21423,11529 21432,11408 21440,11313 21449,11001 21458,10872 21467,10717 21475,10547 21485,10558 21493,10258 21502,10194 21510,9998 21519,9800 21528,9675 21537,9334 21545,9436 21554,9450 21563,9130 21571,8793 21580,8820 21589,8751 21598,8554 21607,8494 21615,8324 21624,8176 21633,8120 21641,8172 21650,7765 21659,9588 21668,11208 21676,11074 21685,13430 21694,13883 21703,13884 21711,13951 21720,13898 21729,13848 21737,13833 21746,13510 21755,13161 21764,13085 21773,12819 21781,12655 21790,12357 21799,12331 21807,12058 21816,11798 21825,11638 21834,11512 21842,11299 21851,11236 21860,10978 21869,10708 21877,10507 21886,10551 21895,10190 21904,10213 21912,9965 21921,9896 21930,9787 21938,9682 21947,11957 21956,12344 21965,12390 21973,12334 21982,12119 21991,11804 22000,11529 22017,11281 22026,11240 22035,10996 22043,10764 22052,10539 22061,10447 22070,10220 22078,10184 22087,10090 22096,9883 22105,9760 22113,9625 22122,9412 22131,9483 22140,9194 22148,8993 22157,8847 22166,8945 22174,11018 22183,11808 22192,11771 22201,11612 22209,11536 22218,11453 22227,11280 22236,11105 22244,11113 22253,10819 22262,10679 22271,10253 22279,10218 22288,10124 22297,9956 22305,9957 22314,9664 22323,9444 22332,9391 22340,9188 22349,9086 22358,8670 22367,7963 22375,8555 22384,9452 22393,11662 22402,11551 22410,11342 22419,11314 22428,11325 22437,10954 22445,11000 22454,10678 22463,10582 22472,10492 22480,10204 22489,10127 22498,9943 22506,9897 22515,9596 22524,11757 22533,12303 22541,12331 22550,12263 22559,11995 22568,11835 22576,11609 22585,11528 22594,11308 22603,11093 22612,10874 22620,10725 22629,10512 22638,10477 22646,10305 22655,10125 22664,10115 22673,9918 22681,9743 22690,9719 22699,11785 22707,12347 22725,12073 22734,12051 22742,11811 22751,11570 22760,11550 22769,11330 22777,11273 22786,11033 22795,10947 22804,10625 22812,10449 22821,10193 22830,10171 22839,10180 22847,9915 22856,9886 22865,9650 22873,9437 22882,9416 22891,9120 22900,9110 22908,8849 22917,8910 22926,8759 22935,10171 22943,13250 22952,13639 22970,13442 22978,13272 22987,12963 22996,12744 23005,12606 23013,12320 23022,12144 23031,12047 23040,11789 23048,11619 23057,11319 23066,11263 23074,10997 23083,10915 23092,10718 23101,10758 23110,10450 23118,10253 23127,10138 23136,9968 23144,9948 23153,9648 23171,9429 23179,9220 23188,9101 23197,9017 23206,8864 23214,8841 23223,8589 23232,8531 23240,8311 23249,8334 23258,8121 23267,8109 23275,7810 23284,7853 23293,9033 23302,11058 23310,11088 23319,10966 23328,10748 23337,10779 23345,10538 23354,12874 23363,13287 23372,13903 23389,13862 23398,13836 23407,13851 23415,13520 23424,13288 23433,13022 23442,12887 23450,12678 23459,12389 23468,12299 23476,12151 23485,11816 23494,11655 23503,11520 23511,11314 23520,11069 23529,10973 23538,13233 23546,13115 23555,13149 23564,13021 23573,12714 23581,12382 23590,12363 23599,12218 23608,12009 23616,11675 23625,11551 23634,11316 23643,11276 23651,11133 23660,11138 23669,10762 23677,10565 23686,10330 23695,10179 23704,10149 23712,9974 23721,9960 23730,9692 23739,9402 23747,9399 23756,9247 23765,9077 23774,8822 23782,8954 23791,8689 23800,8583 23808,10754 23817,11473 23826,11248 23835,11063 23844,11079 23852,11033 23861,10692 23870,10703 23878,10441 23887,10445 23896,10244 23905,10027 23913,9952 23922,9762 23931,9616 23940,9496 23949,9414 23957,9238 23966,9140 23975,8820 23983,11525 23992,11830 24001,11815 24009,11860 24018,11607 24027,11394 24036,11180 24044,11078 24053,10826 24062,10653 24071,10606 24080,10319 24088,10213 24097,9942 24106,9952 24114,9755 24123,9627 24132,9542 24141,9434 24149,9284 24158,9134 24167,8818 24176,8863"/>
 <path fill="none" stroke="rgb(0,132,209)" stroke-width="20" stroke-linejoin="round" d="M 13292,12706 L 13314,11835 13336,11309 13357,10594 13379,9605 13401,8448 13423,7270 13446,5903 13467,5692 13490,5692 13510,5734 13532,5713 13554,5692 13577,5734 13598,5713 13620,5692 13641,5713 13664,5713 13685,5713 13707,5713 13729,5692 13751,5713 13773,5713 13794,5713 13816,5713 13839,5692 13861,5734 13882,5692 13903,5734 13925,5692 13947,5692 13970,5734 13991,5713 14013,5713 14035,5692 14056,5713 14078,5713 14100,5692 14122,5734 14144,5692 14166,5713 14187,5713 14210,5713 14231,5734 14254,5671 14275,5713 14297,5713 14319,5734 14340,5692 14363,5713 14384,5713 14406,5713 14427,5692 14449,5734 14471,5692 14492,5692 14516,5713 14536,5734 14558,5713 14580,5692 14602,5713 14624,5713 14646,5713 14667,5713 14689,5692 14711,5734 14733,5692 14754,5713 14776,5713 14798,5692 14820,5713 14842,5713 14864,5734 14886,5692 14908,5692 14929,5734 14951,5713 14973,5692 14995,5713 15017,5713 15039,5692 15060,5734 15082,5713 15104,5713 15126,5671 15148,5755 15170,5713 15191,5713 15213,5692 15235,5713 15257,5713 15279,5713 15301,5713 15323,5713 15344,5692 15366,5734 15388,5692 15410,5713 15432,5713 15454,5713 15476,5692 15497,5734 15519,5692 15541,5713 15563,5734 15586,5671 15606,5713 15628,5734 15650,5713 15673,5713 15694,5692 15716,5713 15738,5692 15759,5734 15782,5713 15804,5692 15825,5713 15847,5713 15869,5713 15891,5713 15912,5692 15934,5713 15956,5713 15978,5713 16000,5713 16022,5692 16043,5734 16066,5692 16087,5734 16109,5692 16131,5692 16153,5713 16174,5734 16197,5713 16218,5692 16240,5713 16262,5713 16284,5692 16306,5734 16327,5692 16349,5713 16372,5692 16393,5734 16416,5734 16437,5671 16459,5713 16480,5713 16503,5734 16524,5797 16546,5734 16568,5713 16590,5692 16611,5713 16634,5713 16655,5713 16678,5713 16699,5692 16721,5713 16743,5734 16764,5692 16786,5755 16808,5692 16830,5692 16852,5713 16874,5734 16897,5713 16917,5671 16939,5734 16961,5713 16983,5692 17005,5734 17026,5692 17049,5713 17071,5692 17092,5734 17114,5713 17136,5671 17158,5734 17179,5713 17203,5734 17224,5692 17245,5692 17267,5713 17289,5734 17311,5692 17332,5713 17354,5713 17376,5692 17398,5713 17420,5734 17442,5692 17464,5692 17487,5713 17508,5734 17530,5713 17551,5692 17573,5713 17594,5713 17616,5713 17638,5692 17660,5734 17683,5713 17704,5671 17726,5734 17747,5713 17769,5713 17791,5692 17813,5713 17835,5713 17857,5713 17878,5713 17900,5713 17922,5692 17944,5713 17966,5713 17988,5713 18010,5713 18031,5692 18053,5734 18076,5692 18097,5713 18119,5713 18141,5713 18163,5713 18185,5713 18206,5692 18228,5713 18250,5713 18272,5713 18294,5713 18317,5713 18338,5692 18359,5734 18381,5692 18404,5713 18425,5713 18448,5692 18469,5713 18490,5713 18512,5734 18534,5692 18556,5692 18578,5734 18600,5713 18621,5692 18643,5713 18665,5692 18687,5734 18709,5713 18730,5692 18752,5713 18774,5713 18796,5713 18818,5734 18842,5671 18863,5713 18884,5734 18905,5692 18927,5734 18950,5671 18971,5734 18993,5692 19014,5734 19036,5713 19058,5671 19080,5734 19103,5713 19124,5713 19145,5713 19169,5692 19189,5713 19212,5713 19233,5713 19255,5713 19277,5692 19300,5713 19320,5713 19343,5734 19364,5692 19387,5692 19408,5713 19430,5734 19451,5692 19473,5713 19495,5713 19518,5713 19539,5692 19561,5734 19582,5692 19604,5692 19626,5713 19649,5734 19670,5734 19693,5671 19713,5713 19735,5713 19757,5734 19779,5692 19801,5692 19823,5734 19845,5692 19866,5713 19888,5692 19911,5734 19932,5713 19954,5713 19976,5692 19998,5713 20019,5734 20041,5692 20063,5692 20085,5713 20107,5734 20129,5692 20150,5713 20172,5713 20194,5692 20217,5734 20238,5713 20261,5692 20281,5692 20303,5734 20326,5713 20347,5713 20369,5692 20391,5713 20413,5713 20435,5713 20456,5713 20479,5692 20500,5713 20522,5713 20544,5713 20565,5734 20587,5671 20612,5713 20631,5713 20653,5734 20675,5713 20697,5671 20719,5734 20740,5692 20762,5734 20784,5713 20806,5692 20828,5713 20849,5713 20871,5713 20893,5713 20916,5692 20937,5713 20959,5713 20980,5713 21002,5713 21024,5692 21047,5713 21068,5713 21090,5734 21112,5692 21133,5692 21155,5713 21177,5734 21199,5713 21221,5692 21244,5713 21264,5713 21288,5692 21308,5692 21330,5734 21352,5713 21374,5713 21396,5713 21418,5713 21440,5692 21461,5713 21484,5734 21505,5692 21527,5692 21548,5713 21571,5734 21592,5713 21615,5692 21636,5713 21658,5692 21680,5734 21702,5692 21723,5713 21745,5713 21767,5713 21789,5713 21811,5713 21833,5692 21854,5713 21877,5713 21898,5713 21920,5713 21942,5692 21964,5713 21986,5734 22007,5692 22032,5713 22051,5692 22073,5734 22095,5692 22116,5734 22138,5692 22160,5713 22182,5713 22204,5713 22226,5713 22248,5692 22269,5713 22291,5713 22313,5713 22335,5713 22358,5713 22379,5692 22400,5713 22422,5734 22444,5692 22466,5713 22488,5713 22510,5692 22532,5713 22554,5755 22577,5692 22597,5713 22619,5713 22641,5713 22663,5713 22685,5692 22707,5713 22729,5713 22750,5713 22772,5713 22794,5692 22816,5734 22837,5692 22860,5755 22882,5692 22903,5692 22925,5734 22947,5713 22969,5713 22990,5692 23012,5713 23035,5713 23056,5692 23078,5734 23100,5692 23121,5713 23143,5713 23166,5713 23187,5713 23210,5692 23231,5713 23252,5713 23274,5734 23296,5692 23319,5713 23341,5692 23362,5734 23384,5692 23405,5713 23429,5713 23449,5713 23471,5713 23493,5713 23515,5692 23537,5713 23558,5713 23581,5713 23602,5713 23624,5692 23646,5713 23668,5713 23690,5734 23712,5692 23733,5692 23755,5734 23777,5692 23799,5734 23821,5692 23842,5713 23864,5692 23886,5734 23908,5713 23930,5692 23952,5713 23975,5713 23995,5713 24017,5713 24039,5692 24061,5713 24083,5692 24104,5734 24127,5734 24149,5671 24170,5713 24192,5713"/>
 <path fill="none" stroke="rgb(255,66,14)" stroke-width="20" stroke-linejoin="round" d="M 11103,12683 L 11125,11856 11148,11141 11169,10362 11191,9310 11213,7965 11234,6492 11256,4808 11279,3672 11300,3651 11322,3672 11344,3672 11365,3735 11387,4093 11409,3904 11431,3693 11453,3672 11475,3672 11496,3651 11518,3672 11540,3672 11563,3672 11584,3651 11606,3672 11628,3672 11649,3651 11671,3672 11693,3672 11716,3672 11737,3651 11759,3672 11781,3672 11803,3672 11825,3630 11846,3672 11869,3672 11890,3651 11912,3651 11934,3672 11956,3651 11978,3651 11999,3672 12021,3672 12043,3651 12064,3672 12087,3672 12108,3672 12130,3651 12153,3672 12174,3672 12196,3672 12217,3630 12239,3672 12261,3672 12284,3651 12306,3672 12327,3672 12348,3672 12370,3630 12392,3672 12414,3672 12436,3651 12459,3672 12480,3672 12501,3672 12524,3651 12545,3672 12567,3672 12589,3651 12612,3672 12633,3672 12654,3672 12676,3630 12698,3672 12720,3672 12743,3651 12763,3651 12785,3672 12808,3672 12829,3651 12852,3672 12874,3672 12895,3672 12916,3651 12939,3672 12960,3672 12982,3651 13004,3672 13026,3672 13048,3651 13069,3651 13091,3672 13114,3672 13136,3651 13157,3672 13179,3672 13200,3651 13222,3672 13245,3672 13266,3672 13288,4724 13310,5860 13332,6323 13353,7081 13375,7965 13397,9184 13419,10299 13441,11667 13463,12102 13484,12079 13506,12079 13528,12056 13550,12079 13572,12079 13594,12079 13615,12079 13638,12081 13659,12079 13681,12056 13703,12079 13725,12104 13747,12056 13768,12079 13790,12056 13812,12104 13834,12079 13856,12079 13878,12056 13899,12079 13922,12079 13943,12081 13966,12079 13987,12079 14009,12056 14031,12104 14052,12079 14075,12079 14096,12054 14119,12081 14140,12104 14162,12056 14184,12079 14205,12056 14228,12104 14249,12079 14271,12056 14293,12079 14315,12079 14337,12079 14358,12079 14380,12079 14402,12079 14424,12056 14445,12104 14466,12079 14489,12056 14510,12079 14533,12056 14555,12104 14576,12079 14598,12079 14619,12056 14641,12079 14663,12079 14685,12079 14707,12079 14729,12079 14750,12056 14773,12104 14794,12079 14816,12079 14838,12056 14861,12056 14882,12104 14904,12079 14925,12079 14948,12056 14969,12079 14991,12104 15013,12079 15035,12056 15057,12079 15078,12081 15100,12079 15122,12081 15144,12079 15166,12056 15187,12079 15209,12104 15231,12056 15253,12079 15275,12079 15297,12079 15319,12079 15341,12079 15362,12079 15384,12081 15406,12054 15428,12079 15450,12081 15471,12079 15493,12079 15516,12056 15537,12079 15559,12079 15581,12079 15604,12079 15624,12079 15646,12056 15668,12104 15690,12081 15712,12079 15735,12056 15755,12079 15777,12104 15799,12056 15821,12079 15843,12079 15866,12056 15886,12102 15908,12079 15930,12056 15952,12079 15974,12056 15996,12128 16018,12056 16039,12081 16061,12054 16083,12079 16105,12104 16127,12056 16149,12079 16171,12079 16192,12056 16215,12104 16236,12079 16258,12079 16280,12056 16302,12079 16323,12102 16346,12056 16367,12081 16389,12054 16411,12079 16433,12102 16455,12081 16476,12056 16498,12079 16520,11961 16543,12056 16564,12104 16587,12079 16607,12079 16630,12056 16652,12079 16673,12079 16695,12081 16717,12079 16739,12079 16760,12056 16782,12104 16804,12079 16827,12079 16849,12056 16870,12079 16891,12079 16913,12081 16935,12079 16958,12079 16979,12054 17001,12104 17022,12079 17044,12056 17067,12079 17089,12056 17111,12104 17132,12079 17153,12079 17175,12056 17197,12079 17220,12104 17241,12056 17263,12081 17285,12079 17307,12056 17329,12104 17351,12079 17372,12079 17394,12056 17417,12079 17440,12104 17461,12056 17481,12079 17503,12056 17526,12081 17547,12102 17570,12079 17591,12056 17612,12104 17634,12056 17656,12079 17678,12079 17700,12079 17722,12079 17744,12056 17765,12104 17787,12081 17809,12054 17831,12079 17853,12079 17874,12079 17896,12079 17918,12079 17940,12079 17962,12056 17984,12079 18005,12104 18028,12056 18050,12079 18071,12054 18094,12104 18115,12079 18137,12079 18158,12079 18180,12054 18202,12104 18224,12176 18246,12104 18268,12056 18289,12079 18311,12079 18333,12079 18355,12079 18377,12081 18399,12056 18421,12104 18442,12079 18465,12079 18487,12056 18508,12079 18530,12079 18552,12079 18573,12081 18595,12054 18618,12128 18639,12466 18661,12224 18683,12081 18705,12079 18726,12079 18748,12079 18770,12079 18792,12056 18814,12079 18836,12104 18858,12056 18879,12079 18901,12056 18923,12104 18945,12079 18967,12079 18989,12056 19011,12081 19032,12104 19054,12056 19076,12079 19098,12079 19120,12056 19142,12102 19163,12081 19185,12079 19208,12056 19229,12056 19251,12128 19273,12056 19295,12079 19316,12056 19338,12079 19360,12104 19383,12056 19404,12079 19426,12079 19448,12054 19469,12104 19491,12079 19513,12081 19536,12056 19557,12079 19578,12104 19601,12054 19623,12081 19645,12054 19667,12079 19689,12104 19710,12079 19731,12056 19753,12081 19775,12079 19798,12079 19820,12079 19841,12369 19862,12344 19885,12079 19906,12056 19928,12102 19950,12079 19972,12081 19994,12056 20015,12079 20037,12104 20059,12056 20081,12079 20103,12056 20125,12079 20147,12104 20168,12081 20190,12054 20212,12079 20234,12079 20257,12079 20278,12079 20300,12079 20321,12056 20343,12079 20365,12104 20388,12079 20409,12056 20430,12079 20452,12079 20474,12079 20497,12079 20519,12079 20541,12056 20561,12079 20585,12104 20605,12056 20627,12079 20649,12056 20671,12104 20693,12079 20716,12079 20737,12056 20758,12079 20780,12104 20802,12056 20824,12079 20846,12081 20867,12054 20889,12104 20911,12079 20933,12079 20955,12056 20978,12056 20998,12128 21020,12056 21042,12079 21064,12056 21087,12079 21109,12104 21130,12056 21151,12081 21173,12079 21196,12054 21217,12104 21239,12079 21260,12079 21282,12056 21304,12128 21326,12201 21348,12056 21371,12056 21392,12104 21414,12079 21436,12079 21458,12056 21479,12056 21502,12130 21524,12056 21545,12079 21567,12056 21588,12079 21610,12104 21636,12054 21654,12079 21676,12079 21697,12273 21720,12393 21741,12130 21763,12079 21785,12079 21808,12079 21829,12079 21850,12079 21872,12081 21894,12056 21916,12079 21939,12104 21960,12056 21981,12079 22003,12054 22025,12104 22047,12079 22073,12079 22091,12056 22113,12079 22134,12104 22156,12056 22178,12079 22200,12079 22222,12056 22244,12104 22265,12079 22287,12079 22309,12056 22331,12079 22353,12104 22375,12153 22397,12079 22418,12079 22440,12081 22462,12079 22484,12081 22506,12081 22528,12054 22549,12104 22571,12079 22593,12033 22615,12104 22637,12056 22659,12102 22681,12081 22703,12079 22729,12056 22746,12056 22769,12104 22790,12079 22812,12079 22833,12056 22856,12079 22878,12079 22899,12081 22921,12079 22943,12079 22964,12079 22986,12081 23008,12079 23030,12079 23052,12060 23074,12098 23097,12079 23117,12056 23140,12079 23161,12056 23183,12104 23205,12079 23227,12079 23248,12056 23271,12079 23293,12079 23315,12079 23336,12079 23358,12079 23380,12250 23401,12199 23424,12081 23445,12054 23467,12079 23489,12104 23511,12056 23533,12085 23554,12075 23576,12056 23598,12104 23620,12079 23643,12056 23664,12079 23685,12054 23707,12130 23729,12056 23751,12079 23773,12056 23795,12079 23817,12106 23839,12052 23860,12081 23882,12079 23904,12056 23928,12104 23949,12079 23969,12079 23991,12056 24013,12079 24035,12104 24057,12056 24079,12079 24100,12056 24122,12104 24144,12079 24166,12079 24188,12056"/>
 <text class="TextShape"><tspan class="TextParagraph" font-family="Liberation Sans, sans-serif" font-size="353px" font-weight="400"><tspan class="TextPosition" x="10985" y="14697"><tspan fill="rgb(0,0,0)" stroke="none">0</tspan></tspan></tspan></text>
 <text class="TextShape"><tspan class="TextParagraph" font-family="Liberation Sans, sans-serif" font-size="353px" font-weight="400"><tspan class="TextPosition" x="13077" y="14697"><tspan fill="rgb(0,0,0)" stroke="none">10</tspan></tspan></tspan></text>
 <text class="TextShape"><tspan class="TextParagraph" font-family="Liberation Sans, sans-serif" font-size="353px" font-weight="400"><tspan class="TextPosition" x="15262" y="14697"><tspan fill="rgb(0,0,0)" stroke="none">20</tspan></tspan></tspan></text>
 <text class="TextShape"><tspan class="TextParagraph" font-family="Liberation Sans, sans-serif" font-size="353px" font-weight="400"><tspan class="TextPosition" x="17446" y="14697"><tspan fill="rgb(0,0,0)" stroke="none">30</tspan></tspan></tspan></text>
 <text class="TextShape"><tspan class="TextParagraph" font-family="Liberation Sans, sans-serif" font-size="353px" font-weight="400"><tspan class="TextPosition" x="19631" y="14697"><tspan fill="rgb(0,0,0)" stroke="none">40</tspan></tspan></tspan></text>
 <text class="TextShape"><tspan class="TextParagraph" font-family="Liberation Sans, sans-serif" font-size="353px" font-weight="400"><tspan class="TextPosition" x="21815" y="14697"><tspan fill="rgb(0,0,0)" stroke="none">50</tspan></tspan></tspan></text>
 <text class="TextShape"><tspan class="TextParagraph" font-family="Liberation Sans, sans-serif" font-size="353px" font-weight="400"><tspan class="TextPosition" x="24000" y="14697"><tspan fill="rgb(0,0,0)" stroke="none">60</tspan></tspan></tspan></text>
 <text class="TextShape"><tspan class="TextParagraph" font-family="Liberation Sans, sans-serif" font-size="353px" font-weight="400"><tspan class="TextPosition" x="26185" y="14697"><tspan fill="rgb(0,0,0)" stroke="none">70</tspan></tspan></tspan></text>
 <text class="TextShape"><tspan class="TextParagraph" font-family="Liberation Sans, sans-serif" font-size="353px" font-weight="400"><tspan class="TextPosition" x="10643" y="14250"><tspan fill="rgb(0,0,0)" stroke="none">0</tspan></tspan></tspan></text>
 <text class="TextShape"><tspan class="TextParagraph" font-family="Liberation Sans, sans-serif" font-size="353px" font-weight="400"><tspan class="TextPosition" x="10458" y="12145"><tspan fill="rgb(0,0,0)" stroke="none">10</tspan></tspan></tspan></text>
 <text class="TextShape"><tspan class="TextParagraph" font-family="Liberation Sans, sans-serif" font-size="353px" font-weight="400"><tspan class="TextPosition" x="10458" y="10041"><tspan fill="rgb(0,0,0)" stroke="none">20</tspan></tspan></tspan></text>
 <text class="TextShape"><tspan class="TextParagraph" font-family="Liberation Sans, sans-serif" font-size="353px" font-weight="400"><tspan class="TextPosition" x="10458" y="7937"><tspan fill="rgb(0,0,0)" stroke="none">30</tspan></tspan></tspan></text>
 <text class="TextShape"><tspan class="TextParagraph" font-family="Liberation Sans, sans-serif" font-size="353px" font-weight="400"><tspan class="TextPosition" x="10458" y="5833"><tspan fill="rgb(0,0,0)" stroke="none">40</tspan></tspan></tspan></text>
 <text class="TextShape"><tspan class="TextParagraph" font-family="Liberation Sans, sans-serif" font-size="353px" font-weight="400"><tspan class="TextPosition" x="10458" y="3729"><tspan fill="rgb(0,0,0)" stroke="none">50</tspan></tspan></tspan></text>
 <text class="TextShape"><tspan class="TextParagraph" font-family="Liberation Sans, sans-serif" font-size="353px" font-weight="400"><tspan class="TextPosition" x="26619" y="14250"><tspan fill="rgb(0,0,0)" stroke="none">20</tspan></tspan></tspan></text>
 <text class="TextShape"><tspan class="TextParagraph" font-family="Liberation Sans, sans-serif" font-size="353px" font-weight="400"><tspan class="TextPosition" x="26619" y="11977"><tspan fill="rgb(0,0,0)" stroke="none">30</tspan></tspan></tspan></text>
 <text class="TextShape"><tspan class="TextParagraph" font-family="Liberation Sans, sans-serif" font-size="353px" font-weight="400"><tspan class="TextPosition" x="26619" y="9705"><tspan fill="rgb(0,0,0)" stroke="none">40</tspan></tspan></tspan></text>
 <text class="TextShape"><tspan class="TextParagraph" font-family="Liberation Sans, sans-serif" font-size="353px" font-weight="400"><tspan class="TextPosition" x="26619" y="7432"><tspan fill="rgb(0,0,0)" stroke="none">50</tspan></tspan></tspan></text>
 <text class="TextShape"><tspan class="TextParagraph" font-family="Liberation Sans, sans-serif" font-size="353px" font-weight="400"><tspan class="TextPosition" x="26619" y="5160"><tspan fill="rgb(0,0,0)" stroke="none">60</tspan></tspan></tspan></text>
 <text class="TextShape"><tspan class="TextParagraph" font-family="Liberation Sans, sans-serif" font-size="353px" font-weight="400"><tspan class="TextPosition" x="26619" y="2887"><tspan fill="rgb(0,0,0)" stroke="none">70</tspan></tspan></tspan></text>
 <text class="TextShape"><tspan class="TextParagraph" font-family="Liberation Sans, sans-serif" font-size="459px" font-weight="400"><tspan class="TextPosition" x="12969" y="1025"><tspan fill="rgb(0,0,0)" stroke="none">L4S: CUBIC(50Mbps) vs CUBIC(40Mbps/ECT1 unrespns&apos;ve)</tspan></tspan></tspan></text>
 <text class="TextShape"><tspan class="TextParagraph" font-family="Liberation Sans, sans-serif" font-size="388px" font-weight="400"><tspan class="TextPosition" x="16139" y="2049"><tspan fill="rgb(0,0,0)" stroke="none">qdisc:dualpi2 bandwidth:50Mbit rtt:20ms</tspan></tspan></tspan></text>
 <path fill="rgb(221,221,221)" stroke="none" d="M 4468,9656 L 210,9656 210,6569 8726,6569 8726,9656 4468,9656 Z"/>
 <path fill="none" stroke="rgb(255,66,14)" stroke-width="20" stroke-linejoin="round" d="M 326,7365 L 1126,7365"/>
 <path fill="none" stroke="rgb(0,132,209)" stroke-width="20" stroke-linejoin="round" d="M 326,7863 L 1126,7863"/>
 <path fill="none" stroke="rgb(153,102,153)" stroke-width="20" stroke-linejoin="round" d="M 326,8858 L 1126,8858"/>
 <path fill="none" stroke="rgb(255,149,14)" stroke-width="20" stroke-linejoin="round" d="M 326,9356 L 1126,9356"/>
 <text class="TextShape"><tspan class="TextParagraph" font-family="Liberation Sans, sans-serif" font-size="353px" font-weight="400"><tspan class="TextPosition" x="1226" y="6987"><tspan fill="rgb(0,0,0)" stroke="none">Left axis (Mbps)</tspan></tspan></tspan></text>
 <text class="TextShape"><tspan class="TextParagraph" font-family="Liberation Sans, sans-serif" font-size="353px" font-weight="400"><tspan class="TextPosition" x="1226" y="7485"><tspan fill="rgb(0,0,0)" stroke="none">CUBIC(50Mbps) delivery rate</tspan></tspan></tspan></text>
 <text class="TextShape"><tspan class="TextParagraph" font-family="Liberation Sans, sans-serif" font-size="353px" font-weight="400"><tspan class="TextPosition" x="1226" y="7983"><tspan fill="rgb(0,0,0)" stroke="none">CUBIC(40Mbps/ECT1 unrespns&apos;ve) delivery rate</tspan></tspan></tspan></text>
 <text class="TextShape"><tspan class="TextParagraph" font-family="Liberation Sans, sans-serif" font-size="353px" font-weight="400"><tspan class="TextPosition" x="1226" y="8480"><tspan fill="rgb(0,0,0)" stroke="none">Right axis (ms)</tspan></tspan></tspan></text>
 <text class="TextShape"><tspan class="TextParagraph" font-family="Liberation Sans, sans-serif" font-size="353px" font-weight="400"><tspan class="TextPosition" x="1226" y="8978"><tspan fill="rgb(0,0,0)" stroke="none">CUBIC(50Mbps) TCP RTT</tspan></tspan></tspan></text>
 <text class="TextShape"><tspan class="TextParagraph" font-family="Liberation Sans, sans-serif" font-size="353px" font-weight="400"><tspan class="TextPosition" x="1226" y="9476"><tspan fill="rgb(0,0,0)" stroke="none">CUBIC(40Mbps/ECT1 unrespns&apos;ve) TCP RTT</tspan></tspan></tspan></text>
 <text class="TextShape"><tspan class="TextParagraph" font-family="Liberation Sans, sans-serif" font-size="423px" font-weight="400"><tspan class="TextPosition" x="17956" y="15599"><tspan fill="rgb(0,0,0)" stroke="none">Time (s)</tspan></tspan></tspan></text>
 <text class="TextShape" transform="rotate(-90 9674 9189)"><tspan class="TextParagraph" font-family="Liberation Sans, sans-serif" font-size="423px" font-weight="400"><tspan class="TextPosition" x="9674" y="9189"><tspan fill="rgb(0,0,0)" stroke="none">Mbps</tspan></tspan></tspan></text>
 <text class="TextShape" transform="rotate(-90 28065 8951)"><tspan class="TextParagraph" font-family="Liberation Sans, sans-serif" font-size="423px" font-weight="400"><tspan class="TextPosition" x="28065" y="8951"><tspan fill="rgb(0,0,0)" stroke="none">ms</tspan></tspan></tspan></text>
</svg>